Playfair_1200pt SemiCondensed Light.ufo
<glyph name="numbersign" format="2">
  <advance width="659"/>
  <unicode hex="0023"/>
  <outline>
    <contour>
      <point x="328" y="0" type="line"/>
      <point x="418" y="26" type="line"/>
      <point x="542" y="666" type="line"/>
      <point x="452" y="641" type="line"/>
    </contour>
    <contour>
      <point x="45" y="53" type="line"/>
      <point x="548" y="193" type="line"/>
      <point x="548" y="194" type="line"/>
      <point x="45" y="54" type="line"/>
    </contour>
    <contour>
      <point x="121" y="-57" type="line"/>
      <point x="211" y="-32" type="line"/>
      <point x="335" y="609" type="line"/>
      <point x="245" y="584" type="line"/>
    </contour>
    <contour>
      <point x="111" y="392" type="line"/>
      <point x="613" y="532" type="line"/>
      <point x="613" y="533" type="line"/>
      <point x="111" y="393" type="line"/>
    </contour>
  </outline>
</glyph>
<glyph name="percent" format="2">
  <advance width="770"/>
  <unicode hex="0025"/>
  <outline>
    <contour>
      <point x="167" y="-14" type="line"/>
      <point x="606" y="528" type="line"/>
      <point x="605" y="529" type="line"/>
      <point x="166" y="-13" type="line"/>
    </contour>
    <contour>
      <point x="553" y="-14" type="curve" smooth="yes"/>
      <point x="643" y="-14"/>
      <point x="705" y="38"/>
      <point x="705" y="114" type="curve" smooth="yes"/>
      <point x="705" y="188"/>
      <point x="647" y="237"/>
      <point x="559" y="237" type="curve" smooth="yes"/>
      <point x="469" y="237"/>
      <point x="407" y="185"/>
      <point x="407" y="108" type="curve" smooth="yes"/>
      <point x="407" y="34"/>
      <point x="465" y="-14"/>
    </contour>
    <contour>
      <point x="558" y="-13" type="curve" smooth="yes"/>
      <point x="506" y="-13"/>
      <point x="477" y="32"/>
      <point x="477" y="114" type="curve" smooth="yes"/>
      <point x="477" y="193"/>
      <point x="504" y="236"/>
      <point x="554" y="236" type="curve" smooth="yes"/>
      <point x="606" y="236"/>
      <point x="635" y="192"/>
      <point x="635" y="112" type="curve" smooth="yes"/>
      <point x="635" y="30"/>
      <point x="608" y="-13"/>
    </contour>
    <contour>
      <point x="211" y="278" type="curve" smooth="yes"/>
      <point x="301" y="278"/>
      <point x="363" y="330"/>
      <point x="363" y="406" type="curve" smooth="yes"/>
      <point x="363" y="480"/>
      <point x="305" y="529"/>
      <point x="217" y="529" type="curve" smooth="yes"/>
      <point x="127" y="529"/>
      <point x="65" y="477"/>
      <point x="65" y="400" type="curve" smooth="yes"/>
      <point x="65" y="326"/>
      <point x="123" y="278"/>
    </contour>
    <contour>
      <point x="216" y="279" type="curve" smooth="yes"/>
      <point x="164" y="279"/>
      <point x="135" y="324"/>
      <point x="135" y="406" type="curve" smooth="yes"/>
      <point x="135" y="485"/>
      <point x="162" y="528"/>
      <point x="212" y="528" type="curve" smooth="yes"/>
      <point x="264" y="528"/>
      <point x="293" y="484"/>
      <point x="293" y="404" type="curve" smooth="yes"/>
      <point x="293" y="322"/>
      <point x="266" y="279"/>
    </contour>
    <contour>
      <point x="454" y="470" type="curve" smooth="yes"/>
      <point x="513" y="470"/>
      <point x="566" y="490"/>
      <point x="606" y="528" type="curve"/>
      <point x="605" y="529" type="line"/>
      <point x="566" y="492"/>
      <point x="512" y="471"/>
      <point x="454" y="471" type="curve" smooth="yes"/>
      <point x="407" y="471"/>
      <point x="344" y="487"/>
      <point x="304" y="508" type="curve"/>
      <point x="303" y="507" type="line"/>
      <point x="343" y="486"/>
      <point x="406" y="470"/>
    </contour>
  </outline>
</glyph>
<glyph name="ampersand" format="2">
  <advance width="1108"/>
  <unicode hex="0026"/>
  <outline>
    <contour>
      <point x="344" y="-14" type="curve" smooth="yes"/>
      <point x="533" y="-14"/>
      <point x="671" y="104"/>
      <point x="760" y="341" type="curve"/>
      <point x="759" y="341" type="line"/>
      <point x="671" y="127"/>
      <point x="547" y="20"/>
      <point x="388" y="20" type="curve" smooth="yes"/>
      <point x="235" y="20"/>
      <point x="135" y="120"/>
      <point x="135" y="273" type="curve" smooth="yes"/>
      <point x="135" y="401"/>
      <point x="204" y="527"/>
      <point x="275" y="527" type="curve" smooth="yes"/>
      <point x="308" y="527"/>
      <point x="325" y="500"/>
      <point x="325" y="446" type="curve" smooth="yes"/>
      <point x="325" y="360"/>
      <point x="282" y="288"/>
      <point x="209" y="250" type="curve"/>
      <point x="209" y="249" type="line"/>
      <point x="450" y="356"/>
      <point x="625" y="519"/>
      <point x="625" y="637" type="curve" smooth="yes"/>
      <point x="625" y="682"/>
      <point x="601" y="712"/>
      <point x="565" y="712" type="curve" smooth="yes"/>
      <point x="538" y="712"/>
      <point x="519" y="695"/>
      <point x="519" y="670" type="curve" smooth="yes"/>
      <point x="519" y="625"/>
      <point x="581" y="599"/>
      <point x="581" y="555" type="curve" smooth="yes"/>
      <point x="581" y="482"/>
      <point x="415" y="344"/>
      <point x="218" y="254" type="curve"/>
      <point x="219" y="254" type="line"/>
      <point x="339" y="333"/>
      <point x="390" y="390"/>
      <point x="390" y="445" type="curve" smooth="yes"/>
      <point x="390" y="496"/>
      <point x="348" y="528"/>
      <point x="281" y="528" type="curve" smooth="yes"/>
      <point x="151" y="528"/>
      <point x="47" y="405"/>
      <point x="47" y="253" type="curve" smooth="yes"/>
      <point x="47" y="92"/>
      <point x="165" y="-14"/>
    </contour>
    <contour>
      <point x="527" y="163" type="curve" smooth="yes"/>
      <point x="556" y="163"/>
      <point x="577" y="183"/>
      <point x="577" y="209" type="curve" smooth="yes"/>
      <point x="577" y="255"/>
      <point x="506" y="294"/>
      <point x="506" y="319" type="curve" smooth="yes"/>
      <point x="506" y="338"/>
      <point x="548" y="348"/>
      <point x="627" y="348" type="curve" smooth="yes"/>
      <point x="788" y="348"/>
      <point x="826" y="304"/>
      <point x="921" y="304" type="curve" smooth="yes"/>
      <point x="1010" y="304"/>
      <point x="1068" y="344"/>
      <point x="1068" y="404" type="curve" smooth="yes"/>
      <point x="1068" y="436"/>
      <point x="1052" y="456"/>
      <point x="1025" y="456" type="curve" smooth="yes"/>
      <point x="952" y="456"/>
      <point x="991" y="305"/>
      <point x="913" y="305" type="curve" smooth="yes"/>
      <point x="850" y="305"/>
      <point x="766" y="406"/>
      <point x="657" y="406" type="curve" smooth="yes"/>
      <point x="560" y="406"/>
      <point x="475" y="326"/>
      <point x="475" y="234" type="curve" smooth="yes"/>
      <point x="475" y="190"/>
      <point x="495" y="163"/>
    </contour>
  </outline>
</glyph>
<glyph name="quotesingle" format="2">
  <advance width="228"/>
  <unicode hex="0027"/>
  <outline>
    <contour>
      <point x="113" y="448" type="curve"/>
      <point x="114" y="448" type="line"/>
      <point x="137" y="575"/>
      <point x="168" y="614"/>
      <point x="168" y="664" type="curve" smooth="yes"/>
      <point x="168" y="705"/>
      <point x="147" y="730"/>
      <point x="114" y="730" type="curve" smooth="yes"/>
      <point x="81" y="730"/>
      <point x="60" y="704"/>
      <point x="60" y="662" type="curve" smooth="yes"/>
      <point x="60" y="613"/>
      <point x="90" y="575"/>
    </contour>
  </outline>
</glyph>
<glyph name="parenleft" format="2">
  <advance width="441"/>
  <unicode hex="0028"/>
  <outline>
    <contour>
      <point x="419" y="-191" type="curve"/>
      <point x="420" y="-190" type="line"/>
      <point x="294" y="-55"/>
      <point x="211" y="102"/>
      <point x="211" y="303" type="curve" smooth="yes"/>
      <point x="211" y="497"/>
      <point x="294" y="650"/>
      <point x="420" y="782" type="curve"/>
      <point x="419" y="783" type="line"/>
      <point x="228" y="669"/>
      <point x="129" y="504"/>
      <point x="129" y="303" type="curve" smooth="yes"/>
      <point x="129" y="96"/>
      <point x="228" y="-74"/>
    </contour>
  </outline>
</glyph>
<glyph name="asterisk" format="2">
  <advance width="492"/>
  <unicode hex="002A"/>
  <outline>
    <contour>
      <point x="428" y="623" type="curve" smooth="yes"/>
      <point x="417" y="642"/>
      <point x="397" y="648"/>
      <point x="374" y="634" type="curve" smooth="yes"/>
      <point x="341" y="614"/>
      <point x="311" y="564"/>
      <point x="245" y="518" type="curve"/>
      <point x="245" y="517" type="line"/>
      <point x="322" y="551"/>
      <point x="378" y="552"/>
      <point x="411" y="571" type="curve" smooth="yes"/>
      <point x="435" y="585"/>
      <point x="439" y="605"/>
    </contour>
    <contour>
      <point x="429" y="412" type="curve" smooth="yes"/>
      <point x="440" y="430"/>
      <point x="435" y="452"/>
      <point x="411" y="465" type="curve" smooth="yes"/>
      <point x="377" y="483"/>
      <point x="319" y="484"/>
      <point x="246" y="518" type="curve"/>
      <point x="245" y="518" type="line"/>
      <point x="313" y="468"/>
      <point x="342" y="420"/>
      <point x="375" y="401" type="curve" smooth="yes"/>
      <point x="399" y="387"/>
      <point x="418" y="394"/>
    </contour>
    <contour>
      <point x="245" y="307" type="curve" smooth="yes"/>
      <point x="267" y="307"/>
      <point x="283" y="321"/>
      <point x="282" y="349" type="curve" smooth="yes"/>
      <point x="281" y="387"/>
      <point x="253" y="438"/>
      <point x="246" y="518" type="curve"/>
      <point x="245" y="518" type="line"/>
      <point x="236" y="435"/>
      <point x="209" y="386"/>
      <point x="209" y="348" type="curve" smooth="yes"/>
      <point x="209" y="320"/>
      <point x="224" y="307"/>
    </contour>
    <contour>
      <point x="62" y="412" type="curve" smooth="yes"/>
      <point x="73" y="393"/>
      <point x="93" y="386"/>
      <point x="117" y="401" type="curve" smooth="yes"/>
      <point x="149" y="421"/>
      <point x="179" y="471"/>
      <point x="245" y="517" type="curve"/>
      <point x="245" y="518" type="line"/>
      <point x="168" y="484"/>
      <point x="112" y="483"/>
      <point x="79" y="464" type="curve" smooth="yes"/>
      <point x="55" y="450"/>
      <point x="51" y="430"/>
    </contour>
    <contour>
      <point x="63" y="623" type="curve" smooth="yes"/>
      <point x="53" y="604"/>
      <point x="56" y="584"/>
      <point x="81" y="570" type="curve" smooth="yes"/>
      <point x="113" y="552"/>
      <point x="173" y="552"/>
      <point x="246" y="517" type="curve"/>
      <point x="246" y="518" type="line"/>
      <point x="178" y="568"/>
      <point x="149" y="616"/>
      <point x="116" y="635" type="curve" smooth="yes"/>
      <point x="92" y="649"/>
      <point x="73" y="642"/>
    </contour>
    <contour>
      <point x="246" y="729" type="curve" smooth="yes"/>
      <point x="224" y="729"/>
      <point x="209" y="715"/>
      <point x="209" y="688" type="curve" smooth="yes"/>
      <point x="209" y="650"/>
      <point x="238" y="598"/>
      <point x="245" y="518" type="curve"/>
      <point x="246" y="518" type="line"/>
      <point x="255" y="601"/>
      <point x="282" y="650"/>
      <point x="282" y="688" type="curve" smooth="yes"/>
      <point x="282" y="716"/>
      <point x="267" y="729"/>
    </contour>
  </outline>
</glyph>
<glyph name="plus" format="2">
  <advance width="647"/>
  <unicode hex="002B"/>
  <outline>
    <contour>
      <point x="323" y="16" type="line"/>
      <point x="324" y="16" type="line"/>
      <point x="324" y="265" type="line"/>
      <point x="574" y="265" type="line"/>
      <point x="574" y="266" type="line"/>
      <point x="324" y="266" type="line"/>
      <point x="324" y="517" type="line"/>
      <point x="323" y="517" type="line"/>
      <point x="323" y="266" type="line"/>
      <point x="73" y="266" type="line"/>
      <point x="73" y="265" type="line"/>
      <point x="323" y="265" type="line"/>
    </contour>
  </outline>
</glyph>
<glyph name="comma" format="2">
  <advance width="264"/>
  <unicode hex="002C"/>
  <outline>
    <contour>
      <point x="92" y="-123" type="line"/>
      <point x="152" y="-109"/>
      <point x="195" y="-63"/>
      <point x="195" y="12" type="curve" smooth="yes"/>
      <point x="195" y="70"/>
      <point x="168" y="106"/>
      <point x="127" y="106" type="curve" smooth="yes"/>
      <point x="92" y="106"/>
      <point x="66" y="83"/>
      <point x="66" y="51" type="curve" smooth="yes"/>
      <point x="66" y="20"/>
      <point x="88" y="-2"/>
      <point x="118" y="-2" type="curve" smooth="yes"/>
      <point x="138" y="-2"/>
      <point x="153" y="9"/>
      <point x="167" y="9" type="curve" smooth="yes"/>
      <point x="181" y="9"/>
      <point x="188" y="0"/>
      <point x="188" y="-18" type="curve" smooth="yes"/>
      <point x="188" y="-59"/>
      <point x="152" y="-108"/>
      <point x="92" y="-122" type="curve"/>
    </contour>
  </outline>
</glyph>
<glyph name="period" format="2">
  <advance width="252"/>
  <unicode hex="002E"/>
  <anchor x="0" y="0" name="^entry"/>
  <anchor x="300" y="0" name="^exit"/>
  <anchor x="126" y="0" name="_Ldot"/>
  <anchor x="126" y="92" name="_ascender"/>
  <anchor x="126" y="0" name="_baseline"/>
  <anchor x="126" y="0" name="_center"/>
  <anchor x="126" y="0" name="center"/>
  <outline>
    <contour>
      <point x="126" y="-14" type="curve" smooth="yes"/>
      <point x="159" y="-14"/>
      <point x="186" y="13"/>
      <point x="186" y="46" type="curve" smooth="yes"/>
      <point x="186" y="79"/>
      <point x="159" y="106"/>
      <point x="126" y="106" type="curve" smooth="yes"/>
      <point x="93" y="106"/>
      <point x="66" y="79"/>
      <point x="66" y="46" type="curve" smooth="yes"/>
      <point x="66" y="13"/>
      <point x="93" y="-14"/>
    </contour>
  </outline>
</glyph>
<glyph name="slash" format="2">
  <advance width="340"/>
  <unicode hex="002F"/>
  <anchor x="84" y="708" name="ascender"/>
  <anchor x="256" y="0" name="baseline"/>
  <outline>
    <contour>
      <point x="33" y="-14" type="line"/>
      <point x="35" y="-14" type="line"/>
      <point x="307" y="722" type="line"/>
      <point x="305" y="722" type="line"/>
    </contour>
  </outline>
</glyph>
<glyph name="zero" format="2">
  <advance width="627"/>
  <unicode hex="0030"/>
  <anchor x="314" y="260" name="center"/>
  <outline>
    <contour>
      <point x="308" y="-14" type="curve" smooth="yes"/>
      <point x="456" y="-14"/>
      <point x="561" y="102"/>
      <point x="561" y="266" type="curve" smooth="yes"/>
      <point x="561" y="422"/>
      <point x="463" y="529"/>
      <point x="319" y="529" type="curve" smooth="yes"/>
      <point x="171" y="529"/>
      <point x="66" y="413"/>
      <point x="66" y="250" type="curve" smooth="yes"/>
      <point x="66" y="94"/>
      <point x="165" y="-14"/>
    </contour>
    <contour>
      <point x="313" y="-13" type="curve" smooth="yes"/>
      <point x="220" y="-13"/>
      <point x="163" y="88"/>
      <point x="163" y="253" type="curve" smooth="yes"/>
      <point x="163" y="423"/>
      <point x="221" y="528"/>
      <point x="314" y="528" type="curve" smooth="yes"/>
      <point x="407" y="528"/>
      <point x="464" y="427"/>
      <point x="464" y="263" type="curve" smooth="yes"/>
      <point x="464" y="93"/>
      <point x="406" y="-13"/>
    </contour>
  </outline>
</glyph>
<glyph name="one" format="2">
  <advance width="380"/>
  <unicode hex="0031"/>
  <outline>
    <contour>
      <point x="57" y="0" type="line"/>
      <point x="88" y="1"/>
      <point x="149" y="4"/>
      <point x="211" y="4" type="curve" smooth="yes"/>
      <point x="265" y="4"/>
      <point x="322" y="1"/>
      <point x="349" y="0" type="curve"/>
      <point x="349" y="1" type="line"/>
      <point x="280" y="3"/>
      <point x="253" y="19"/>
      <point x="253" y="83" type="curve" smooth="yes"/>
      <point x="253" y="536" type="line"/>
      <point x="202" y="500"/>
      <point x="143" y="487"/>
      <point x="47" y="485" type="curve"/>
      <point x="47" y="484" type="line"/>
      <point x="137" y="484"/>
      <point x="163" y="472"/>
      <point x="163" y="376" type="curve" smooth="yes"/>
      <point x="163" y="83" type="line" smooth="yes"/>
      <point x="163" y="18"/>
      <point x="123" y="3"/>
      <point x="57" y="1" type="curve"/>
    </contour>
  </outline>
</glyph>
<glyph name="two" format="2">
  <advance width="480"/>
  <unicode hex="0032"/>
  <outline>
    <contour>
      <point x="439" y="-5" type="curve"/>
      <point x="436" y="26"/>
      <point x="435" y="57"/>
      <point x="435" y="128" type="curve"/>
      <point x="434" y="128" type="line"/>
      <point x="429" y="90"/>
      <point x="406" y="77"/>
      <point x="351" y="77" type="curve" smooth="yes"/>
      <point x="125" y="77" type="line"/>
      <point x="125" y="78" type="line"/>
      <point x="218" y="178"/>
      <point x="389" y="271"/>
      <point x="389" y="405" type="curve" smooth="yes"/>
      <point x="389" y="483"/>
      <point x="331" y="529"/>
      <point x="239" y="529" type="curve" smooth="yes"/>
      <point x="131" y="529"/>
      <point x="43" y="466"/>
      <point x="43" y="392" type="curve" smooth="yes"/>
      <point x="43" y="356"/>
      <point x="64" y="334"/>
      <point x="96" y="334" type="curve" smooth="yes"/>
      <point x="122" y="334"/>
      <point x="145" y="348"/>
      <point x="145" y="375" type="curve" smooth="yes"/>
      <point x="145" y="415"/>
      <point x="97" y="439"/>
      <point x="97" y="467" type="curve" smooth="yes"/>
      <point x="97" y="492"/>
      <point x="137" y="514"/>
      <point x="186" y="514" type="curve" smooth="yes"/>
      <point x="252" y="514"/>
      <point x="292" y="474"/>
      <point x="292" y="387" type="curve" smooth="yes"/>
      <point x="292" y="214"/>
      <point x="136" y="98"/>
      <point x="46" y="1" type="curve"/>
      <point x="46" y="0" type="line"/>
      <point x="360" y="0" type="line" smooth="yes"/>
      <point x="392" y="0"/>
      <point x="429" y="-1"/>
    </contour>
  </outline>
</glyph>
<glyph name="three" format="2">
  <advance width="505"/>
  <unicode hex="0033"/>
  <outline>
    <contour>
      <point x="222" y="-150" type="curve" smooth="yes"/>
      <point x="358" y="-150"/>
      <point x="455" y="-77"/>
      <point x="455" y="26" type="curve" smooth="yes"/>
      <point x="455" y="118"/>
      <point x="373" y="185"/>
      <point x="249" y="194" type="curve"/>
      <point x="366" y="231"/>
      <point x="436" y="302"/>
      <point x="436" y="384" type="curve" smooth="yes"/>
      <point x="436" y="470"/>
      <point x="362" y="529"/>
      <point x="254" y="529" type="curve" smooth="yes"/>
      <point x="143" y="529"/>
      <point x="50" y="466"/>
      <point x="50" y="391" type="curve" smooth="yes"/>
      <point x="50" y="356"/>
      <point x="71" y="334"/>
      <point x="103" y="334" type="curve" smooth="yes"/>
      <point x="132" y="334"/>
      <point x="152" y="351"/>
      <point x="152" y="376" type="curve" smooth="yes"/>
      <point x="152" y="414"/>
      <point x="104" y="439"/>
      <point x="104" y="467" type="curve" smooth="yes"/>
      <point x="104" y="493"/>
      <point x="148" y="514"/>
      <point x="201" y="514" type="curve" smooth="yes"/>
      <point x="286" y="514"/>
      <point x="339" y="455"/>
      <point x="339" y="359" type="curve" smooth="yes"/>
      <point x="339" y="288"/>
      <point x="309" y="233"/>
      <point x="249" y="195" type="curve"/>
      <point x="226" y="198"/>
      <point x="212" y="200"/>
      <point x="201" y="200" type="curve" smooth="yes"/>
      <point x="188" y="200"/>
      <point x="180" y="197"/>
      <point x="180" y="192" type="curve" smooth="yes"/>
      <point x="180" y="187"/>
      <point x="186" y="184"/>
      <point x="197" y="184" type="curve" smooth="yes"/>
      <point x="208" y="184"/>
      <point x="226" y="188"/>
      <point x="249" y="193" type="curve"/>
      <point x="319" y="168"/>
      <point x="358" y="108"/>
      <point x="358" y="24" type="curve" smooth="yes"/>
      <point x="358" y="-82"/>
      <point x="295" y="-143"/>
      <point x="185" y="-143" type="curve" smooth="yes"/>
      <point x="133" y="-143"/>
      <point x="101" y="-129"/>
      <point x="101" y="-107" type="curve" smooth="yes"/>
      <point x="101" y="-85"/>
      <point x="131" y="-60"/>
      <point x="131" y="-28" type="curve" smooth="yes"/>
      <point x="131" y="-5"/>
      <point x="115" y="10"/>
      <point x="89" y="10" type="curve" smooth="yes"/>
      <point x="58" y="10"/>
      <point x="36" y="-13"/>
      <point x="36" y="-45" type="curve" smooth="yes"/>
      <point x="36" y="-105"/>
      <point x="116" y="-150"/>
    </contour>
  </outline>
</glyph>
<glyph name="four" format="2">
  <advance width="511"/>
  <unicode hex="0034"/>
  <outline>
    <contour>
      <point x="17" y="34" type="line"/>
      <point x="480" y="34" type="line"/>
      <point x="480" y="111" type="line"/>
      <point x="71" y="111" type="line"/>
      <point x="70" y="108" type="line"/>
      <point x="364" y="528" type="line"/>
      <point x="363" y="529" type="line"/>
      <point x="17" y="35" type="line"/>
    </contour>
    <contour>
      <point x="284" y="-141" type="line"/>
      <point x="364" y="-141" type="line"/>
      <point x="364" y="529" type="line"/>
      <point x="363" y="529" type="line"/>
      <point x="284" y="414" type="line"/>
    </contour>
  </outline>
</glyph>
<glyph name="five" format="2">
  <advance width="479"/>
  <unicode hex="0035"/>
  <outline>
    <contour>
      <point x="215" y="-150" type="curve" smooth="yes"/>
      <point x="344" y="-150"/>
      <point x="435" y="-60"/>
      <point x="435" y="66" type="curve" smooth="yes"/>
      <point x="435" y="193"/>
      <point x="363" y="271"/>
      <point x="244" y="271" type="curve" smooth="yes"/>
      <point x="195" y="271"/>
      <point x="148" y="261"/>
      <point x="101" y="231" type="curve"/>
      <point x="132" y="442" type="line"/>
      <point x="166" y="431"/>
      <point x="201" y="427"/>
      <point x="242" y="427" type="curve" smooth="yes"/>
      <point x="337" y="427"/>
      <point x="401" y="465"/>
      <point x="412" y="529" type="curve"/>
      <point x="411" y="530" type="line"/>
      <point x="383" y="515"/>
      <point x="318" y="503"/>
      <point x="266" y="503" type="curve" smooth="yes"/>
      <point x="215" y="503"/>
      <point x="168" y="511"/>
      <point x="142" y="519" type="curve"/>
      <point x="99" y="228" type="line"/>
      <point x="101" y="230" type="line"/>
      <point x="129" y="248"/>
      <point x="160" y="260"/>
      <point x="195" y="260" type="curve" smooth="yes"/>
      <point x="285" y="260"/>
      <point x="338" y="187"/>
      <point x="338" y="64" type="curve" smooth="yes"/>
      <point x="338" y="-64"/>
      <point x="279" y="-144"/>
      <point x="185" y="-144" type="curve" smooth="yes"/>
      <point x="134" y="-144"/>
      <point x="101" y="-121"/>
      <point x="101" y="-86" type="curve" smooth="yes"/>
      <point x="101" y="-52"/>
      <point x="131" y="-33"/>
      <point x="131" y="1" type="curve" smooth="yes"/>
      <point x="131" y="25"/>
      <point x="115" y="40"/>
      <point x="89" y="40" type="curve" smooth="yes"/>
      <point x="56" y="40"/>
      <point x="36" y="17"/>
      <point x="36" y="-19" type="curve" smooth="yes"/>
      <point x="36" y="-93"/>
      <point x="114" y="-150"/>
    </contour>
    <contour>
      <point x="80" y="194" type="curve" smooth="yes"/>
      <point x="92" y="194"/>
      <point x="100" y="208"/>
      <point x="101" y="230" type="curve"/>
      <point x="101" y="231" type="line"/>
      <point x="82" y="221"/>
      <point x="72" y="211"/>
      <point x="72" y="202" type="curve" smooth="yes"/>
      <point x="72" y="197"/>
      <point x="75" y="194"/>
    </contour>
  </outline>
</glyph>
<glyph name="six" format="2">
  <advance width="556"/>
  <unicode hex="0036"/>
  <outline>
    <contour>
      <point x="283" y="-14" type="curve" smooth="yes"/>
      <point x="408" y="-14"/>
      <point x="490" y="80"/>
      <point x="490" y="225" type="curve" smooth="yes"/>
      <point x="490" y="359"/>
      <point x="420" y="448"/>
      <point x="316" y="448" type="curve" smooth="yes"/>
      <point x="233" y="448"/>
      <point x="173" y="392"/>
      <point x="154" y="299" type="curve"/>
      <point x="155" y="299" type="line"/>
      <point x="175" y="388"/>
      <point x="225" y="434"/>
      <point x="284" y="434" type="curve" smooth="yes"/>
      <point x="353" y="434"/>
      <point x="393" y="353"/>
      <point x="393" y="214" type="curve" smooth="yes"/>
      <point x="393" y="72"/>
      <point x="353" y="-13"/>
      <point x="286" y="-13" type="curve" smooth="yes"/>
      <point x="207" y="-13"/>
      <point x="163" y="109"/>
      <point x="163" y="330" type="curve" smooth="yes"/>
      <point x="163" y="585"/>
      <point x="220" y="718"/>
      <point x="330" y="718" type="curve" smooth="yes"/>
      <point x="372" y="718"/>
      <point x="405" y="698"/>
      <point x="405" y="672" type="curve" smooth="yes"/>
      <point x="405" y="648"/>
      <point x="375" y="625"/>
      <point x="375" y="592" type="curve" smooth="yes"/>
      <point x="375" y="567"/>
      <point x="392" y="551"/>
      <point x="418" y="551" type="curve" smooth="yes"/>
      <point x="449" y="551"/>
      <point x="470" y="574"/>
      <point x="470" y="607" type="curve" smooth="yes"/>
      <point x="470" y="670"/>
      <point x="399" y="722"/>
      <point x="313" y="722" type="curve" smooth="yes"/>
      <point x="164" y="722"/>
      <point x="66" y="562"/>
      <point x="66" y="318" type="curve" smooth="yes"/>
      <point x="66" y="103"/>
      <point x="143" y="-14"/>
    </contour>
  </outline>
</glyph>
<glyph name="seven" format="2">
  <advance width="438"/>
  <unicode hex="0037"/>
  <outline>
    <contour>
      <point x="216" y="-148" type="curve" smooth="yes"/>
      <point x="244" y="-148"/>
      <point x="263" y="-127"/>
      <point x="263" y="-97" type="curve" smooth="yes"/>
      <point x="263" y="-76"/>
      <point x="259" y="-50"/>
      <point x="259" y="-18" type="curve" smooth="yes"/>
      <point x="259" y="220"/>
      <point x="375" y="371"/>
      <point x="432" y="513" type="curve"/>
      <point x="432" y="514" type="line"/>
      <point x="130" y="514" type="line" smooth="yes"/>
      <point x="94" y="514"/>
      <point x="52" y="515"/>
      <point x="41" y="519" type="curve"/>
      <point x="44" y="484"/>
      <point x="45" y="439"/>
      <point x="45" y="358" type="curve"/>
      <point x="46" y="358" type="line"/>
      <point x="52" y="418"/>
      <point x="77" y="437"/>
      <point x="139" y="437" type="curve" smooth="yes"/>
      <point x="395" y="437" type="line"/>
      <point x="395" y="436" type="line"/>
      <point x="343" y="337"/>
      <point x="171" y="145"/>
      <point x="171" y="-92" type="curve" smooth="yes"/>
      <point x="171" y="-121"/>
      <point x="185" y="-148"/>
    </contour>
  </outline>
</glyph>
<glyph name="eight" format="2">
  <advance width="523"/>
  <unicode hex="0038"/>
  <outline>
    <contour>
      <point x="253" y="-14" type="curve" smooth="yes"/>
      <point x="383" y="-14"/>
      <point x="473" y="65"/>
      <point x="473" y="187" type="curve" smooth="yes"/>
      <point x="473" y="423"/>
      <point x="164" y="375"/>
      <point x="164" y="597" type="curve" smooth="yes"/>
      <point x="164" y="665"/>
      <point x="199" y="720"/>
      <point x="252" y="720" type="curve" smooth="yes"/>
      <point x="316" y="720"/>
      <point x="361" y="657"/>
      <point x="361" y="567" type="curve" smooth="yes"/>
      <point x="361" y="504"/>
      <point x="339" y="440"/>
      <point x="303" y="400" type="curve"/>
      <point x="304" y="400" type="line"/>
      <point x="395" y="459"/>
      <point x="439" y="518"/>
      <point x="439" y="583" type="curve" smooth="yes"/>
      <point x="439" y="665"/>
      <point x="370" y="722"/>
      <point x="269" y="722" type="curve" smooth="yes"/>
      <point x="161" y="722"/>
      <point x="86" y="650"/>
      <point x="86" y="552" type="curve" smooth="yes"/>
      <point x="86" y="322"/>
      <point x="388" y="374"/>
      <point x="388" y="139" type="curve" smooth="yes"/>
      <point x="388" y="46"/>
      <point x="339" y="-13"/>
      <point x="269" y="-13" type="curve" smooth="yes"/>
      <point x="190" y="-13"/>
      <point x="137" y="61"/>
      <point x="137" y="171" type="curve" smooth="yes"/>
      <point x="137" y="253"/>
      <point x="167" y="326"/>
      <point x="219" y="370" type="curve"/>
      <point x="218" y="370" type="line"/>
      <point x="112" y="321"/>
      <point x="50" y="242"/>
      <point x="50" y="155" type="curve" smooth="yes"/>
      <point x="50" y="55"/>
      <point x="132" y="-14"/>
    </contour>
  </outline>
</glyph>
<glyph name="nine" format="2">
  <advance width="556"/>
  <unicode hex="0039"/>
  <outline>
    <contour>
      <point x="246" y="-150" type="curve" smooth="yes"/>
      <point x="395" y="-150"/>
      <point x="490" y="-10"/>
      <point x="490" y="210" type="curve" smooth="yes"/>
      <point x="490" y="413"/>
      <point x="409" y="529"/>
      <point x="268" y="529" type="curve" smooth="yes"/>
      <point x="147" y="529"/>
      <point x="66" y="445"/>
      <point x="66" y="320" type="curve" smooth="yes"/>
      <point x="66" y="204"/>
      <point x="136" y="127"/>
      <point x="243" y="127" type="curve" smooth="yes"/>
      <point x="323" y="127"/>
      <point x="384" y="169"/>
      <point x="402" y="236" type="curve"/>
      <point x="401" y="236" type="line"/>
      <point x="387" y="180"/>
      <point x="337" y="142"/>
      <point x="278" y="142" type="curve" smooth="yes"/>
      <point x="203" y="142"/>
      <point x="163" y="207"/>
      <point x="163" y="328" type="curve" smooth="yes"/>
      <point x="163" y="450"/>
      <point x="204" y="528"/>
      <point x="267" y="528" type="curve" smooth="yes"/>
      <point x="347" y="528"/>
      <point x="393" y="407"/>
      <point x="393" y="197" type="curve" smooth="yes"/>
      <point x="393" y="-30"/>
      <point x="338" y="-146"/>
      <point x="229" y="-146" type="curve" smooth="yes"/>
      <point x="184" y="-146"/>
      <point x="151" y="-126"/>
      <point x="151" y="-100" type="curve" smooth="yes"/>
      <point x="151" y="-76"/>
      <point x="181" y="-53"/>
      <point x="181" y="-20" type="curve" smooth="yes"/>
      <point x="181" y="5"/>
      <point x="164" y="21"/>
      <point x="138" y="21" type="curve" smooth="yes"/>
      <point x="107" y="21"/>
      <point x="86" y="-2"/>
      <point x="86" y="-36" type="curve" smooth="yes"/>
      <point x="86" y="-99"/>
      <point x="157" y="-150"/>
    </contour>
  </outline>
</glyph>
<glyph name="less" format="2">
  <advance width="608"/>
  <unicode hex="003C"/>
  <outline>
    <contour>
      <point x="517" y="39" type="line"/>
      <point x="518" y="40" type="line"/>
      <point x="33" y="266" type="line"/>
      <point x="518" y="492" type="line"/>
      <point x="517" y="493" type="line"/>
      <point x="30" y="266" type="line"/>
    </contour>
  </outline>
</glyph>
<glyph name="equal" format="2">
  <advance width="647"/>
  <unicode hex="003D"/>
  <outline>
    <contour>
      <point x="73" y="350" type="line"/>
      <point x="574" y="350" type="line"/>
      <point x="574" y="351" type="line"/>
      <point x="73" y="351" type="line"/>
    </contour>
    <contour>
      <point x="73" y="181" type="line"/>
      <point x="574" y="181" type="line"/>
      <point x="574" y="182" type="line"/>
      <point x="73" y="182" type="line"/>
    </contour>
  </outline>
</glyph>
<glyph name="at" format="2">
  <advance width="925"/>
  <unicode hex="0040"/>
  <outline>
    <contour>
      <point x="362" y="-161" type="curve" smooth="yes"/>
      <point x="449" y="-161"/>
      <point x="525" y="-141"/>
      <point x="584" y="-102" type="curve"/>
      <point x="584" y="-101" type="line"/>
      <point x="524" y="-140"/>
      <point x="449" y="-160"/>
      <point x="362" y="-160" type="curve" smooth="yes"/>
      <point x="168" y="-160"/>
      <point x="64" y="-61"/>
      <point x="64" y="126" type="curve" smooth="yes"/>
      <point x="64" y="414"/>
      <point x="310" y="667"/>
      <point x="589" y="667" type="curve" smooth="yes"/>
      <point x="764" y="667"/>
      <point x="871" y="568"/>
      <point x="871" y="406" type="curve" smooth="yes"/>
      <point x="871" y="216"/>
      <point x="722" y="33"/>
      <point x="593" y="33" type="curve" smooth="yes"/>
      <point x="569" y="33"/>
      <point x="558" y="44"/>
      <point x="568" y="79" type="curve" smooth="yes"/>
      <point x="662" y="417" type="line" smooth="yes"/>
      <point x="671" y="449"/>
      <point x="682" y="468"/>
      <point x="694" y="483" type="curve"/>
      <point x="693" y="484" type="line"/>
      <point x="667" y="451"/>
      <point x="616" y="417"/>
      <point x="572" y="404" type="curve"/>
      <point x="493" y="121" type="line" smooth="yes"/>
      <point x="478" y="67"/>
      <point x="499" y="26"/>
      <point x="568" y="26" type="curve" smooth="yes"/>
      <point x="727" y="26"/>
      <point x="872" y="217"/>
      <point x="872" y="407" type="curve" smooth="yes"/>
      <point x="872" y="569"/>
      <point x="764" y="668"/>
      <point x="589" y="668" type="curve" smooth="yes"/>
      <point x="309" y="668"/>
      <point x="63" y="415"/>
      <point x="63" y="126" type="curve" smooth="yes"/>
      <point x="63" y="-61"/>
      <point x="167" y="-161"/>
    </contour>
    <contour>
      <point x="376" y="26" type="curve" smooth="yes"/>
      <point x="425" y="26"/>
      <point x="467" y="52"/>
      <point x="493" y="97" type="curve"/>
      <point x="492" y="97" type="line"/>
      <point x="477" y="72"/>
      <point x="452" y="58"/>
      <point x="422" y="58" type="curve" smooth="yes"/>
      <point x="369" y="58"/>
      <point x="344" y="96"/>
      <point x="345" y="178" type="curve" smooth="yes"/>
      <point x="348" y="331"/>
      <point x="420" y="477"/>
      <point x="492" y="477" type="curve" smooth="yes"/>
      <point x="538" y="477"/>
      <point x="563" y="435"/>
      <point x="564" y="356" type="curve"/>
      <point x="623" y="392" type="line"/>
      <point x="595" y="446"/>
      <point x="546" y="478"/>
      <point x="489" y="478" type="curve" smooth="yes"/>
      <point x="374" y="478"/>
      <point x="258" y="330"/>
      <point x="255" y="180" type="curve" smooth="yes"/>
      <point x="253" y="83"/>
      <point x="298" y="26"/>
    </contour>
  </outline>
</glyph>
<glyph name="A" format="2">
  <advance width="677"/>
  <unicode hex="0041"/>
  <anchor x="334" y="0" name="bottom"/>
  <anchor x="334" y="354" name="center"/>
  <anchor x="563" y="0" name="ogonek"/>
  <anchor x="333" y="708" name="top"/>
  <anchor x="333" y="688" name="top_low_1"/>
  <anchor x="333" y="668" name="top_low_2"/>
  <anchor x="333" y="648" name="top_low_3"/>
  <outline>
    <contour>
      <point x="117" y="146" type="curve"/>
      <point x="298" y="624" type="line"/>
      <point x="287" y="597" type="line"/>
      <point x="482" y="89" type="line"/>
      <point x="503" y="23"/>
      <point x="493" y="10"/>
      <point x="437" y="3" type="curve"/>
      <point x="421" y="1" type="line"/>
      <point x="421" y="0" type="line"/>
      <point x="450" y="1"/>
      <point x="497" y="3"/>
      <point x="561" y="3" type="curve"/>
      <point x="558" y="3" type="line"/>
      <point x="567" y="3" type="line"/>
      <point x="612" y="3"/>
      <point x="646" y="1"/>
      <point x="668" y="1" type="curve"/>
      <point x="668" y="2" type="line"/>
      <point x="657" y="2" type="line"/>
      <point x="618" y="6"/>
      <point x="603" y="23"/>
      <point x="582" y="79" type="curve"/>
      <point x="335" y="723" type="line"/>
      <point x="334" y="723" type="line"/>
      <point x="110" y="135" type="line"/>
      <point x="77" y="45"/>
      <point x="46" y="13"/>
      <point x="-4" y="3" type="curve"/>
      <point x="-14" y="1" type="line"/>
      <point x="-14" y="0" type="line"/>
      <point x="3" y="1"/>
      <point x="30" y="3"/>
      <point x="71" y="3" type="curve"/>
      <point x="108" y="3"/>
      <point x="169" y="2"/>
      <point x="211" y="0" type="curve"/>
      <point x="211" y="1" type="line"/>
      <point x="201" y="2" type="line"/>
      <point x="113" y="11"/>
      <point x="85" y="60"/>
    </contour>
    <contour>
      <point x="166" y="277" type="line"/>
      <point x="464" y="277" type="line"/>
      <point x="464" y="278" type="line"/>
      <point x="166" y="278" type="line"/>
    </contour>
  </outline>
</glyph>
<glyph name="B" format="2">
  <advance width="621"/>
  <unicode hex="0042"/>
  <anchor x="310" y="0" name="bottom"/>
  <anchor x="167" y="367" name="center"/>
  <anchor x="319" y="0" name="currency"/>
  <anchor x="310" y="708" name="top"/>
  <anchor x="310" y="688" name="top_low_1"/>
  <anchor x="310" y="668" name="top_low_2"/>
  <anchor x="310" y="648" name="top_low_3"/>
  <outline>
    <contour>
      <point x="276" y="0" type="curve"/>
      <point x="336" y="0" type="line" smooth="yes"/>
      <point x="482" y="0"/>
      <point x="576" y="76"/>
      <point x="576" y="194" type="curve" smooth="yes"/>
      <point x="576" y="299"/>
      <point x="486" y="358"/>
      <point x="313" y="368" type="curve"/>
      <point x="313" y="369" type="line"/>
      <point x="440" y="386"/>
      <point x="524" y="458"/>
      <point x="524" y="550" type="curve" smooth="yes"/>
      <point x="524" y="648"/>
      <point x="444" y="708"/>
      <point x="313" y="708" type="curve" smooth="yes"/>
      <point x="276" y="708" type="line"/>
      <point x="254" y="708"/>
      <point x="216" y="705"/>
      <point x="168" y="705" type="curve"/>
      <point x="111" y="705"/>
      <point x="66" y="707"/>
      <point x="40" y="708" type="curve"/>
      <point x="40" y="707" type="line"/>
      <point x="56" y="705" type="line"/>
      <point x="112" y="698"/>
      <point x="121" y="686"/>
      <point x="121" y="621" type="curve"/>
      <point x="121" y="87" type="line"/>
      <point x="121" y="22"/>
      <point x="112" y="10"/>
      <point x="56" y="3" type="curve"/>
      <point x="40" y="1" type="line"/>
      <point x="40" y="0" type="line"/>
      <point x="66" y="1"/>
      <point x="111" y="3"/>
      <point x="168" y="3" type="curve"/>
      <point x="216" y="3"/>
      <point x="254" y="0"/>
    </contour>
    <contour>
      <point x="289" y="2" type="curve" smooth="yes"/>
      <point x="226" y="2"/>
      <point x="214" y="16"/>
      <point x="214" y="87" type="curve" smooth="yes"/>
      <point x="214" y="704" type="line"/>
      <point x="288" y="704" type="line" smooth="yes"/>
      <point x="384" y="704"/>
      <point x="428" y="654"/>
      <point x="428" y="539" type="curve" smooth="yes"/>
      <point x="428" y="425"/>
      <point x="379" y="368"/>
      <point x="281" y="368" type="curve" smooth="yes"/>
      <point x="195" y="368" type="line"/>
      <point x="195" y="367" type="line"/>
      <point x="298" y="367" type="line" smooth="yes"/>
      <point x="418" y="367"/>
      <point x="476" y="312"/>
      <point x="476" y="198" type="curve" smooth="yes"/>
      <point x="476" y="67"/>
      <point x="414" y="2"/>
    </contour>
  </outline>
</glyph>
<glyph name="C" format="2">
  <advance width="688"/>
  <unicode hex="0043"/>
  <anchor x="374" y="0" name="bottom"/>
  <anchor x="364" y="354" name="center"/>
  <anchor x="374" y="0" name="currency"/>
  <anchor x="153" y="354" name="middlestroke"/>
  <anchor x="364" y="708" name="top"/>
  <anchor x="364" y="688" name="top_low_1"/>
  <anchor x="364" y="668" name="top_low_2"/>
  <anchor x="364" y="648" name="top_low_3"/>
  <outline>
    <contour>
      <point x="364" y="-14" type="curve" smooth="yes"/>
      <point x="482" y="-14"/>
      <point x="524" y="39"/>
      <point x="582" y="39" type="curve" smooth="yes"/>
      <point x="606" y="39"/>
      <point x="617" y="25"/>
      <point x="622" y="-14" type="curve"/>
      <point x="623" y="-14" type="line"/>
      <point x="620" y="34"/>
      <point x="619" y="100"/>
      <point x="619" y="240" type="curve"/>
      <point x="618" y="240" type="line"/>
      <point x="604" y="92"/>
      <point x="507" y="-11"/>
      <point x="383" y="-11" type="curve" smooth="yes"/>
      <point x="237" y="-11"/>
      <point x="153" y="124"/>
      <point x="153" y="356" type="curve" smooth="yes"/>
      <point x="153" y="586"/>
      <point x="236" y="719"/>
      <point x="381" y="719" type="curve" smooth="yes"/>
      <point x="500" y="719"/>
      <point x="597" y="620"/>
      <point x="618" y="468" type="curve"/>
      <point x="619" y="468" type="line"/>
      <point x="619" y="612"/>
      <point x="620" y="673"/>
      <point x="623" y="722" type="curve"/>
      <point x="622" y="722" type="line"/>
      <point x="617" y="683"/>
      <point x="605" y="668"/>
      <point x="580" y="668" type="curve" smooth="yes"/>
      <point x="521" y="668"/>
      <point x="476" y="722"/>
      <point x="366" y="722" type="curve" smooth="yes"/>
      <point x="182" y="722"/>
      <point x="53" y="567"/>
      <point x="53" y="345" type="curve" smooth="yes"/>
      <point x="53" y="128"/>
      <point x="176" y="-14"/>
    </contour>
  </outline>
</glyph>
<glyph name="D" format="2">
  <advance width="719"/>
  <unicode hex="0044"/>
  <anchor x="340" y="0" name="bottom"/>
  <anchor x="187" y="356" name="center"/>
  <anchor x="356" y="708" name="top"/>
  <anchor x="356" y="688" name="top_low_1"/>
  <anchor x="356" y="668" name="top_low_2"/>
  <anchor x="356" y="648" name="top_low_3"/>
  <outline>
    <contour>
      <point x="276" y="0" type="curve"/>
      <point x="304" y="0" type="line" smooth="yes"/>
      <point x="531" y="0"/>
      <point x="666" y="137"/>
      <point x="666" y="369" type="curve" smooth="yes"/>
      <point x="666" y="591"/>
      <point x="543" y="708"/>
      <point x="308" y="708" type="curve" smooth="yes"/>
      <point x="276" y="708" type="line"/>
      <point x="254" y="708"/>
      <point x="216" y="705"/>
      <point x="168" y="705" type="curve"/>
      <point x="111" y="705"/>
      <point x="66" y="707"/>
      <point x="40" y="708" type="curve"/>
      <point x="40" y="707" type="line"/>
      <point x="56" y="705" type="line"/>
      <point x="112" y="698"/>
      <point x="121" y="686"/>
      <point x="121" y="621" type="curve"/>
      <point x="121" y="87" type="line"/>
      <point x="121" y="22"/>
      <point x="112" y="10"/>
      <point x="56" y="3" type="curve"/>
      <point x="40" y="1" type="line"/>
      <point x="40" y="0" type="line"/>
      <point x="66" y="1"/>
      <point x="111" y="3"/>
      <point x="168" y="3" type="curve"/>
      <point x="216" y="3"/>
      <point x="254" y="0"/>
    </contour>
    <contour>
      <point x="295" y="2" type="curve" smooth="yes"/>
      <point x="227" y="2"/>
      <point x="214" y="16"/>
      <point x="214" y="86" type="curve" smooth="yes"/>
      <point x="214" y="704" type="line"/>
      <point x="295" y="704" type="line" smooth="yes"/>
      <point x="486" y="704"/>
      <point x="566" y="603"/>
      <point x="566" y="354" type="curve" smooth="yes"/>
      <point x="566" y="107"/>
      <point x="485" y="2"/>
    </contour>
  </outline>
</glyph>
<glyph name="E" format="2">
  <advance width="637"/>
  <unicode hex="0045"/>
  <anchor x="323" y="0" name="bottom"/>
  <anchor x="299" y="354" name="center"/>
  <anchor x="519" y="0" name="ogonek"/>
  <anchor x="295" y="708" name="top"/>
  <anchor x="295" y="688" name="top_low_1"/>
  <anchor x="295" y="668" name="top_low_2"/>
  <anchor x="295" y="648" name="top_low_3"/>
  <outline>
    <contour>
      <point x="157" y="3" type="curve"/>
      <point x="169" y="3" type="line"/>
      <point x="330" y="3" type="line"/>
      <point x="439" y="3"/>
      <point x="509" y="2"/>
      <point x="559" y="0" type="curve"/>
      <point x="560" y="72"/>
      <point x="565" y="147"/>
      <point x="575" y="230" type="curve"/>
      <point x="574" y="230" type="line"/>
      <point x="528" y="48"/>
      <point x="488" y="4"/>
      <point x="368" y="4" type="curve"/>
      <point x="290" y="4" type="line"/>
      <point x="225" y="4"/>
      <point x="214" y="15"/>
      <point x="214" y="75" type="curve"/>
      <point x="214" y="704" type="line"/>
      <point x="328" y="704" type="line"/>
      <point x="446" y="704"/>
      <point x="486" y="666"/>
      <point x="531" y="508" type="curve"/>
      <point x="532" y="508" type="line"/>
      <point x="523" y="580"/>
      <point x="519" y="645"/>
      <point x="519" y="708" type="curve"/>
      <point x="480" y="706"/>
      <point x="425" y="705"/>
      <point x="340" y="705" type="curve"/>
      <point x="169" y="705" type="line"/>
      <point x="157" y="705" type="line"/>
      <point x="104" y="705"/>
      <point x="64" y="707"/>
      <point x="40" y="708" type="curve"/>
      <point x="40" y="707" type="line"/>
      <point x="56" y="705" type="line"/>
      <point x="112" y="698"/>
      <point x="121" y="686"/>
      <point x="121" y="621" type="curve"/>
      <point x="121" y="87" type="line"/>
      <point x="121" y="22"/>
      <point x="112" y="10"/>
      <point x="56" y="3" type="curve"/>
      <point x="40" y="1" type="line"/>
      <point x="40" y="0" type="line"/>
      <point x="64" y="1"/>
      <point x="104" y="3"/>
    </contour>
    <contour>
      <point x="184" y="356" type="line"/>
      <point x="397" y="356" type="line"/>
      <point x="397" y="357" type="line"/>
      <point x="184" y="357" type="line"/>
    </contour>
    <contour>
      <point x="458" y="204" type="curve"/>
      <point x="459" y="204" type="line"/>
      <point x="454" y="270"/>
      <point x="453" y="308"/>
      <point x="453" y="356" type="curve" smooth="yes"/>
      <point x="453" y="391"/>
      <point x="451" y="427"/>
      <point x="456" y="508" type="curve"/>
      <point x="455" y="508" type="line"/>
      <point x="441" y="395"/>
      <point x="409" y="357"/>
      <point x="330" y="357" type="curve"/>
      <point x="330" y="356" type="line"/>
      <point x="416" y="356"/>
      <point x="446" y="321"/>
    </contour>
  </outline>
</glyph>
<glyph name="F" format="2">
  <advance width="567"/>
  <unicode hex="0046"/>
  <anchor x="288" y="0" name="bottom"/>
  <anchor x="208" y="140" name="center"/>
  <anchor x="121" y="250" name="stem"/>
  <anchor x="293" y="708" name="top"/>
  <anchor x="293" y="688" name="top_low_1"/>
  <anchor x="293" y="668" name="top_low_2"/>
  <anchor x="293" y="648" name="top_low_3"/>
  <outline>
    <contour>
      <point x="121" y="250" type="line"/>
      <point x="214" y="250" type="line"/>
      <point x="214" y="704" type="line"/>
      <point x="328" y="704" type="line"/>
      <point x="446" y="704"/>
      <point x="486" y="666"/>
      <point x="531" y="508" type="curve"/>
      <point x="532" y="508" type="line"/>
      <point x="523" y="580"/>
      <point x="519" y="645"/>
      <point x="519" y="708" type="curve"/>
      <point x="480" y="706"/>
      <point x="425" y="705"/>
      <point x="340" y="705" type="curve"/>
      <point x="168" y="705" type="line"/>
      <point x="157" y="705" type="line"/>
      <point x="104" y="705"/>
      <point x="64" y="707"/>
      <point x="40" y="708" type="curve"/>
      <point x="40" y="707" type="line"/>
      <point x="56" y="705" type="line"/>
      <point x="112" y="698"/>
      <point x="121" y="686"/>
      <point x="121" y="621" type="curve"/>
    </contour>
    <contour>
      <point x="184" y="346" type="line"/>
      <point x="397" y="346" type="line"/>
      <point x="397" y="347" type="line"/>
      <point x="184" y="347" type="line"/>
    </contour>
    <contour>
      <point x="458" y="174" type="curve"/>
      <point x="459" y="174" type="line"/>
      <point x="454" y="265"/>
      <point x="453" y="302"/>
      <point x="453" y="346" type="curve" smooth="yes"/>
      <point x="453" y="381"/>
      <point x="451" y="417"/>
      <point x="456" y="498" type="curve"/>
      <point x="455" y="498" type="line"/>
      <point x="441" y="385"/>
      <point x="409" y="347"/>
      <point x="330" y="347" type="curve"/>
      <point x="330" y="346" type="line"/>
      <point x="416" y="346"/>
      <point x="446" y="306"/>
    </contour>
    <component base="_UC-bottom-stem-normal-wide"/>
  </outline>
</glyph>
<glyph name="G" format="2">
  <advance width="702"/>
  <unicode hex="0047"/>
  <anchor x="376" y="0" name="bottom"/>
  <anchor x="360" y="708" name="top"/>
  <anchor x="360" y="688" name="top_low_1"/>
  <anchor x="360" y="668" name="top_low_2"/>
  <anchor x="360" y="648" name="top_low_3"/>
  <outline>
    <contour>
      <point x="361" y="-14" type="curve" smooth="yes"/>
      <point x="471" y="-14"/>
      <point x="507" y="37"/>
      <point x="570" y="37" type="curve" smooth="yes"/>
      <point x="593" y="37"/>
      <point x="608" y="21"/>
      <point x="616" y="-14" type="curve"/>
      <point x="617" y="-14" type="line"/>
      <point x="617" y="217" type="line" smooth="yes"/>
      <point x="617" y="289"/>
      <point x="622" y="298"/>
      <point x="668" y="303" type="curve"/>
      <point x="668" y="304" type="line"/>
      <point x="644" y="302"/>
      <point x="609" y="301"/>
      <point x="564" y="301" type="curve" smooth="yes"/>
      <point x="511" y="301"/>
      <point x="459" y="302"/>
      <point x="433" y="304" type="curve"/>
      <point x="433" y="303" type="line"/>
      <point x="511" y="298"/>
      <point x="524" y="285"/>
      <point x="524" y="217" type="curve" smooth="yes"/>
      <point x="524" y="123" type="line" smooth="yes"/>
      <point x="524" y="25"/>
      <point x="468" y="-12"/>
      <point x="361" y="-12" type="curve" smooth="yes"/>
      <point x="219" y="-12"/>
      <point x="153" y="104"/>
      <point x="153" y="353" type="curve" smooth="yes"/>
      <point x="153" y="575"/>
      <point x="239" y="721"/>
      <point x="369" y="721" type="curve" smooth="yes"/>
      <point x="499" y="721"/>
      <point x="594" y="628"/>
      <point x="617" y="478" type="curve"/>
      <point x="618" y="478" type="line"/>
      <point x="618" y="611"/>
      <point x="619" y="673"/>
      <point x="622" y="722" type="curve"/>
      <point x="621" y="722" type="line"/>
      <point x="616" y="683"/>
      <point x="604" y="668"/>
      <point x="579" y="668" type="curve" smooth="yes"/>
      <point x="532" y="668"/>
      <point x="472" y="722"/>
      <point x="369" y="722" type="curve" smooth="yes"/>
      <point x="182" y="722"/>
      <point x="53" y="567"/>
      <point x="53" y="342" type="curve" smooth="yes"/>
      <point x="53" y="118"/>
      <point x="168" y="-14"/>
    </contour>
  </outline>
</glyph>
<glyph name="I" format="2">
  <advance width="335"/>
  <unicode hex="0049"/>
  <anchor x="40" y="0" name="#entry"/>
  <anchor x="295" y="0" name="^exit"/>
  <anchor x="168" y="0" name="bottom"/>
  <anchor x="168" y="354" name="center"/>
  <anchor x="255" y="0" name="ogonek"/>
  <anchor x="167" y="708" name="top"/>
  <anchor x="167" y="688" name="top_low_1"/>
  <anchor x="167" y="668" name="top_low_2"/>
  <anchor x="167" y="648" name="top_low_3"/>
  <outline>
    <contour>
      <point x="157" y="3" type="curve"/>
      <point x="168" y="3" type="line"/>
      <point x="178" y="3" type="line"/>
      <point x="231" y="3"/>
      <point x="271" y="1"/>
      <point x="295" y="0" type="curve"/>
      <point x="295" y="1" type="line"/>
      <point x="279" y="3" type="line"/>
      <point x="223" y="10"/>
      <point x="214" y="22"/>
      <point x="214" y="87" type="curve"/>
      <point x="214" y="621" type="line"/>
      <point x="214" y="686"/>
      <point x="223" y="698"/>
      <point x="279" y="705" type="curve"/>
      <point x="295" y="707" type="line"/>
      <point x="295" y="708" type="line"/>
      <point x="271" y="707"/>
      <point x="231" y="705"/>
      <point x="178" y="705" type="curve"/>
      <point x="168" y="705" type="line"/>
      <point x="157" y="705" type="line"/>
      <point x="104" y="705"/>
      <point x="64" y="707"/>
      <point x="40" y="708" type="curve"/>
      <point x="40" y="707" type="line"/>
      <point x="56" y="705" type="line"/>
      <point x="112" y="698"/>
      <point x="121" y="686"/>
      <point x="121" y="621" type="curve"/>
      <point x="121" y="87" type="line"/>
      <point x="121" y="22"/>
      <point x="112" y="10"/>
      <point x="56" y="3" type="curve"/>
      <point x="40" y="1" type="line"/>
      <point x="40" y="0" type="line"/>
      <point x="64" y="1"/>
      <point x="104" y="3"/>
    </contour>
  </outline>
</glyph>
<glyph name="K" format="2">
  <advance width="703"/>
  <unicode hex="004B"/>
  <anchor x="344" y="0" name="bottom"/>
  <anchor x="385" y="361" name="center"/>
  <anchor x="167" y="520" name="stroke"/>
  <anchor x="333" y="708" name="top"/>
  <anchor x="333" y="688" name="top_low_1"/>
  <anchor x="333" y="668" name="top_low_2"/>
  <anchor x="333" y="648" name="top_low_3"/>
  <outline>
    <contour>
      <point x="494" y="0" type="curve"/>
      <point x="515" y="1"/>
      <point x="537" y="2"/>
      <point x="558" y="2" type="curve" smooth="yes"/>
      <point x="575" y="2"/>
      <point x="592" y="1"/>
      <point x="664" y="0" type="curve"/>
      <point x="664" y="1" type="line"/>
      <point x="617" y="6"/>
      <point x="606" y="17"/>
      <point x="565" y="97" type="curve" smooth="yes"/>
      <point x="492" y="239" type="line" smooth="yes"/>
      <point x="444" y="332"/>
      <point x="396" y="377"/>
      <point x="328" y="392" type="curve"/>
      <point x="330" y="386" type="line"/>
      <point x="506" y="606" type="line" smooth="yes"/>
      <point x="556" y="669"/>
      <point x="580" y="689"/>
      <point x="643" y="707" type="curve"/>
      <point x="643" y="708" type="line"/>
      <point x="624" y="706"/>
      <point x="594" y="705"/>
      <point x="556" y="705" type="curve" smooth="yes"/>
      <point x="506" y="705"/>
      <point x="453" y="706"/>
      <point x="403" y="708" type="curve"/>
      <point x="403" y="707" type="line"/>
      <point x="502" y="701"/>
      <point x="517" y="621"/>
      <point x="451" y="539" type="curve" smooth="yes"/>
      <point x="368" y="436" type="line" smooth="yes"/>
      <point x="326" y="384"/>
      <point x="285" y="362"/>
      <point x="217" y="362" type="curve" smooth="yes"/>
      <point x="190" y="362" type="line"/>
      <point x="190" y="361" type="line"/>
      <point x="217" y="361" type="line" smooth="yes"/>
      <point x="300" y="361"/>
      <point x="345" y="328"/>
      <point x="400" y="221" type="curve" smooth="yes"/>
      <point x="475" y="74" type="line" smooth="yes"/>
      <point x="487" y="51"/>
      <point x="493" y="26"/>
    </contour>
    <contour>
      <point x="157" y="3" type="curve"/>
      <point x="167" y="3" type="line"/>
      <point x="178" y="3" type="line"/>
      <point x="231" y="3"/>
      <point x="271" y="1"/>
      <point x="295" y="0" type="curve"/>
      <point x="295" y="1" type="line"/>
      <point x="279" y="3" type="line"/>
      <point x="223" y="10"/>
      <point x="214" y="22"/>
      <point x="214" y="87" type="curve"/>
      <point x="214" y="708" type="line"/>
      <point x="200" y="706"/>
      <point x="185" y="705"/>
      <point x="167" y="705" type="curve"/>
      <point x="157" y="705" type="line"/>
      <point x="104" y="705"/>
      <point x="64" y="707"/>
      <point x="40" y="708" type="curve"/>
      <point x="40" y="707" type="line"/>
      <point x="56" y="705" type="line"/>
      <point x="112" y="698"/>
      <point x="121" y="686"/>
      <point x="121" y="621" type="curve"/>
      <point x="121" y="87" type="line"/>
      <point x="121" y="22"/>
      <point x="112" y="10"/>
      <point x="56" y="3" type="curve"/>
      <point x="40" y="1" type="line"/>
      <point x="40" y="0" type="line"/>
      <point x="64" y="1"/>
      <point x="104" y="3"/>
    </contour>
  </outline>
</glyph>
<glyph name="M" format="2">
  <advance width="867"/>
  <unicode hex="004D"/>
  <anchor x="428" y="0" name="bottom"/>
  <anchor x="434" y="708" name="top"/>
  <anchor x="434" y="688" name="top_low_1"/>
  <anchor x="434" y="668" name="top_low_2"/>
  <anchor x="434" y="648" name="top_low_3"/>
  <outline>
    <contour>
      <point x="404" y="-15" type="line"/>
      <point x="405" y="-15" type="line"/>
      <point x="653" y="703" type="line"/>
      <point x="654" y="703" type="line"/>
      <point x="653" y="87" type="line"/>
      <point x="653" y="22"/>
      <point x="644" y="10"/>
      <point x="588" y="3" type="curve"/>
      <point x="572" y="1" type="line"/>
      <point x="572" y="0" type="line"/>
      <point x="596" y="1"/>
      <point x="636" y="3"/>
      <point x="689" y="3" type="curve"/>
      <point x="700" y="3" type="line"/>
      <point x="710" y="3" type="line"/>
      <point x="763" y="3"/>
      <point x="803" y="1"/>
      <point x="827" y="0" type="curve"/>
      <point x="827" y="1" type="line"/>
      <point x="811" y="3" type="line"/>
      <point x="755" y="10"/>
      <point x="746" y="22"/>
      <point x="746" y="87" type="curve"/>
      <point x="746" y="621" type="line"/>
      <point x="746" y="686"/>
      <point x="755" y="698"/>
      <point x="811" y="705" type="curve"/>
      <point x="827" y="707" type="line"/>
      <point x="827" y="708" type="line"/>
      <point x="803" y="707"/>
      <point x="763" y="705"/>
      <point x="710" y="705" type="curve"/>
      <point x="700" y="705" type="line"/>
      <point x="689" y="705"/>
      <point x="678" y="705"/>
      <point x="653" y="708" type="curve"/>
      <point x="445" y="106" type="line"/>
      <point x="448" y="109" type="line"/>
      <point x="201" y="708" type="line"/>
      <point x="193" y="706"/>
      <point x="180" y="705"/>
      <point x="169" y="705" type="curve"/>
      <point x="157" y="705" type="line"/>
      <point x="104" y="705"/>
      <point x="64" y="707"/>
      <point x="40" y="708" type="curve"/>
      <point x="40" y="707" type="line"/>
      <point x="56" y="705" type="line"/>
      <point x="112" y="698"/>
      <point x="121" y="686"/>
      <point x="121" y="621" type="curve"/>
      <point x="121" y="87" type="line"/>
      <point x="121" y="22"/>
      <point x="112" y="10"/>
      <point x="56" y="3" type="curve"/>
      <point x="40" y="1" type="line"/>
      <point x="40" y="0" type="line"/>
      <point x="57" y="1"/>
      <point x="85" y="3"/>
      <point x="122" y="3" type="curve"/>
      <point x="164" y="3"/>
      <point x="196" y="1"/>
      <point x="215" y="0" type="curve"/>
      <point x="215" y="1" type="line"/>
      <point x="193" y="4" type="line"/>
      <point x="132" y="11"/>
      <point x="122" y="23"/>
      <point x="122" y="87" type="curve"/>
      <point x="122" y="669" type="line"/>
      <point x="123" y="669" type="line"/>
    </contour>
  </outline>
</glyph>
<glyph name="O" format="2">
  <advance width="741"/>
  <unicode hex="004F"/>
  <anchor x="372" y="0" name="bottom"/>
  <anchor x="371" y="354" name="center"/>
  <anchor x="463" y="0" name="ogonek"/>
  <anchor x="370" y="708" name="top"/>
  <anchor x="370" y="688" name="top_low_1"/>
  <anchor x="370" y="668" name="top_low_2"/>
  <anchor x="370" y="648" name="top_low_3"/>
  <anchor x="20" y="708" name="topleft"/>
  <anchor x="721" y="708" name="topright"/>
  <outline>
    <contour>
      <point x="370" y="-14" type="curve" smooth="yes"/>
      <point x="556" y="-14"/>
      <point x="688" y="136"/>
      <point x="688" y="360" type="curve" smooth="yes"/>
      <point x="688" y="589"/>
      <point x="561" y="722"/>
      <point x="371" y="722" type="curve" smooth="yes"/>
      <point x="185" y="722"/>
      <point x="53" y="572"/>
      <point x="53" y="348" type="curve" smooth="yes"/>
      <point x="53" y="119"/>
      <point x="180" y="-14"/>
    </contour>
    <contour>
      <point x="374" y="-13" type="curve" smooth="yes"/>
      <point x="251" y="-13"/>
      <point x="153" y="129"/>
      <point x="153" y="352" type="curve" smooth="yes"/>
      <point x="153" y="569"/>
      <point x="237" y="721"/>
      <point x="367" y="721" type="curve" smooth="yes"/>
      <point x="490" y="721"/>
      <point x="588" y="579"/>
      <point x="588" y="356" type="curve" smooth="yes"/>
      <point x="588" y="139"/>
      <point x="504" y="-13"/>
    </contour>
  </outline>
</glyph>
<glyph name="R" format="2">
  <advance width="656"/>
  <unicode hex="0052"/>
  <anchor x="121" y="0" name="baseline_left"/>
  <anchor x="335" y="0" name="bottom"/>
  <anchor x="168" y="346" name="center"/>
  <anchor x="121" y="180" name="stem"/>
  <anchor x="294" y="708" name="top"/>
  <outline>
    <contour>
      <point x="121" y="180" type="line"/>
      <point x="214" y="180" type="line"/>
      <point x="214" y="704" type="line"/>
      <point x="286" y="704" type="line" smooth="yes"/>
      <point x="397" y="704"/>
      <point x="454" y="642"/>
      <point x="454" y="520" type="curve" smooth="yes"/>
      <point x="454" y="401"/>
      <point x="399" y="346"/>
      <point x="281" y="346" type="curve" smooth="yes"/>
      <point x="165" y="346" type="line"/>
      <point x="165" y="345" type="line"/>
      <point x="291" y="345" type="line" smooth="yes"/>
      <point x="447" y="345"/>
      <point x="554" y="422"/>
      <point x="554" y="534" type="curve" smooth="yes"/>
      <point x="554" y="640"/>
      <point x="460" y="708"/>
      <point x="313" y="708" type="curve" smooth="yes"/>
      <point x="289" y="708"/>
      <point x="232" y="705"/>
      <point x="167" y="705" type="curve"/>
      <point x="157" y="705" type="line"/>
      <point x="104" y="705"/>
      <point x="64" y="707"/>
      <point x="40" y="708" type="curve"/>
      <point x="40" y="707" type="line"/>
      <point x="56" y="705" type="line"/>
      <point x="112" y="698"/>
      <point x="121" y="686"/>
      <point x="121" y="621" type="curve"/>
    </contour>
    <contour>
      <point x="565" y="-14" type="curve" smooth="yes"/>
      <point x="610" y="-14"/>
      <point x="638" y="3"/>
      <point x="671" y="50" type="curve"/>
      <point x="670" y="51" type="line"/>
      <point x="647" y="21"/>
      <point x="636" y="13"/>
      <point x="617" y="12" type="curve" smooth="yes"/>
      <point x="581" y="10"/>
      <point x="565" y="32"/>
      <point x="549" y="105" type="curve" smooth="yes"/>
      <point x="526" y="208" type="line" smooth="yes"/>
      <point x="501" y="321"/>
      <point x="457" y="346"/>
      <point x="284" y="346" type="curve" smooth="yes"/>
      <point x="181" y="346" type="line"/>
      <point x="181" y="345" type="line"/>
      <point x="286" y="345" type="line" smooth="yes"/>
      <point x="383" y="345"/>
      <point x="403" y="328"/>
      <point x="424" y="232" type="curve" smooth="yes"/>
      <point x="454" y="94" type="line" smooth="yes"/>
      <point x="470" y="19"/>
      <point x="504" y="-14"/>
    </contour>
    <contour>
      <point x="157" y="3" type="curve"/>
      <point x="168" y="3" type="line"/>
      <point x="178" y="3" type="line"/>
      <point x="231" y="3"/>
      <point x="271" y="1"/>
      <point x="295" y="0" type="curve"/>
      <point x="295" y="1" type="line"/>
      <point x="279" y="3" type="line"/>
      <point x="223" y="10"/>
      <point x="214" y="22"/>
      <point x="214" y="87" type="curve"/>
      <point x="214" y="180" type="line"/>
      <point x="121" y="180" type="line"/>
      <point x="121" y="87" type="line"/>
      <point x="121" y="22"/>
      <point x="112" y="10"/>
      <point x="56" y="3" type="curve"/>
      <point x="40" y="1" type="line"/>
      <point x="40" y="0" type="line"/>
      <point x="64" y="1"/>
      <point x="104" y="3"/>
    </contour>
  </outline>
</glyph>
<glyph name="S" format="2">
  <advance width="540"/>
  <unicode hex="0053"/>
  <anchor x="286" y="0" name="bottom"/>
  <anchor x="267" y="354" name="center"/>
  <anchor x="272" y="0" name="currency"/>
  <anchor x="275" y="708" name="top"/>
  <anchor x="275" y="688" name="top_low_1"/>
  <anchor x="275" y="668" name="top_low_2"/>
  <anchor x="275" y="648" name="top_low_3"/>
  <outline>
    <contour>
      <point x="274" y="-14" type="curve" smooth="yes"/>
      <point x="406" y="-14"/>
      <point x="488" y="60"/>
      <point x="488" y="180" type="curve" smooth="yes"/>
      <point x="488" y="274"/>
      <point x="443" y="332"/>
      <point x="310" y="399" type="curve" smooth="yes"/>
      <point x="185" y="462"/>
      <point x="138" y="515"/>
      <point x="138" y="586" type="curve" smooth="yes"/>
      <point x="138" y="663"/>
      <point x="187" y="719"/>
      <point x="273" y="719" type="curve" smooth="yes"/>
      <point x="373" y="719"/>
      <point x="443" y="635"/>
      <point x="451" y="511" type="curve"/>
      <point x="452" y="511" type="line"/>
      <point x="452" y="629"/>
      <point x="453" y="680"/>
      <point x="457" y="722" type="curve"/>
      <point x="456" y="722" type="line"/>
      <point x="452" y="698"/>
      <point x="441" y="683"/>
      <point x="422" y="683" type="curve" smooth="yes"/>
      <point x="390" y="683"/>
      <point x="352" y="722"/>
      <point x="259" y="722" type="curve" smooth="yes"/>
      <point x="143" y="722"/>
      <point x="70" y="655"/>
      <point x="70" y="547" type="curve" smooth="yes"/>
      <point x="70" y="453"/>
      <point x="128" y="381"/>
      <point x="250" y="325" type="curve" smooth="yes"/>
      <point x="358" y="275"/>
      <point x="406" y="219"/>
      <point x="406" y="142" type="curve" smooth="yes"/>
      <point x="406" y="50"/>
      <point x="342" y="-11"/>
      <point x="257" y="-11" type="curve" smooth="yes"/>
      <point x="144" y="-11"/>
      <point x="69" y="85"/>
      <point x="62" y="237" type="curve"/>
      <point x="61" y="237" type="line"/>
      <point x="61" y="88"/>
      <point x="60" y="29"/>
      <point x="56" y="-14" type="curve"/>
      <point x="57" y="-14" type="line"/>
      <point x="61" y="10"/>
      <point x="72" y="25"/>
      <point x="91" y="25" type="curve" smooth="yes"/>
      <point x="126" y="25"/>
      <point x="171" y="-14"/>
    </contour>
  </outline>
</glyph>
<glyph name="T" format="2">
  <advance width="621"/>
  <unicode hex="0054"/>
  <anchor x="357" y="0" name="#exit"/>
  <anchor x="357" y="0" name="%exit"/>
  <anchor x="310" y="0" name="bottom"/>
  <anchor x="311" y="354" name="center"/>
  <anchor x="311" y="285" name="center_lowered"/>
  <outline>
    <contour>
      <point x="304" y="3" type="curve"/>
      <point x="311" y="3" type="line"/>
      <point x="317" y="3" type="line"/>
      <point x="375" y="3"/>
      <point x="426" y="1"/>
      <point x="454" y="0" type="curve"/>
      <point x="454" y="1" type="line"/>
      <point x="430" y="3" type="line"/>
      <point x="367" y="10"/>
      <point x="357" y="23"/>
      <point x="357" y="87" type="curve"/>
      <point x="357" y="250" type="line"/>
      <point x="264" y="250" type="line"/>
      <point x="264" y="87" type="line"/>
      <point x="264" y="23"/>
      <point x="254" y="10"/>
      <point x="191" y="3" type="curve"/>
      <point x="167" y="1" type="line"/>
      <point x="167" y="0" type="line"/>
      <point x="195" y="1"/>
      <point x="246" y="3"/>
    </contour>
    <component base="_UC-T-upper"/>
  </outline>
</glyph>
<glyph name="V" format="2">
  <advance width="677"/>
  <unicode hex="0056"/>
  <anchor x="342" y="0" name="bottom"/>
  <anchor x="342" y="708" name="top"/>
  <anchor x="342" y="688" name="top_low_1"/>
  <anchor x="342" y="668" name="top_low_2"/>
  <anchor x="342" y="648" name="top_low_3"/>
  <outline>
    <contour>
      <point x="342" y="-15" type="line"/>
      <point x="343" y="-15" type="line"/>
      <point x="567" y="573" type="line"/>
      <point x="600" y="663"/>
      <point x="631" y="695"/>
      <point x="681" y="705" type="curve"/>
      <point x="691" y="707" type="line"/>
      <point x="691" y="708" type="line"/>
      <point x="674" y="707"/>
      <point x="647" y="705"/>
      <point x="606" y="705" type="curve"/>
      <point x="569" y="705"/>
      <point x="508" y="706"/>
      <point x="466" y="708" type="curve"/>
      <point x="466" y="707" type="line"/>
      <point x="476" y="706" type="line"/>
      <point x="564" y="697"/>
      <point x="592" y="648"/>
      <point x="560" y="562" type="curve"/>
      <point x="379" y="84" type="line"/>
      <point x="390" y="111" type="line"/>
      <point x="195" y="619" type="line"/>
      <point x="174" y="685"/>
      <point x="184" y="698"/>
      <point x="240" y="705" type="curve"/>
      <point x="256" y="707" type="line"/>
      <point x="256" y="708" type="line"/>
      <point x="227" y="707"/>
      <point x="180" y="705"/>
      <point x="116" y="705" type="curve"/>
      <point x="119" y="705" type="line"/>
      <point x="110" y="705" type="line"/>
      <point x="65" y="705"/>
      <point x="31" y="707"/>
      <point x="9" y="708" type="curve"/>
      <point x="9" y="707" type="line"/>
      <point x="20" y="706" type="line"/>
      <point x="59" y="702"/>
      <point x="74" y="685"/>
      <point x="95" y="629" type="curve"/>
    </contour>
  </outline>
</glyph>
<glyph name="W" format="2">
  <advance width="951"/>
  <unicode hex="0057"/>
  <anchor x="488" y="0" name="bottom"/>
  <anchor x="489" y="357" name="currency"/>
  <anchor x="492" y="708" name="top"/>
  <anchor x="492" y="688" name="top_low_1"/>
  <anchor x="492" y="668" name="top_low_2"/>
  <anchor x="492" y="648" name="top_low_3"/>
  <outline>
    <contour>
      <point x="659" y="-15" type="line"/>
      <point x="660" y="-15" type="line"/>
      <point x="841" y="570" type="line"/>
      <point x="869" y="662"/>
      <point x="897" y="695"/>
      <point x="947" y="705" type="curve"/>
      <point x="957" y="707" type="line"/>
      <point x="957" y="708" type="line"/>
      <point x="940" y="707"/>
      <point x="913" y="705"/>
      <point x="872" y="705" type="curve"/>
      <point x="835" y="705"/>
      <point x="774" y="706"/>
      <point x="732" y="708" type="curve"/>
      <point x="732" y="707" type="line"/>
      <point x="742" y="706" type="line"/>
      <point x="830" y="697"/>
      <point x="862" y="647"/>
      <point x="836" y="559" type="curve"/>
      <point x="694" y="100" type="line"/>
      <point x="705" y="132" type="line"/>
      <point x="543" y="618" type="line"/>
      <point x="525" y="685"/>
      <point x="536" y="698"/>
      <point x="592" y="705" type="curve"/>
      <point x="608" y="707" type="line"/>
      <point x="608" y="708" type="line"/>
      <point x="579" y="707"/>
      <point x="532" y="705"/>
      <point x="468" y="705" type="curve"/>
      <point x="466" y="705" type="line"/>
      <point x="463" y="705" type="line"/>
      <point x="418" y="705"/>
      <point x="384" y="707"/>
      <point x="362" y="708" type="curve"/>
      <point x="362" y="707" type="line"/>
      <point x="373" y="706" type="line"/>
      <point x="412" y="702"/>
      <point x="426" y="685"/>
      <point x="445" y="628" type="curve"/>
    </contour>
    <contour>
      <point x="310" y="-15" type="line"/>
      <point x="311" y="-15" type="line"/>
      <point x="489" y="546" type="line"/>
      <point x="488" y="549" type="line"/>
      <point x="345" y="97" type="line"/>
      <point x="356" y="131" type="line"/>
      <point x="194" y="618" type="line"/>
      <point x="176" y="685"/>
      <point x="187" y="698"/>
      <point x="243" y="705" type="curve"/>
      <point x="259" y="707" type="line"/>
      <point x="259" y="708" type="line"/>
      <point x="230" y="707"/>
      <point x="183" y="705"/>
      <point x="119" y="705" type="curve"/>
      <point x="117" y="705" type="line"/>
      <point x="114" y="705" type="line"/>
      <point x="69" y="705"/>
      <point x="35" y="707"/>
      <point x="13" y="708" type="curve"/>
      <point x="13" y="707" type="line"/>
      <point x="24" y="706" type="line"/>
      <point x="63" y="702"/>
      <point x="77" y="685"/>
      <point x="96" y="628" type="curve"/>
    </contour>
  </outline>
</glyph>
<glyph name="X" format="2">
  <advance width="634"/>
  <unicode hex="0058"/>
  <anchor x="317" y="0" name="bottom"/>
  <anchor x="641" y="0" name="bottomright"/>
  <anchor x="317" y="708" name="top"/>
  <anchor x="317" y="688" name="top_low_1"/>
  <anchor x="317" y="668" name="top_low_2"/>
  <anchor x="317" y="648" name="top_low_3"/>
  <outline>
    <contour>
      <point x="531" y="3" type="curve"/>
      <point x="537" y="3" type="line"/>
      <point x="543" y="3" type="line"/>
      <point x="588" y="3"/>
      <point x="622" y="1"/>
      <point x="644" y="0" type="curve"/>
      <point x="644" y="1" type="line"/>
      <point x="633" y="2" type="line"/>
      <point x="594" y="6"/>
      <point x="576" y="21"/>
      <point x="544" y="72" type="curve"/>
      <point x="211" y="626" type="line"/>
      <point x="179" y="688"/>
      <point x="185" y="698"/>
      <point x="241" y="704" type="curve"/>
      <point x="257" y="706" type="line"/>
      <point x="257" y="707" type="line"/>
      <point x="228" y="706"/>
      <point x="181" y="705"/>
      <point x="117" y="705" type="curve"/>
      <point x="111" y="705" type="line"/>
      <point x="105" y="705" type="line"/>
      <point x="60" y="705"/>
      <point x="26" y="707"/>
      <point x="4" y="708" type="curve"/>
      <point x="4" y="707" type="line"/>
      <point x="15" y="706" type="line"/>
      <point x="54" y="702"/>
      <point x="72" y="687"/>
      <point x="104" y="636" type="curve"/>
      <point x="437" y="82" type="line"/>
      <point x="469" y="20"/>
      <point x="463" y="10"/>
      <point x="407" y="4" type="curve"/>
      <point x="391" y="2" type="line"/>
      <point x="391" y="1" type="line"/>
      <point x="420" y="2"/>
      <point x="467" y="3"/>
    </contour>
    <contour>
      <point x="156" y="131" type="curve"/>
      <point x="291" y="341" type="line"/>
      <point x="290" y="342" type="line"/>
      <point x="148" y="122" type="line"/>
      <point x="96" y="40"/>
      <point x="56" y="13"/>
      <point x="6" y="3" type="curve"/>
      <point x="-4" y="1" type="line"/>
      <point x="-4" y="0" type="line"/>
      <point x="13" y="1"/>
      <point x="40" y="3"/>
      <point x="81" y="3" type="curve"/>
      <point x="118" y="3"/>
      <point x="179" y="2"/>
      <point x="221" y="0" type="curve"/>
      <point x="221" y="1" type="line"/>
      <point x="211" y="2" type="line"/>
      <point x="123" y="11"/>
      <point x="107" y="54"/>
    </contour>
    <contour>
      <point x="332" y="366" type="line"/>
      <point x="475" y="587" type="line"/>
      <point x="527" y="668"/>
      <point x="567" y="695"/>
      <point x="617" y="705" type="curve"/>
      <point x="627" y="707" type="line"/>
      <point x="627" y="708" type="line"/>
      <point x="610" y="707"/>
      <point x="583" y="705"/>
      <point x="542" y="705" type="curve"/>
      <point x="505" y="705"/>
      <point x="444" y="706"/>
      <point x="402" y="708" type="curve"/>
      <point x="402" y="707" type="line"/>
      <point x="412" y="706" type="line"/>
      <point x="500" y="697"/>
      <point x="516" y="654"/>
      <point x="467" y="577" type="curve"/>
      <point x="331" y="368" type="line"/>
    </contour>
  </outline>
</glyph>
<glyph name="Y" format="2">
  <advance width="675"/>
  <unicode hex="0059"/>
  <anchor x="346" y="0" name="bottom"/>
  <anchor x="346" y="255" name="center"/>
  <anchor x="345" y="708" name="top"/>
  <anchor x="345" y="688" name="top_low_1"/>
  <anchor x="345" y="668" name="top_low_2"/>
  <anchor x="345" y="648" name="top_low_3"/>
  <outline>
    <contour>
      <point x="330" y="199" type="line"/>
      <point x="347" y="199" type="line"/>
      <point x="529" y="578" type="line"/>
      <point x="570" y="665"/>
      <point x="605" y="695"/>
      <point x="655" y="705" type="curve"/>
      <point x="665" y="707" type="line"/>
      <point x="665" y="708" type="line"/>
      <point x="648" y="707"/>
      <point x="621" y="705"/>
      <point x="580" y="705" type="curve"/>
      <point x="543" y="705"/>
      <point x="482" y="706"/>
      <point x="440" y="708" type="curve"/>
      <point x="440" y="707" type="line"/>
      <point x="450" y="706" type="line"/>
      <point x="538" y="697"/>
      <point x="561" y="650"/>
      <point x="522" y="567" type="curve"/>
      <point x="377" y="265" type="line"/>
      <point x="389" y="280" type="line"/>
      <point x="212" y="623" type="line"/>
      <point x="183" y="687"/>
      <point x="191" y="698"/>
      <point x="247" y="704" type="curve"/>
      <point x="263" y="706" type="line"/>
      <point x="263" y="707" type="line"/>
      <point x="234" y="706"/>
      <point x="187" y="705"/>
      <point x="123" y="705" type="curve"/>
      <point x="114" y="705" type="line"/>
      <point x="111" y="705" type="line"/>
      <point x="66" y="705"/>
      <point x="32" y="707"/>
      <point x="10" y="708" type="curve"/>
      <point x="10" y="707" type="line"/>
      <point x="21" y="706" type="line"/>
      <point x="60" y="702"/>
      <point x="77" y="687"/>
      <point x="105" y="633" type="curve"/>
    </contour>
    <contour>
      <point x="339" y="3" type="curve"/>
      <point x="346" y="3" type="line"/>
      <point x="352" y="3" type="line"/>
      <point x="410" y="3"/>
      <point x="461" y="1"/>
      <point x="489" y="0" type="curve"/>
      <point x="489" y="1" type="line"/>
      <point x="465" y="3" type="line"/>
      <point x="402" y="10"/>
      <point x="392" y="23"/>
      <point x="392" y="87" type="curve"/>
      <point x="392" y="294" type="line"/>
      <point x="358" y="229" type="line"/>
      <point x="299" y="311" type="line"/>
      <point x="299" y="87" type="line"/>
      <point x="299" y="23"/>
      <point x="289" y="10"/>
      <point x="226" y="3" type="curve"/>
      <point x="202" y="1" type="line"/>
      <point x="202" y="0" type="line"/>
      <point x="230" y="1"/>
      <point x="281" y="3"/>
    </contour>
  </outline>
</glyph>
<glyph name="Z" format="2">
  <advance width="604"/>
  <unicode hex="005A"/>
  <anchor x="299" y="0" name="bottom"/>
  <anchor x="298" y="354" name="center"/>
  <anchor x="295" y="708" name="top"/>
  <anchor x="295" y="688" name="top_low_1"/>
  <anchor x="295" y="668" name="top_low_2"/>
  <anchor x="295" y="648" name="top_low_3"/>
  <outline>
    <contour>
      <point x="42" y="0" type="line"/>
      <point x="93" y="3"/>
      <point x="156" y="3"/>
      <point x="209" y="3" type="curve" smooth="yes"/>
      <point x="309" y="3" type="line"/>
      <point x="418" y="3"/>
      <point x="488" y="2"/>
      <point x="538" y="0" type="curve"/>
      <point x="539" y="72"/>
      <point x="544" y="147"/>
      <point x="554" y="230" type="curve"/>
      <point x="553" y="230" type="line"/>
      <point x="507" y="48"/>
      <point x="467" y="4"/>
      <point x="347" y="4" type="curve"/>
      <point x="146" y="4" type="line"/>
      <point x="550" y="707" type="line"/>
      <point x="550" y="708" type="line"/>
      <point x="501" y="705"/>
      <point x="438" y="705"/>
      <point x="387" y="705" type="curve" smooth="yes"/>
      <point x="257" y="705" type="line"/>
      <point x="172" y="705"/>
      <point x="117" y="706"/>
      <point x="78" y="708" type="curve"/>
      <point x="78" y="645"/>
      <point x="74" y="580"/>
      <point x="65" y="508" type="curve"/>
      <point x="66" y="508" type="line"/>
      <point x="111" y="666"/>
      <point x="151" y="704"/>
      <point x="269" y="704" type="curve"/>
      <point x="446" y="704" type="line"/>
      <point x="42" y="1" type="line"/>
    </contour>
  </outline>
</glyph>
<glyph name="asciicircum" format="2">
  <advance width="536"/>
  <unicode hex="005E"/>
  <outline>
    <contour>
      <point x="74" y="321" type="line"/>
      <point x="247" y="443" type="line"/>
      <point x="459" y="323" type="line"/>
      <point x="459" y="324" type="line"/>
      <point x="268" y="539" type="line"/>
      <point x="267" y="539" type="line"/>
      <point x="74" y="322" type="line"/>
    </contour>
  </outline>
</glyph>
<glyph name="a" format="2">
  <advance width="529"/>
  <unicode hex="0061"/>
  <anchor x="-137" y="256" name="#entry"/>
  <anchor x="277" y="0" name="bottom"/>
  <anchor x="269" y="257" name="center"/>
  <anchor x="496" y="0" name="ogonek"/>
  <anchor x="270" y="512" name="top"/>
  <anchor x="270" y="492" name="top_low_1"/>
  <anchor x="270" y="472" name="top_low_2"/>
  <anchor x="270" y="452" name="top_low_3"/>
  <outline>
    <contour>
      <point x="438" y="43" type="curve"/>
      <point x="438" y="351" type="line" smooth="yes"/>
      <point x="438" y="476"/>
      <point x="392" y="529"/>
      <point x="279" y="529" type="curve" smooth="yes"/>
      <point x="174" y="529"/>
      <point x="90" y="477"/>
      <point x="90" y="412" type="curve" smooth="yes"/>
      <point x="90" y="380"/>
      <point x="110" y="358"/>
      <point x="140" y="358" type="curve" smooth="yes"/>
      <point x="167" y="358"/>
      <point x="185" y="375"/>
      <point x="185" y="399" type="curve" smooth="yes"/>
      <point x="185" y="431"/>
      <point x="155" y="458"/>
      <point x="155" y="479" type="curve" smooth="yes"/>
      <point x="155" y="504"/>
      <point x="203" y="526"/>
      <point x="257" y="526" type="curve" smooth="yes"/>
      <point x="318" y="526"/>
      <point x="348" y="493"/>
      <point x="348" y="427" type="curve" smooth="yes"/>
      <point x="348" y="75" type="line"/>
      <point x="348" y="15"/>
      <point x="376" y="-14"/>
      <point x="435" y="-14" type="curve"/>
      <point x="477" y="-14"/>
      <point x="497" y="2"/>
      <point x="525" y="23" type="curve"/>
      <point x="524" y="24" type="line"/>
      <point x="510" y="14"/>
      <point x="489" y="-4"/>
      <point x="467" y="-4" type="curve"/>
      <point x="447" y="-4"/>
      <point x="438" y="11"/>
    </contour>
    <contour>
      <point x="198" y="-14" type="curve" smooth="yes"/>
      <point x="263" y="-14"/>
      <point x="312" y="15"/>
      <point x="351" y="80" type="curve"/>
      <point x="351" y="82" type="line"/>
      <point x="325" y="39"/>
      <point x="289" y="16"/>
      <point x="249" y="16" type="curve" smooth="yes"/>
      <point x="197" y="16"/>
      <point x="164" y="55"/>
      <point x="164" y="117" type="curve" smooth="yes"/>
      <point x="164" y="258"/>
      <point x="334" y="262"/>
      <point x="349" y="333" type="curve"/>
      <point x="349" y="345" type="line"/>
      <point x="349" y="240"/>
      <point x="67" y="281"/>
      <point x="67" y="105" type="curve" smooth="yes"/>
      <point x="67" y="32"/>
      <point x="117" y="-14"/>
    </contour>
  </outline>
</glyph>
<glyph name="c" format="2">
  <advance width="507"/>
  <unicode hex="0063"/>
  <anchor x="279" y="0" name="bottom"/>
  <anchor x="289" y="257" name="center"/>
  <anchor x="285" y="0" name="currency"/>
  <anchor x="394" y="514" name="hook"/>
  <anchor x="274" y="512" name="top"/>
  <outline>
    <contour>
      <point x="276" y="-14" type="curve" smooth="yes"/>
      <point x="365" y="-14"/>
      <point x="436" y="39"/>
      <point x="462" y="125" type="curve"/>
      <point x="461" y="125" type="line"/>
      <point x="434" y="46"/>
      <point x="379" y="1"/>
      <point x="310" y="1" type="curve" smooth="yes"/>
      <point x="211" y="1"/>
      <point x="154" y="98"/>
      <point x="154" y="265" type="curve" smooth="yes"/>
      <point x="154" y="431"/>
      <point x="208" y="527"/>
      <point x="300" y="527" type="curve" smooth="yes"/>
      <point x="349" y="527"/>
      <point x="390" y="506"/>
      <point x="390" y="480" type="curve" smooth="yes"/>
      <point x="390" y="454"/>
      <point x="360" y="435"/>
      <point x="360" y="397" type="curve" smooth="yes"/>
      <point x="360" y="374"/>
      <point x="378" y="358"/>
      <point x="403" y="358" type="curve" smooth="yes"/>
      <point x="434" y="358"/>
      <point x="455" y="381"/>
      <point x="455" y="414" type="curve" smooth="yes"/>
      <point x="455" y="477"/>
      <point x="380" y="529"/>
      <point x="289" y="529" type="curve" smooth="yes"/>
      <point x="153" y="529"/>
      <point x="57" y="414"/>
      <point x="57" y="252" type="curve" smooth="yes"/>
      <point x="57" y="95"/>
      <point x="147" y="-14"/>
    </contour>
  </outline>
</glyph>
<glyph name="e" format="2">
  <advance width="531"/>
  <unicode hex="0065"/>
  <anchor x="295" y="0" name="bottom"/>
  <anchor x="285" y="257" name="center"/>
  <anchor x="362" y="0" name="ogonek"/>
  <anchor x="283" y="512" name="top"/>
  <anchor x="283" y="492" name="top_low_1"/>
  <anchor x="283" y="472" name="top_low_2"/>
  <anchor x="283" y="452" name="top_low_3"/>
  <outline>
    <contour>
      <point x="280" y="-14" type="curve" smooth="yes"/>
      <point x="377" y="-14"/>
      <point x="453" y="39"/>
      <point x="481" y="125" type="curve"/>
      <point x="480" y="125" type="line"/>
      <point x="450" y="41"/>
      <point x="384" y="1"/>
      <point x="316" y="1" type="curve" smooth="yes"/>
      <point x="214" y="1"/>
      <point x="154" y="100"/>
      <point x="154" y="255" type="curve" smooth="yes"/>
      <point x="154" y="273"/>
      <point x="154" y="294"/>
      <point x="155" y="317" type="curve"/>
      <point x="155" y="318" type="line"/>
      <point x="164" y="467"/>
      <point x="224" y="528"/>
      <point x="283" y="528" type="curve" smooth="yes"/>
      <point x="356" y="528"/>
      <point x="387" y="431"/>
      <point x="384" y="318" type="curve"/>
      <point x="116" y="318" type="line"/>
      <point x="117" y="317" type="line"/>
      <point x="480" y="317" type="line"/>
      <point x="480" y="463"/>
      <point x="403" y="529"/>
      <point x="289" y="529" type="curve" smooth="yes"/>
      <point x="143" y="529"/>
      <point x="57" y="415"/>
      <point x="57" y="257" type="curve" smooth="yes"/>
      <point x="57" y="93"/>
      <point x="149" y="-14"/>
    </contour>
  </outline>
</glyph>
<glyph name="g" format="2">
  <advance width="542"/>
  <unicode hex="0067"/>
  <anchor x="269" y="-226" name="bottom"/>
  <anchor x="266" y="0" name="center"/>
  <anchor x="254" y="512" name="top"/>
  <outline>
    <contour>
      <point x="233" y="-239" type="curve" smooth="yes"/>
      <point x="388" y="-239"/>
      <point x="500" y="-151"/>
      <point x="500" y="-29" type="curve" smooth="yes"/>
      <point x="500" y="55"/>
      <point x="445" y="100"/>
      <point x="343" y="100" type="curve" smooth="yes"/>
      <point x="228" y="100" type="line" smooth="yes"/>
      <point x="187" y="100"/>
      <point x="165" y="116"/>
      <point x="165" y="146" type="curve" smooth="yes"/>
      <point x="165" y="172"/>
      <point x="181" y="192"/>
      <point x="220" y="214" type="curve"/>
      <point x="218" y="214" type="line"/>
      <point x="148" y="181"/>
      <point x="111" y="140"/>
      <point x="111" y="95" type="curve" smooth="yes"/>
      <point x="111" y="45"/>
      <point x="155" y="16"/>
      <point x="231" y="16" type="curve" smooth="yes"/>
      <point x="315" y="16" type="line" smooth="yes"/>
      <point x="393" y="16"/>
      <point x="431" y="-15"/>
      <point x="431" y="-77" type="curve" smooth="yes"/>
      <point x="431" y="-167"/>
      <point x="351" y="-237"/>
      <point x="248" y="-237" type="curve" smooth="yes"/>
      <point x="160" y="-237"/>
      <point x="111" y="-188"/>
      <point x="111" y="-101" type="curve" smooth="yes"/>
      <point x="111" y="-42"/>
      <point x="133" y="7"/>
      <point x="169" y="27" type="curve"/>
      <point x="169" y="28" type="line"/>
      <point x="77" y="-1"/>
      <point x="29" y="-50"/>
      <point x="29" y="-113" type="curve" smooth="yes"/>
      <point x="29" y="-189"/>
      <point x="109" y="-239"/>
    </contour>
    <contour>
      <point x="238" y="213" type="curve" smooth="yes"/>
      <point x="348" y="213"/>
      <point x="413" y="271"/>
      <point x="413" y="371" type="curve" smooth="yes"/>
      <point x="413" y="471"/>
      <point x="348" y="529"/>
      <point x="238" y="529" type="curve" smooth="yes"/>
      <point x="128" y="529"/>
      <point x="63" y="471"/>
      <point x="63" y="371" type="curve" smooth="yes"/>
      <point x="63" y="271"/>
      <point x="128" y="213"/>
    </contour>
    <contour>
      <point x="238" y="214" type="curve" smooth="yes"/>
      <point x="182" y="214"/>
      <point x="157" y="263"/>
      <point x="157" y="371" type="curve" smooth="yes"/>
      <point x="157" y="479"/>
      <point x="182" y="528"/>
      <point x="238" y="528" type="curve" smooth="yes"/>
      <point x="294" y="528"/>
      <point x="319" y="479"/>
      <point x="319" y="371" type="curve" smooth="yes"/>
      <point x="319" y="263"/>
      <point x="294" y="214"/>
    </contour>
    <contour>
      <point x="305" y="513" type="line"/>
      <point x="525" y="513" type="line"/>
      <point x="525" y="514" type="line"/>
      <point x="303" y="514" type="line"/>
    </contour>
  </outline>
</glyph>
<glyph name="k" format="2">
  <advance width="572"/>
  <unicode hex="006B"/>
  <anchor x="283" y="0" name="bottom"/>
  <anchor x="274" y="758" name="top"/>
  <outline>
    <contour>
      <point x="22" y="0" type="line"/>
      <point x="45" y="1"/>
      <point x="97" y="4"/>
      <point x="143" y="4" type="curve" smooth="yes"/>
      <point x="189" y="4"/>
      <point x="241" y="1"/>
      <point x="264" y="0" type="curve"/>
      <point x="264" y="1" type="line"/>
      <point x="209" y="3"/>
      <point x="188" y="17"/>
      <point x="188" y="73" type="curve" smooth="yes"/>
      <point x="188" y="784" type="line"/>
      <point x="156" y="775"/>
      <point x="121" y="770"/>
      <point x="84" y="770" type="curve" smooth="yes"/>
      <point x="64" y="770"/>
      <point x="43" y="771"/>
      <point x="22" y="773" type="curve"/>
      <point x="22" y="772" type="line"/>
      <point x="79" y="768"/>
      <point x="98" y="746"/>
      <point x="98" y="684" type="curve" smooth="yes"/>
      <point x="98" y="73" type="line" smooth="yes"/>
      <point x="98" y="17"/>
      <point x="77" y="3"/>
      <point x="22" y="1" type="curve"/>
    </contour>
    <contour>
      <point x="407" y="0" type="curve"/>
      <point x="428" y="1"/>
      <point x="450" y="2"/>
      <point x="471" y="2" type="curve" smooth="yes"/>
      <point x="488" y="2"/>
      <point x="505" y="1"/>
      <point x="577" y="0" type="curve"/>
      <point x="577" y="1" type="line"/>
      <point x="530" y="6"/>
      <point x="516" y="16"/>
      <point x="478" y="97" type="curve" smooth="yes"/>
      <point x="438" y="181" type="line" smooth="yes"/>
      <point x="396" y="270"/>
      <point x="375" y="295"/>
      <point x="326" y="311" type="curve"/>
      <point x="322" y="303" type="line"/>
      <point x="410" y="409" type="line" smooth="yes"/>
      <point x="457" y="466"/>
      <point x="485" y="490"/>
      <point x="550" y="513" type="curve"/>
      <point x="550" y="514" type="line"/>
      <point x="519" y="512"/>
      <point x="484" y="511"/>
      <point x="442" y="511" type="curve" smooth="yes"/>
      <point x="387" y="511"/>
      <point x="338" y="513"/>
      <point x="310" y="514" type="curve"/>
      <point x="310" y="513" type="line"/>
      <point x="424" y="506"/>
      <point x="445" y="453"/>
      <point x="380" y="375" type="curve" smooth="yes"/>
      <point x="346" y="334" type="line" smooth="yes"/>
      <point x="309" y="290"/>
      <point x="272" y="278"/>
      <point x="222" y="278" type="curve" smooth="yes"/>
      <point x="182" y="278" type="line"/>
      <point x="182" y="277" type="line"/>
      <point x="222" y="277" type="line" smooth="yes"/>
      <point x="280" y="277"/>
      <point x="306" y="256"/>
      <point x="340" y="181" type="curve" smooth="yes"/>
      <point x="389" y="73" type="line" smooth="yes"/>
      <point x="400" y="50"/>
      <point x="406" y="26"/>
    </contour>
    <component base="_LC-baseline-normal-narrow"/>
    <component base="_LC-ascender-left-inserif" xOffset="6"/>
    <component base="_LC-k-legs" xOffset="259"/>
  </outline>
</glyph>
<glyph name="l" format="2">
  <advance width="290"/>
  <unicode hex="006C"/>
  <anchor x="105" y="256" name="#entry"/>
  <anchor x="195" y="256" name="#exit"/>
  <anchor x="-116" y="0" name="%entry"/>
  <anchor x="105" y="0" name="%exit"/>
  <anchor x="0" y="0" name="^entry"/>
  <anchor x="271" y="0" name="^exit"/>
  <anchor x="150" y="0" name="bottom"/>
  <anchor x="150" y="354" name="center"/>
  <anchor x="235" y="512" name="right"/>
  <anchor x="105" y="256" name="stem"/>
  <anchor x="150" y="773" name="top"/>
  <anchor x="245" y="773" name="topright"/>
  <outline>
    <contour>
      <point x="150" y="3" type="curve"/>
      <point x="150" y="3" type="line"/>
      <point x="150" y="3" type="line"/>
      <point x="191" y="3"/>
      <point x="228" y="1"/>
      <point x="271" y="0" type="curve"/>
      <point x="271" y="1" type="line"/>
      <point x="260" y="2" type="line"/>
      <point x="212" y="6"/>
      <point x="195" y="23"/>
      <point x="195" y="73" type="curve"/>
      <point x="195" y="256" type="line"/>
      <point x="105" y="256" type="line"/>
      <point x="105" y="73" type="line"/>
      <point x="105" y="23"/>
      <point x="88" y="6"/>
      <point x="40" y="2" type="curve"/>
      <point x="29" y="1" type="line"/>
      <point x="29" y="0" type="line"/>
      <point x="72" y="1"/>
      <point x="109" y="3"/>
    </contour>
    <component base="_LC-ascender-left-inserif"/>
  </outline>
</glyph>
<glyph name="o" format="2">
  <advance width="568"/>
  <unicode hex="006F"/>
  <anchor x="-107" y="256" name="#entry"/>
  <anchor x="284" y="0" name="bottom"/>
  <anchor x="284" y="257" name="center"/>
  <anchor x="369" y="0" name="ogonek"/>
  <anchor x="284" y="512" name="top"/>
  <anchor x="284" y="492" name="top_low_1"/>
  <anchor x="284" y="472" name="top_low_2"/>
  <anchor x="284" y="452" name="top_low_3"/>
  <anchor x="284" y="432" name="top_low_4"/>
  <anchor x="511" y="512" name="topright"/>
  <outline>
    <contour>
      <point x="284" y="-14" type="curve" smooth="yes"/>
      <point x="411" y="-14"/>
      <point x="511" y="65"/>
      <point x="511" y="257" type="curve" smooth="yes"/>
      <point x="511" y="449"/>
      <point x="411" y="529"/>
      <point x="284" y="529" type="curve" smooth="yes"/>
      <point x="157" y="529"/>
      <point x="57" y="449"/>
      <point x="57" y="257" type="curve" smooth="yes"/>
      <point x="57" y="65"/>
      <point x="157" y="-14"/>
    </contour>
    <contour>
      <point x="284" y="-13" type="curve" smooth="yes"/>
      <point x="208" y="-13"/>
      <point x="154" y="64"/>
      <point x="154" y="257" type="curve" smooth="yes"/>
      <point x="154" y="449"/>
      <point x="208" y="528"/>
      <point x="284" y="528" type="curve" smooth="yes"/>
      <point x="360" y="528"/>
      <point x="414" y="449"/>
      <point x="414" y="257" type="curve" smooth="yes"/>
      <point x="414" y="64"/>
      <point x="360" y="-13"/>
    </contour>
  </outline>
</glyph>
<glyph name="p" format="2">
  <advance width="598"/>
  <unicode hex="0070"/>
  <anchor x="195" y="256" name="#entry"/>
  <anchor x="195" y="256" name="#exit"/>
  <anchor x="315" y="-231" name="bottom"/>
  <anchor x="312" y="255" name="center"/>
  <anchor x="105" y="0" name="lower-left"/>
  <anchor x="272" y="512" name="top"/>
  <anchor x="105" y="512" name="top-left"/>
  <outline>
    <contour>
      <point x="150" y="-228" type="curve"/>
      <point x="150" y="-228" type="line"/>
      <point x="150" y="-228" type="line"/>
      <point x="201" y="-228"/>
      <point x="248" y="-230"/>
      <point x="301" y="-231" type="curve"/>
      <point x="301" y="-230" type="line"/>
      <point x="260" y="-227" type="line"/>
      <point x="209" y="-223"/>
      <point x="195" y="-208"/>
      <point x="195" y="-158" type="curve"/>
      <point x="195" y="256" type="line"/>
      <point x="105" y="256" type="line"/>
      <point x="105" y="-158" type="line"/>
      <point x="105" y="-208"/>
      <point x="88" y="-225"/>
      <point x="40" y="-229" type="curve"/>
      <point x="29" y="-230" type="line"/>
      <point x="29" y="-231" type="line"/>
      <point x="72" y="-230"/>
      <point x="109" y="-228"/>
    </contour>
    <contour>
      <point x="340" y="526" type="curve" smooth="yes"/>
      <point x="257" y="526"/>
      <point x="203" y="483"/>
      <point x="182" y="431" type="curve"/>
      <point x="183" y="431" type="line"/>
      <point x="204" y="478"/>
      <point x="244" y="511"/>
      <point x="303" y="511" type="curve" smooth="yes"/>
      <point x="392" y="511"/>
      <point x="444" y="416"/>
      <point x="444" y="255" type="curve" smooth="yes"/>
      <point x="444" y="91"/>
      <point x="390" y="-5"/>
      <point x="297" y="-5" type="curve" smooth="yes"/>
      <point x="238" y="-5"/>
      <point x="197" y="29"/>
      <point x="189" y="60" type="curve"/>
      <point x="188" y="61" type="line"/>
      <point x="193" y="30"/>
      <point x="244" y="-17"/>
      <point x="320" y="-17" type="curve" smooth="yes"/>
      <point x="457" y="-17"/>
      <point x="541" y="83"/>
      <point x="541" y="255" type="curve" smooth="yes"/>
      <point x="541" y="426"/>
      <point x="465" y="526"/>
    </contour>
    <component base="_n-1st-stroke-hook" xOffset="-1"/>
  </outline>
</glyph>
<glyph name="q" format="2">
  <advance width="599"/>
  <unicode hex="0071"/>
  <anchor x="403" y="256" name="#entry"/>
  <anchor x="403" y="256" name="#exit"/>
  <anchor x="326" y="0" name="bottom"/>
  <anchor x="493" y="0" name="bottom-right"/>
  <anchor x="286" y="257" name="center"/>
  <anchor x="493" y="0" name="lower-right"/>
  <outline>
    <contour>
      <point x="258" y="-14" type="curve" smooth="yes"/>
      <point x="341" y="-14"/>
      <point x="395" y="29"/>
      <point x="416" y="81" type="curve"/>
      <point x="415" y="81" type="line"/>
      <point x="394" y="34"/>
      <point x="354" y="1"/>
      <point x="295" y="1" type="curve" smooth="yes"/>
      <point x="206" y="1"/>
      <point x="154" y="96"/>
      <point x="154" y="257" type="curve" smooth="yes"/>
      <point x="154" y="421"/>
      <point x="208" y="517"/>
      <point x="301" y="517" type="curve" smooth="yes"/>
      <point x="360" y="517"/>
      <point x="401" y="483"/>
      <point x="409" y="452" type="curve"/>
      <point x="410" y="451" type="line"/>
      <point x="405" y="482"/>
      <point x="354" y="529"/>
      <point x="278" y="529" type="curve" smooth="yes"/>
      <point x="141" y="529"/>
      <point x="57" y="429"/>
      <point x="57" y="257" type="curve" smooth="yes"/>
      <point x="57" y="86"/>
      <point x="133" y="-14"/>
    </contour>
    <contour>
      <point x="448" y="-228" type="line"/>
      <point x="489" y="-228"/>
      <point x="526" y="-230"/>
      <point x="569" y="-231" type="curve"/>
      <point x="569" y="-230" type="line"/>
      <point x="558" y="-229" type="line"/>
      <point x="510" y="-225"/>
      <point x="493" y="-208"/>
      <point x="493" y="-158" type="curve"/>
      <point x="493" y="256" type="line"/>
      <point x="403" y="256" type="line"/>
      <point x="403" y="-158" type="line"/>
      <point x="403" y="-208"/>
      <point x="389" y="-223"/>
      <point x="338" y="-227" type="curve"/>
      <point x="297" y="-230" type="line"/>
      <point x="297" y="-231" type="line"/>
      <point x="350" y="-230"/>
      <point x="397" y="-228"/>
      <point x="448" y="-228" type="curve"/>
      <point x="448" y="-228" type="line"/>
    </contour>
    <component base="_LC-xheight-right-instroke" xOffset="203"/>
  </outline>
</glyph>
<glyph name="r" format="2">
  <advance width="455"/>
  <unicode hex="0072"/>
  <anchor x="228" y="0" name="bottom"/>
  <anchor x="228" y="512" name="top"/>
  <outline>
    <contour>
      <point x="150" y="3" type="curve"/>
      <point x="150" y="3" type="line"/>
      <point x="150" y="3" type="line"/>
      <point x="197" y="3"/>
      <point x="240" y="1"/>
      <point x="289" y="0" type="curve"/>
      <point x="289" y="1" type="line"/>
      <point x="260" y="3" type="line"/>
      <point x="210" y="7"/>
      <point x="195" y="23"/>
      <point x="195" y="73" type="curve"/>
      <point x="195" y="256" type="line"/>
      <point x="105" y="256" type="line"/>
      <point x="105" y="73" type="line"/>
      <point x="105" y="23"/>
      <point x="88" y="6"/>
      <point x="40" y="2" type="curve"/>
      <point x="29" y="1" type="line"/>
      <point x="29" y="0" type="line"/>
      <point x="72" y="1"/>
      <point x="109" y="3"/>
    </contour>
    <contour>
      <point x="105" y="256" type="line"/>
      <point x="195" y="256" type="line"/>
      <point x="195" y="514" type="line"/>
      <point x="195" y="526" type="line"/>
      <point x="167" y="516"/>
      <point x="130" y="512"/>
      <point x="89" y="512" type="curve"/>
      <point x="73" y="512"/>
      <point x="60" y="512"/>
      <point x="29" y="514" type="curve"/>
      <point x="29" y="513" type="line"/>
      <point x="38" y="512" type="line"/>
      <point x="90" y="506"/>
      <point x="105" y="490"/>
      <point x="105" y="441" type="curve"/>
    </contour>
    <component base="_LC-r-arm" xOffset="164"/>
  </outline>
</glyph>
<glyph name="s" format="2">
  <advance width="457"/>
  <unicode hex="0073"/>
  <anchor x="381" y="0" name="^exit"/>
  <anchor x="234" y="0" name="bottom"/>
  <anchor x="231" y="257" name="center"/>
  <anchor x="222" y="512" name="top"/>
  <anchor x="222" y="492" name="top_low_1"/>
  <anchor x="222" y="472" name="top_low_2"/>
  <anchor x="222" y="452" name="top_low_3"/>
  <anchor x="222" y="432" name="top_low_4"/>
  <outline>
    <contour>
      <point x="230" y="-14" type="curve" smooth="yes"/>
      <point x="336" y="-14"/>
      <point x="401" y="45"/>
      <point x="401" y="141" type="curve" smooth="yes"/>
      <point x="401" y="218"/>
      <point x="361" y="265"/>
      <point x="263" y="303" type="curve" smooth="yes"/>
      <point x="167" y="341"/>
      <point x="129" y="378"/>
      <point x="129" y="434" type="curve" smooth="yes"/>
      <point x="129" y="490"/>
      <point x="169" y="527"/>
      <point x="231" y="527" type="curve" smooth="yes"/>
      <point x="310" y="527"/>
      <point x="367" y="461"/>
      <point x="377" y="358" type="curve"/>
      <point x="378" y="358" type="line"/>
      <point x="374" y="416"/>
      <point x="375" y="473"/>
      <point x="381" y="529" type="curve"/>
      <point x="380" y="529" type="line"/>
      <point x="372" y="506"/>
      <point x="362" y="496"/>
      <point x="346" y="496" type="curve" smooth="yes"/>
      <point x="316" y="496"/>
      <point x="293" y="529"/>
      <point x="222" y="529" type="curve" smooth="yes"/>
      <point x="130" y="529"/>
      <point x="69" y="474"/>
      <point x="69" y="390" type="curve" smooth="yes"/>
      <point x="69" y="315"/>
      <point x="115" y="266"/>
      <point x="227" y="221" type="curve" smooth="yes"/>
      <point x="308" y="189"/>
      <point x="341" y="152"/>
      <point x="341" y="94" type="curve" smooth="yes"/>
      <point x="341" y="28"/>
      <point x="295" y="-11"/>
      <point x="217" y="-11" type="curve" smooth="yes"/>
      <point x="119" y="-11"/>
      <point x="73" y="48"/>
      <point x="55" y="197" type="curve"/>
      <point x="54" y="197" type="line"/>
      <point x="58" y="132"/>
      <point x="57" y="57"/>
      <point x="51" y="-14" type="curve"/>
      <point x="52" y="-14" type="line"/>
      <point x="59" y="6"/>
      <point x="75" y="19"/>
      <point x="92" y="19" type="curve" smooth="yes"/>
      <point x="119" y="19"/>
      <point x="150" y="-14"/>
    </contour>
  </outline>
</glyph>
<glyph name="u" format="2">
  <advance width="595"/>
  <unicode hex="0075"/>
  <anchor x="106" y="256" name="#entry"/>
  <anchor x="196" y="256" name="#exit"/>
  <anchor x="158" y="0" name="%entry"/>
  <anchor x="445" y="512" name="%exit"/>
  <anchor x="15" y="512" name="^entry"/>
  <anchor x="301" y="512" name="^exit"/>
  <anchor x="328" y="0" name="bottom"/>
  <anchor x="305" y="270" name="center"/>
  <anchor x="407" y="256" name="reversedExit"/>
  <anchor x="196" y="256" name="stem"/>
  <anchor x="291" y="512" name="top"/>
  <anchor x="291" y="492" name="top_low_1"/>
  <anchor x="291" y="472" name="top_low_2"/>
  <anchor x="291" y="452" name="top_low_3"/>
  <anchor x="497" y="512" name="topright"/>
  <outline>
    <contour>
      <point x="196" y="512" type="line"/>
      <point x="196" y="524" type="line"/>
      <point x="168" y="514"/>
      <point x="131" y="510"/>
      <point x="90" y="510" type="curve"/>
      <point x="74" y="510"/>
      <point x="61" y="510"/>
      <point x="30" y="512" type="curve"/>
      <point x="30" y="511" type="line"/>
      <point x="39" y="510" type="line"/>
      <point x="91" y="504"/>
      <point x="106" y="488"/>
      <point x="106" y="439" type="curve"/>
      <point x="106" y="256" type="line"/>
      <point x="196" y="256" type="line"/>
    </contour>
    <contour>
      <point x="196" y="256" type="line"/>
      <point x="106" y="256" type="line"/>
      <point x="106" y="175" type="line" smooth="yes"/>
      <point x="106" y="50"/>
      <point x="158" y="-17"/>
      <point x="256" y="-17" type="curve" smooth="yes"/>
      <point x="343" y="-17"/>
      <point x="400" y="27"/>
      <point x="432" y="117" type="curve"/>
      <point x="431" y="118" type="line"/>
      <point x="402" y="40"/>
      <point x="355" y="-2"/>
      <point x="294" y="-2" type="curve" smooth="yes"/>
      <point x="228" y="-2"/>
      <point x="196" y="49"/>
      <point x="196" y="154" type="curve" smooth="yes"/>
    </contour>
    <contour>
      <point x="407" y="0" type="line"/>
      <point x="407" y="-12" type="line"/>
      <point x="435" y="-2"/>
      <point x="472" y="2"/>
      <point x="513" y="2" type="curve"/>
      <point x="529" y="2"/>
      <point x="542" y="2"/>
      <point x="573" y="0" type="curve"/>
      <point x="573" y="1" type="line"/>
      <point x="564" y="2" type="line"/>
      <point x="512" y="8"/>
      <point x="497" y="24"/>
      <point x="497" y="73" type="curve"/>
      <point x="497" y="256" type="line"/>
      <point x="407" y="256" type="line"/>
    </contour>
    <contour>
      <point x="497" y="512" type="line"/>
      <point x="497" y="524" type="line"/>
      <point x="469" y="514"/>
      <point x="432" y="510"/>
      <point x="391" y="510" type="curve"/>
      <point x="375" y="510"/>
      <point x="362" y="510"/>
      <point x="331" y="512" type="curve"/>
      <point x="331" y="511" type="line"/>
      <point x="340" y="510" type="line"/>
      <point x="392" y="504"/>
      <point x="407" y="488"/>
      <point x="407" y="439" type="curve"/>
      <point x="407" y="256" type="line"/>
      <point x="497" y="256" type="line"/>
    </contour>
  </outline>
</glyph>
<glyph name="v" format="2">
  <advance width="531"/>
  <unicode hex="0076"/>
  <anchor x="262" y="0" name="bottom"/>
  <anchor x="257" y="512" name="top"/>
  <outline>
    <contour>
      <point x="262" y="-15" type="line"/>
      <point x="263" y="-15" type="line"/>
      <point x="393" y="335" type="line"/>
      <point x="441" y="467"/>
      <point x="472" y="499"/>
      <point x="522" y="509" type="curve"/>
      <point x="532" y="511" type="line"/>
      <point x="532" y="512" type="line"/>
      <point x="515" y="511"/>
      <point x="488" y="509"/>
      <point x="447" y="509" type="curve"/>
      <point x="415" y="509"/>
      <point x="363" y="510"/>
      <point x="327" y="512" type="curve"/>
      <point x="327" y="511" type="line"/>
      <point x="337" y="510" type="line"/>
      <point x="410" y="503"/>
      <point x="433" y="452"/>
      <point x="387" y="324" type="curve"/>
      <point x="302" y="93" type="line"/>
      <point x="308" y="108" type="line"/>
      <point x="175" y="434" type="line"/>
      <point x="165" y="458"/>
      <point x="156" y="484"/>
      <point x="154" y="512" type="curve"/>
      <point x="135" y="510"/>
      <point x="116" y="509"/>
      <point x="93" y="509" type="curve"/>
      <point x="58" y="509"/>
      <point x="32" y="510"/>
      <point x="-1" y="512" type="curve"/>
      <point x="-1" y="511" type="line"/>
      <point x="30" y="510"/>
      <point x="55" y="493"/>
      <point x="70" y="457" type="curve"/>
    </contour>
  </outline>
</glyph>
<glyph name="w" format="2">
  <advance width="787"/>
  <unicode hex="0077"/>
  <anchor x="395" y="0" name="bottom"/>
  <anchor x="421" y="512" name="top"/>
  <outline>
    <contour>
      <point x="240" y="-15" type="line"/>
      <point x="241" y="-15" type="line"/>
      <point x="428" y="518" type="line"/>
      <point x="427" y="519" type="line"/>
      <point x="283" y="110" type="line"/>
      <point x="287" y="118" type="line"/>
      <point x="172" y="433" type="line"/>
      <point x="163" y="457"/>
      <point x="156" y="484"/>
      <point x="154" y="512" type="curve"/>
      <point x="135" y="510"/>
      <point x="116" y="509"/>
      <point x="93" y="509" type="curve"/>
      <point x="58" y="509"/>
      <point x="32" y="510"/>
      <point x="-1" y="512" type="curve"/>
      <point x="-1" y="511" type="line"/>
      <point x="30" y="510"/>
      <point x="54" y="493"/>
      <point x="68" y="456" type="curve"/>
    </contour>
    <contour>
      <point x="558" y="-15" type="line"/>
      <point x="559" y="-15" type="line"/>
      <point x="691" y="378" type="line"/>
      <point x="721" y="468"/>
      <point x="746" y="502"/>
      <point x="788" y="511" type="curve"/>
      <point x="788" y="512" type="line"/>
      <point x="773" y="511"/>
      <point x="759" y="511"/>
      <point x="741" y="511" type="curve"/>
      <point x="728" y="511"/>
      <point x="718" y="511"/>
      <point x="704" y="512" type="curve"/>
      <point x="711" y="471"/>
      <point x="704" y="419"/>
      <point x="683" y="359" type="curve"/>
      <point x="587" y="73" type="line"/>
      <point x="601" y="111" type="line"/>
      <point x="429" y="519" type="line"/>
      <point x="427" y="519" type="line"/>
      <point x="384" y="397" type="line"/>
    </contour>
  </outline>
</glyph>
<glyph name="x" format="2">
  <advance width="519"/>
  <unicode hex="0078"/>
  <anchor x="268" y="0" name="bottom"/>
  <anchor x="506" y="0" name="bottomright"/>
  <anchor x="274" y="512" name="top"/>
  <outline>
    <contour>
      <point x="350" y="0" type="curve"/>
      <point x="369" y="2"/>
      <point x="391" y="3"/>
      <point x="408" y="3" type="curve" smooth="yes"/>
      <point x="447" y="3"/>
      <point x="473" y="2"/>
      <point x="506" y="0" type="curve"/>
      <point x="506" y="1" type="line"/>
      <point x="475" y="4"/>
      <point x="455" y="19"/>
      <point x="433" y="56" type="curve" smooth="yes"/>
      <point x="204" y="435" type="line" smooth="yes"/>
      <point x="188" y="461"/>
      <point x="180" y="486"/>
      <point x="178" y="514" type="curve"/>
      <point x="159" y="512"/>
      <point x="137" y="511"/>
      <point x="120" y="511" type="curve" smooth="yes"/>
      <point x="81" y="511"/>
      <point x="55" y="512"/>
      <point x="22" y="514" type="curve"/>
      <point x="22" y="513" type="line"/>
      <point x="53" y="510"/>
      <point x="73" y="495"/>
      <point x="95" y="458" type="curve" smooth="yes"/>
      <point x="324" y="79" type="line" smooth="yes"/>
      <point x="340" y="53"/>
      <point x="348" y="28"/>
    </contour>
    <contour>
      <point x="11" y="0" type="line"/>
      <point x="42" y="2"/>
      <point x="66" y="3"/>
      <point x="97" y="3" type="curve" smooth="yes"/>
      <point x="128" y="3"/>
      <point x="176" y="2"/>
      <point x="211" y="0" type="curve"/>
      <point x="211" y="1" type="line"/>
      <point x="133" y="6"/>
      <point x="111" y="70"/>
      <point x="197" y="192" type="curve" smooth="yes"/>
      <point x="245" y="260" type="line"/>
      <point x="244" y="261" type="line"/>
      <point x="129" y="99" type="line" smooth="yes"/>
      <point x="86" y="38"/>
      <point x="40" y="4"/>
      <point x="11" y="1" type="curve"/>
    </contour>
    <contour>
      <point x="278" y="265" type="line"/>
      <point x="386" y="425" type="line" smooth="yes"/>
      <point x="421" y="477"/>
      <point x="466" y="510"/>
      <point x="486" y="513" type="curve"/>
      <point x="486" y="514" type="line"/>
      <point x="465" y="512"/>
      <point x="441" y="511"/>
      <point x="410" y="511" type="curve" smooth="yes"/>
      <point x="379" y="511"/>
      <point x="361" y="512"/>
      <point x="326" y="514" type="curve"/>
      <point x="326" y="513" type="line"/>
      <point x="397" y="508"/>
      <point x="398" y="444"/>
      <point x="343" y="363" type="curve" smooth="yes"/>
      <point x="277" y="266" type="line"/>
    </contour>
  </outline>
</glyph>
<glyph name="y" format="2">
  <advance width="532"/>
  <unicode hex="0079"/>
  <anchor x="-119" y="256" name="#entry"/>
  <anchor x="354" y="0" name="bottom"/>
  <anchor x="253" y="257" name="center"/>
  <anchor x="267" y="512" name="top"/>
  <outline>
    <contour>
      <point x="263" y="-17" type="line"/>
      <point x="264" y="-17" type="line"/>
      <point x="394" y="335" type="line"/>
      <point x="442" y="467"/>
      <point x="473" y="499"/>
      <point x="523" y="509" type="curve"/>
      <point x="533" y="511" type="line"/>
      <point x="533" y="512" type="line"/>
      <point x="516" y="511"/>
      <point x="489" y="509"/>
      <point x="448" y="509" type="curve"/>
      <point x="416" y="509"/>
      <point x="364" y="510"/>
      <point x="328" y="512" type="curve"/>
      <point x="328" y="511" type="line"/>
      <point x="338" y="510" type="line"/>
      <point x="411" y="503"/>
      <point x="434" y="452"/>
      <point x="389" y="324" type="curve"/>
      <point x="303" y="92" type="line"/>
      <point x="309" y="107" type="line"/>
      <point x="175" y="434" type="line"/>
      <point x="165" y="458"/>
      <point x="156" y="484"/>
      <point x="154" y="512" type="curve"/>
      <point x="135" y="510"/>
      <point x="116" y="509"/>
      <point x="93" y="509" type="curve"/>
      <point x="58" y="509"/>
      <point x="32" y="510"/>
      <point x="-1" y="512" type="curve"/>
      <point x="-1" y="511" type="line"/>
      <point x="30" y="510"/>
      <point x="55" y="493"/>
      <point x="70" y="457" type="curve"/>
    </contour>
    <contour>
      <point x="108" y="-239" type="curve" smooth="yes"/>
      <point x="158" y="-239"/>
      <point x="187" y="-213"/>
      <point x="215" y="-142" type="curve" smooth="yes"/>
      <point x="269" y="-4" type="line"/>
      <point x="267" y="-4" type="line"/>
      <point x="213" y="-143" type="line" smooth="yes"/>
      <point x="189" y="-205"/>
      <point x="161" y="-233"/>
      <point x="124" y="-233" type="curve" smooth="yes"/>
      <point x="111" y="-233"/>
      <point x="104" y="-228"/>
      <point x="104" y="-219" type="curve" smooth="yes"/>
      <point x="104" y="-200"/>
      <point x="120" y="-181"/>
      <point x="120" y="-150" type="curve" smooth="yes"/>
      <point x="120" y="-127"/>
      <point x="106" y="-113"/>
      <point x="83" y="-113" type="curve" smooth="yes"/>
      <point x="51" y="-113"/>
      <point x="29" y="-137"/>
      <point x="29" y="-172" type="curve" smooth="yes"/>
      <point x="29" y="-213"/>
      <point x="59" y="-239"/>
    </contour>
  </outline>
</glyph>
<glyph name="braceleft" format="2">
  <advance width="344"/>
  <unicode hex="007B"/>
  <outline>
    <contour>
      <point x="278" y="-191" type="curve"/>
      <point x="278" y="-190" type="line"/>
      <point x="208" y="-185"/>
      <point x="203" y="-181"/>
      <point x="198" y="47" type="curve" smooth="yes"/>
      <point x="194" y="222"/>
      <point x="148" y="293"/>
      <point x="35" y="299" type="curve"/>
      <point x="148" y="305"/>
      <point x="189" y="379"/>
      <point x="198" y="551" type="curve" smooth="yes"/>
      <point x="209" y="771"/>
      <point x="217" y="777"/>
      <point x="278" y="781" type="curve"/>
      <point x="278" y="782" type="line"/>
      <point x="148" y="782"/>
      <point x="116" y="738"/>
      <point x="108" y="551" type="curve" smooth="yes"/>
      <point x="99" y="353"/>
      <point x="97" y="300"/>
      <point x="32" y="300" type="curve" smooth="yes"/>
      <point x="27" y="300" type="line"/>
      <point x="27" y="298" type="line"/>
      <point x="32" y="298" type="line" smooth="yes"/>
      <point x="87" y="298"/>
      <point x="98" y="261"/>
      <point x="108" y="47" type="curve" smooth="yes"/>
      <point x="116" y="-148"/>
      <point x="147" y="-191"/>
    </contour>
  </outline>
</glyph>
<glyph name="bar" format="2">
  <advance width="183"/>
  <unicode hex="007C"/>
  <outline>
    <contour>
      <point x="91" y="-231" type="line"/>
      <point x="92" y="-231" type="line"/>
      <point x="92" y="858" type="line"/>
      <point x="91" y="858" type="line"/>
    </contour>
  </outline>
</glyph>
<glyph name="asciitilde" format="2">
  <advance width="650"/>
  <unicode hex="007E"/>
  <anchor x="325" y="262" name="_center"/>
  <outline>
    <contour>
      <point x="438" y="200" type="curve" smooth="yes"/>
      <point x="515" y="200"/>
      <point x="564" y="243"/>
      <point x="580" y="326" type="curve"/>
      <point x="579" y="326" type="line"/>
      <point x="561" y="278"/>
      <point x="524" y="253"/>
      <point x="470" y="253" type="curve" smooth="yes"/>
      <point x="375" y="253"/>
      <point x="316" y="330"/>
      <point x="212" y="330" type="curve" smooth="yes"/>
      <point x="135" y="330"/>
      <point x="86" y="287"/>
      <point x="70" y="204" type="curve"/>
      <point x="71" y="204" type="line"/>
      <point x="89" y="252"/>
      <point x="126" y="277"/>
      <point x="180" y="277" type="curve" smooth="yes"/>
      <point x="275" y="277"/>
      <point x="334" y="200"/>
    </contour>
  </outline>
</glyph>
<glyph name="currency" format="2">
  <advance width="535"/>
  <unicode hex="00A4"/>
  <outline>
    <contour>
      <point x="92" y="80" type="line"/>
      <point x="135" y="123" type="line"/>
      <point x="167" y="90"/>
      <point x="214" y="68"/>
      <point x="268" y="68" type="curve" smooth="yes"/>
      <point x="321" y="68"/>
      <point x="371" y="92"/>
      <point x="401" y="124" type="curve"/>
      <point x="445" y="80" type="line"/>
      <point x="446" y="81" type="line"/>
      <point x="402" y="125" type="line"/>
      <point x="436" y="159"/>
      <point x="457" y="204"/>
      <point x="457" y="257" type="curve" smooth="yes"/>
      <point x="457" y="310"/>
      <point x="437" y="355"/>
      <point x="402" y="389" type="curve"/>
      <point x="446" y="435" type="line"/>
      <point x="445" y="436" type="line"/>
      <point x="401" y="390" type="line"/>
      <point x="367" y="427"/>
      <point x="318" y="447"/>
      <point x="268" y="447" type="curve" smooth="yes"/>
      <point x="219" y="447"/>
      <point x="169" y="427"/>
      <point x="134" y="391" type="curve"/>
      <point x="91" y="435" type="line"/>
      <point x="90" y="434" type="line"/>
      <point x="133" y="390" type="line"/>
      <point x="98" y="355"/>
      <point x="78" y="306"/>
      <point x="78" y="257" type="curve" smooth="yes"/>
      <point x="78" y="211"/>
      <point x="95" y="159"/>
      <point x="134" y="124" type="curve"/>
      <point x="91" y="81" type="line"/>
    </contour>
    <contour>
      <point x="268" y="69" type="curve" smooth="yes"/>
      <point x="165" y="69"/>
      <point x="79" y="154"/>
      <point x="79" y="257" type="curve" smooth="yes"/>
      <point x="79" y="359"/>
      <point x="163" y="446"/>
      <point x="268" y="446" type="curve" smooth="yes"/>
      <point x="370" y="446"/>
      <point x="456" y="358"/>
      <point x="456" y="257" type="curve" smooth="yes"/>
      <point x="456" y="154"/>
      <point x="370" y="69"/>
    </contour>
  </outline>
</glyph>
<glyph name="section" format="2">
  <advance width="508"/>
  <unicode hex="00A7"/>
  <outline>
    <contour>
      <point x="347" y="49" type="line"/>
      <point x="428" y="92"/>
      <point x="468" y="149"/>
      <point x="468" y="213" type="curve" smooth="yes"/>
      <point x="468" y="309"/>
      <point x="409" y="353"/>
      <point x="321" y="417" type="curve" smooth="yes"/>
      <point x="202" y="503"/>
      <point x="160" y="538"/>
      <point x="160" y="613" type="curve" smooth="yes"/>
      <point x="160" y="674"/>
      <point x="206" y="720"/>
      <point x="278" y="720" type="curve" smooth="yes"/>
      <point x="326" y="720"/>
      <point x="367" y="699"/>
      <point x="367" y="672" type="curve" smooth="yes"/>
      <point x="367" y="649"/>
      <point x="337" y="625"/>
      <point x="337" y="592" type="curve" smooth="yes"/>
      <point x="337" y="566"/>
      <point x="355" y="551"/>
      <point x="380" y="551" type="curve" smooth="yes"/>
      <point x="411" y="551"/>
      <point x="432" y="574"/>
      <point x="432" y="607" type="curve" smooth="yes"/>
      <point x="432" y="670"/>
      <point x="358" y="722"/>
      <point x="264" y="722" type="curve" smooth="yes"/>
      <point x="160" y="722"/>
      <point x="90" y="659"/>
      <point x="90" y="570" type="curve" smooth="yes"/>
      <point x="90" y="484"/>
      <point x="140" y="433"/>
      <point x="270" y="340" type="curve" smooth="yes"/>
      <point x="381" y="260"/>
      <point x="414" y="222"/>
      <point x="414" y="160" type="curve" smooth="yes"/>
      <point x="414" y="117"/>
      <point x="391" y="78"/>
      <point x="347" y="50" type="curve"/>
    </contour>
    <contour>
      <point x="245" y="-239" type="curve" smooth="yes"/>
      <point x="349" y="-239"/>
      <point x="419" y="-176"/>
      <point x="419" y="-87" type="curve" smooth="yes"/>
      <point x="419" y="-1"/>
      <point x="369" y="50"/>
      <point x="239" y="143" type="curve" smooth="yes"/>
      <point x="128" y="223"/>
      <point x="95" y="261"/>
      <point x="95" y="323" type="curve" smooth="yes"/>
      <point x="95" y="366"/>
      <point x="118" y="405"/>
      <point x="162" y="433" type="curve"/>
      <point x="162" y="434" type="line"/>
      <point x="81" y="391"/>
      <point x="41" y="334"/>
      <point x="41" y="270" type="curve" smooth="yes"/>
      <point x="41" y="174"/>
      <point x="100" y="130"/>
      <point x="188" y="66" type="curve" smooth="yes"/>
      <point x="307" y="-20"/>
      <point x="349" y="-55"/>
      <point x="349" y="-130" type="curve" smooth="yes"/>
      <point x="349" y="-191"/>
      <point x="303" y="-237"/>
      <point x="231" y="-237" type="curve" smooth="yes"/>
      <point x="183" y="-237"/>
      <point x="142" y="-216"/>
      <point x="142" y="-189" type="curve" smooth="yes"/>
      <point x="142" y="-166"/>
      <point x="172" y="-142"/>
      <point x="172" y="-109" type="curve" smooth="yes"/>
      <point x="172" y="-83"/>
      <point x="154" y="-68"/>
      <point x="129" y="-68" type="curve" smooth="yes"/>
      <point x="98" y="-68"/>
      <point x="77" y="-91"/>
      <point x="77" y="-124" type="curve" smooth="yes"/>
      <point x="77" y="-187"/>
      <point x="151" y="-239"/>
    </contour>
  </outline>
</glyph>
<glyph name="copyright" format="2">
  <advance width="894"/>
  <unicode hex="00A9"/>
  <outline>
    <contour>
      <point x="447" y="-14" type="curve" smooth="yes"/>
      <point x="667" y="-14"/>
      <point x="845" y="164"/>
      <point x="845" y="384" type="curve" smooth="yes"/>
      <point x="845" y="604"/>
      <point x="667" y="782"/>
      <point x="447" y="782" type="curve" smooth="yes"/>
      <point x="227" y="782"/>
      <point x="49" y="604"/>
      <point x="49" y="384" type="curve" smooth="yes"/>
      <point x="49" y="164"/>
      <point x="227" y="-14"/>
    </contour>
    <contour>
      <point x="451" y="113" type="curve" smooth="yes"/>
      <point x="540" y="113"/>
      <point x="611" y="166"/>
      <point x="637" y="252" type="curve"/>
      <point x="636" y="252" type="line"/>
      <point x="607" y="166"/>
      <point x="548" y="128"/>
      <point x="485" y="128" type="curve" smooth="yes"/>
      <point x="387" y="128"/>
      <point x="329" y="223"/>
      <point x="329" y="392" type="curve" smooth="yes"/>
      <point x="329" y="558"/>
      <point x="383" y="654"/>
      <point x="475" y="654" type="curve" smooth="yes"/>
      <point x="526" y="654"/>
      <point x="565" y="632"/>
      <point x="565" y="607" type="curve" smooth="yes"/>
      <point x="565" y="581"/>
      <point x="535" y="562"/>
      <point x="535" y="524" type="curve" smooth="yes"/>
      <point x="535" y="501"/>
      <point x="553" y="485"/>
      <point x="578" y="485" type="curve" smooth="yes"/>
      <point x="609" y="485"/>
      <point x="630" y="508"/>
      <point x="630" y="541" type="curve" smooth="yes"/>
      <point x="630" y="604"/>
      <point x="555" y="656"/>
      <point x="464" y="656" type="curve" smooth="yes"/>
      <point x="328" y="656"/>
      <point x="232" y="541"/>
      <point x="232" y="379" type="curve" smooth="yes"/>
      <point x="232" y="222"/>
      <point x="322" y="113"/>
    </contour>
    <contour>
      <point x="447" y="-13" type="curve" smooth="yes"/>
      <point x="227" y="-13"/>
      <point x="50" y="165"/>
      <point x="50" y="384" type="curve" smooth="yes"/>
      <point x="50" y="603"/>
      <point x="227" y="781"/>
      <point x="447" y="781" type="curve" smooth="yes"/>
      <point x="667" y="781"/>
      <point x="844" y="603"/>
      <point x="844" y="384" type="curve" smooth="yes"/>
      <point x="844" y="165"/>
      <point x="667" y="-13"/>
    </contour>
  </outline>
</glyph>
<glyph name="ordfeminine" format="2">
  <advance width="418"/>
  <unicode hex="00AA"/>
  <outline>
    <contour>
      <point x="153" y="360" type="curve" smooth="yes"/>
      <point x="203" y="360"/>
      <point x="240" y="380"/>
      <point x="267" y="421" type="curve"/>
      <point x="267" y="381"/>
      <point x="292" y="360"/>
      <point x="342" y="360" type="curve" smooth="yes"/>
      <point x="378" y="360"/>
      <point x="394" y="371"/>
      <point x="417" y="385" type="curve"/>
      <point x="416" y="386" type="line"/>
      <point x="399" y="376"/>
      <point x="384" y="370"/>
      <point x="371" y="370" type="curve" smooth="yes"/>
      <point x="355" y="370"/>
      <point x="347" y="380"/>
      <point x="347" y="400" type="curve" smooth="yes"/>
      <point x="347" y="604" type="line" smooth="yes"/>
      <point x="347" y="687"/>
      <point x="309" y="722"/>
      <point x="218" y="722" type="curve" smooth="yes"/>
      <point x="134" y="722"/>
      <point x="66" y="685"/>
      <point x="66" y="640" type="curve" smooth="yes"/>
      <point x="66" y="617"/>
      <point x="83" y="600"/>
      <point x="106" y="600" type="curve" smooth="yes"/>
      <point x="127" y="600"/>
      <point x="143" y="613"/>
      <point x="143" y="632" type="curve" smooth="yes"/>
      <point x="143" y="654"/>
      <point x="118" y="673"/>
      <point x="118" y="688" type="curve" smooth="yes"/>
      <point x="118" y="705"/>
      <point x="157" y="720"/>
      <point x="200" y="720" type="curve" smooth="yes"/>
      <point x="246" y="720"/>
      <point x="267" y="699"/>
      <point x="267" y="651" type="curve" smooth="yes"/>
      <point x="267" y="600" type="line" smooth="yes"/>
      <point x="267" y="537"/>
      <point x="50" y="564"/>
      <point x="50" y="445" type="curve" smooth="yes"/>
      <point x="50" y="393"/>
      <point x="90" y="360"/>
    </contour>
    <contour>
      <point x="191" y="380" type="curve" smooth="yes"/>
      <point x="153" y="380"/>
      <point x="131" y="405"/>
      <point x="131" y="448" type="curve" smooth="yes"/>
      <point x="131" y="548"/>
      <point x="256" y="548"/>
      <point x="267" y="594" type="curve"/>
      <point x="267" y="422" type="line"/>
      <point x="247" y="395"/>
      <point x="220" y="380"/>
    </contour>
  </outline>
</glyph>
<glyph name="logicalnot" format="2">
  <advance width="647"/>
  <unicode hex="00AC"/>
  <outline>
    <contour>
      <point x="573" y="61" type="line"/>
      <point x="574" y="61" type="line"/>
      <point x="574" y="266" type="line"/>
      <point x="73" y="266" type="line"/>
      <point x="73" y="265" type="line"/>
      <point x="573" y="265" type="line"/>
    </contour>
  </outline>
</glyph>
<glyph name="registered" format="2">
  <advance width="699"/>
  <unicode hex="00AE"/>
  <outline>
    <contour>
      <point x="350" y="224" type="curve" smooth="yes"/>
      <point x="504" y="224"/>
      <point x="629" y="349"/>
      <point x="629" y="503" type="curve" smooth="yes"/>
      <point x="629" y="657"/>
      <point x="504" y="782"/>
      <point x="350" y="782" type="curve" smooth="yes"/>
      <point x="196" y="782"/>
      <point x="71" y="657"/>
      <point x="71" y="503" type="curve" smooth="yes"/>
      <point x="71" y="349"/>
      <point x="196" y="224"/>
    </contour>
    <contour>
      <point x="350" y="225" type="curve" smooth="yes"/>
      <point x="197" y="225"/>
      <point x="72" y="350"/>
      <point x="72" y="503" type="curve" smooth="yes"/>
      <point x="72" y="657"/>
      <point x="197" y="781"/>
      <point x="350" y="781" type="curve" smooth="yes"/>
      <point x="504" y="781"/>
      <point x="628" y="657"/>
      <point x="628" y="503" type="curve" smooth="yes"/>
      <point x="628" y="350"/>
      <point x="504" y="225"/>
    </contour>
    <contour>
      <point x="205" y="352" type="line"/>
      <point x="216" y="353"/>
      <point x="224" y="353"/>
      <point x="275" y="353" type="curve" smooth="yes"/>
      <point x="332" y="353"/>
      <point x="339" y="353"/>
      <point x="348" y="352" type="curve"/>
      <point x="348" y="353" type="line"/>
      <point x="311" y="356"/>
      <point x="305" y="361"/>
      <point x="305" y="390" type="curve" smooth="yes"/>
      <point x="305" y="675" type="line"/>
      <point x="337" y="675" type="line" smooth="yes"/>
      <point x="388" y="675"/>
      <point x="410" y="651"/>
      <point x="410" y="596" type="curve" smooth="yes"/>
      <point x="410" y="540"/>
      <point x="387" y="514"/>
      <point x="339" y="514" type="curve" smooth="yes"/>
      <point x="276" y="514" type="line"/>
      <point x="276" y="513" type="line"/>
      <point x="346" y="513" type="line" smooth="yes"/>
      <point x="424" y="513"/>
      <point x="470" y="545"/>
      <point x="470" y="599" type="curve" smooth="yes"/>
      <point x="470" y="648"/>
      <point x="430" y="676"/>
      <point x="359" y="676" type="curve" smooth="yes"/>
      <point x="346" y="676"/>
      <point x="310" y="676"/>
      <point x="273" y="676" type="curve" smooth="yes"/>
      <point x="228" y="676"/>
      <point x="216" y="676"/>
      <point x="205" y="676" type="curve"/>
      <point x="205" y="675" type="line"/>
      <point x="242" y="673"/>
      <point x="248" y="668"/>
      <point x="248" y="637" type="curve" smooth="yes"/>
      <point x="248" y="390" type="line" smooth="yes"/>
      <point x="248" y="361"/>
      <point x="242" y="356"/>
      <point x="205" y="353" type="curve"/>
    </contour>
    <contour>
      <point x="463" y="344" type="curve" smooth="yes"/>
      <point x="491" y="344"/>
      <point x="508" y="354"/>
      <point x="519" y="374" type="curve"/>
      <point x="518" y="375" type="line"/>
      <point x="511" y="363"/>
      <point x="504" y="357"/>
      <point x="496" y="357" type="curve" smooth="yes"/>
      <point x="484" y="357"/>
      <point x="475" y="368"/>
      <point x="471" y="387" type="curve" smooth="yes"/>
      <point x="463" y="424" type="line" smooth="yes"/>
      <point x="448" y="494"/>
      <point x="420" y="514"/>
      <point x="339" y="514" type="curve"/>
      <point x="335" y="514" type="line"/>
      <point x="336" y="513" type="line"/>
      <point x="381" y="513"/>
      <point x="384" y="497"/>
      <point x="393" y="459" type="curve" smooth="yes"/>
      <point x="410" y="385" type="line" smooth="yes"/>
      <point x="417" y="356"/>
      <point x="433" y="344"/>
    </contour>
  </outline>
</glyph>
<glyph name="degree" format="2">
  <advance width="332"/>
  <unicode hex="00B0"/>
  <outline>
    <contour>
      <point x="166" y="539" type="curve" smooth="yes"/>
      <point x="230" y="539"/>
      <point x="287" y="584"/>
      <point x="287" y="660" type="curve" smooth="yes"/>
      <point x="287" y="736"/>
      <point x="230" y="781"/>
      <point x="166" y="781" type="curve" smooth="yes"/>
      <point x="102" y="781"/>
      <point x="45" y="736"/>
      <point x="45" y="660" type="curve" smooth="yes"/>
      <point x="45" y="584"/>
      <point x="102" y="539"/>
    </contour>
    <contour>
      <point x="166" y="540" type="curve" smooth="yes"/>
      <point x="102" y="540"/>
      <point x="46" y="585"/>
      <point x="46" y="660" type="curve" smooth="yes"/>
      <point x="46" y="735"/>
      <point x="102" y="780"/>
      <point x="166" y="780" type="curve" smooth="yes"/>
      <point x="230" y="780"/>
      <point x="286" y="735"/>
      <point x="286" y="660" type="curve" smooth="yes"/>
      <point x="286" y="585"/>
      <point x="230" y="540"/>
    </contour>
  </outline>
</glyph>
<glyph name="paragraph" format="2">
  <advance width="666"/>
  <unicode hex="00B6"/>
  <outline>
    <contour>
      <point x="351" y="-231" type="line"/>
      <point x="383" y="-229"/>
      <point x="441" y="-228"/>
      <point x="494" y="-228" type="curve" smooth="yes"/>
      <point x="547" y="-228"/>
      <point x="595" y="-229"/>
      <point x="626" y="-231" type="curve"/>
      <point x="626" y="-230" type="line"/>
      <point x="558" y="-225"/>
      <point x="545" y="-217"/>
      <point x="545" y="-144" type="curve" smooth="yes"/>
      <point x="545" y="639" type="line" smooth="yes"/>
      <point x="545" y="683"/>
      <point x="557" y="702"/>
      <point x="622" y="707" type="curve"/>
      <point x="622" y="708" type="line"/>
      <point x="566" y="705"/>
      <point x="480" y="709"/>
      <point x="419" y="709" type="curve" smooth="yes"/>
      <point x="185" y="709"/>
      <point x="53" y="605"/>
      <point x="53" y="431" type="curve" smooth="yes"/>
      <point x="53" y="277"/>
      <point x="157" y="147"/>
      <point x="452" y="147" type="curve"/>
      <point x="452" y="-134" type="line" smooth="yes"/>
      <point x="452" y="-205"/>
      <point x="435" y="-225"/>
      <point x="351" y="-230" type="curve"/>
    </contour>
    <contour>
      <point x="452" y="170" type="line"/>
      <point x="446" y="170"/>
      <point x="444" y="237"/>
      <point x="443" y="419" type="curve"/>
      <point x="295" y="274"/>
      <point x="264" y="246"/>
      <point x="258" y="243" type="curve"/>
      <point x="259" y="251"/>
      <point x="290" y="281"/>
      <point x="438" y="427" type="curve"/>
      <point x="210" y="427"/>
      <point x="153" y="428"/>
      <point x="147" y="431" type="curve"/>
      <point x="153" y="435"/>
      <point x="210" y="436"/>
      <point x="438" y="436" type="curve"/>
      <point x="291" y="580"/>
      <point x="261" y="611"/>
      <point x="258" y="617" type="curve"/>
      <point x="266" y="616"/>
      <point x="296" y="586"/>
      <point x="443" y="444" type="curve"/>
      <point x="442" y="628"/>
      <point x="446" y="686"/>
      <point x="452" y="686" type="curve"/>
    </contour>
  </outline>
</glyph>
<glyph name="ordmasculine" format="2">
  <advance width="454"/>
  <unicode hex="00BA"/>
  <outline>
    <contour>
      <point x="227" y="360" type="curve" smooth="yes"/>
      <point x="315" y="360"/>
      <point x="404" y="422"/>
      <point x="404" y="541" type="curve" smooth="yes"/>
      <point x="404" y="660"/>
      <point x="315" y="722"/>
      <point x="227" y="722" type="curve" smooth="yes"/>
      <point x="139" y="722"/>
      <point x="50" y="660"/>
      <point x="50" y="541" type="curve" smooth="yes"/>
      <point x="50" y="422"/>
      <point x="139" y="360"/>
    </contour>
    <contour>
      <point x="227" y="361" type="curve" smooth="yes"/>
      <point x="176" y="361"/>
      <point x="133" y="413"/>
      <point x="133" y="541" type="curve" smooth="yes"/>
      <point x="133" y="669"/>
      <point x="176" y="721"/>
      <point x="227" y="721" type="curve" smooth="yes"/>
      <point x="278" y="721"/>
      <point x="321" y="669"/>
      <point x="321" y="541" type="curve" smooth="yes"/>
      <point x="321" y="413"/>
      <point x="278" y="361"/>
    </contour>
  </outline>
</glyph>
<glyph name="AE" format="2">
  <advance width="884"/>
  <unicode hex="00C6"/>
  <anchor x="412" y="0" name="bottom"/>
  <anchor x="427" y="708" name="top"/>
  <anchor x="427" y="688" name="top_low_1"/>
  <anchor x="427" y="668" name="top_low_2"/>
  <anchor x="427" y="648" name="top_low_3"/>
  <outline>
    <contour>
      <point x="-10" y="0" type="line"/>
      <point x="5" y="2"/>
      <point x="30" y="3"/>
      <point x="57" y="3" type="curve" smooth="yes"/>
      <point x="97" y="3"/>
      <point x="137" y="2"/>
      <point x="198" y="0" type="curve"/>
      <point x="198" y="1" type="line"/>
      <point x="27" y="8"/>
      <point x="101" y="127"/>
      <point x="149" y="205" type="curve" smooth="yes"/>
      <point x="500" y="772" type="line"/>
      <point x="499" y="772" type="line"/>
      <point x="104" y="135" type="line" smooth="yes"/>
      <point x="44" y="39"/>
      <point x="17" y="7"/>
      <point x="-10" y="1" type="curve"/>
    </contour>
    <contour>
      <point x="241" y="356" type="line"/>
      <point x="602" y="356" type="line"/>
      <point x="602" y="357" type="line"/>
      <point x="242" y="357" type="line"/>
    </contour>
    <contour>
      <point x="454" y="3" type="curve"/>
      <point x="466" y="3" type="line"/>
      <point x="577" y="3" type="line"/>
      <point x="686" y="3"/>
      <point x="756" y="2"/>
      <point x="806" y="0" type="curve"/>
      <point x="807" y="72"/>
      <point x="812" y="147"/>
      <point x="822" y="230" type="curve"/>
      <point x="821" y="230" type="line"/>
      <point x="775" y="48"/>
      <point x="735" y="4"/>
      <point x="615" y="4" type="curve"/>
      <point x="592" y="4" type="line" smooth="yes"/>
      <point x="522" y="4"/>
      <point x="511" y="16"/>
      <point x="511" y="87" type="curve" smooth="yes"/>
      <point x="511" y="704" type="line"/>
      <point x="575" y="704" type="line"/>
      <point x="693" y="704"/>
      <point x="733" y="666"/>
      <point x="778" y="508" type="curve"/>
      <point x="779" y="508" type="line"/>
      <point x="770" y="580"/>
      <point x="766" y="645"/>
      <point x="766" y="708" type="curve"/>
      <point x="727" y="706"/>
      <point x="672" y="705"/>
      <point x="587" y="705" type="curve"/>
      <point x="466" y="705" type="line"/>
      <point x="454" y="705" type="line"/>
      <point x="401" y="705"/>
      <point x="361" y="707"/>
      <point x="337" y="708" type="curve"/>
      <point x="337" y="707" type="line"/>
      <point x="353" y="705" type="line"/>
      <point x="409" y="698"/>
      <point x="418" y="686"/>
      <point x="418" y="621" type="curve"/>
      <point x="418" y="87" type="line"/>
      <point x="418" y="22"/>
      <point x="409" y="10"/>
      <point x="353" y="3" type="curve"/>
      <point x="337" y="1" type="line"/>
      <point x="337" y="0" type="line"/>
      <point x="361" y="1"/>
      <point x="401" y="3"/>
    </contour>
    <contour>
      <point x="705" y="204" type="curve"/>
      <point x="706" y="204" type="line"/>
      <point x="701" y="270"/>
      <point x="700" y="308"/>
      <point x="700" y="356" type="curve" smooth="yes"/>
      <point x="700" y="391"/>
      <point x="698" y="427"/>
      <point x="703" y="508" type="curve"/>
      <point x="702" y="508" type="line"/>
      <point x="688" y="395"/>
      <point x="656" y="357"/>
      <point x="577" y="357" type="curve"/>
      <point x="577" y="356" type="line"/>
      <point x="663" y="356"/>
      <point x="693" y="321"/>
    </contour>
  </outline>
</glyph>
<glyph name="multiply" format="2">
  <advance width="511"/>
  <unicode hex="00D7"/>
  <outline>
    <contour>
      <point x="72" y="81" type="line"/>
      <point x="257" y="266" type="line"/>
      <point x="440" y="83" type="line"/>
      <point x="441" y="84" type="line"/>
      <point x="258" y="267" type="line"/>
      <point x="441" y="449" type="line"/>
      <point x="440" y="450" type="line"/>
      <point x="257" y="268" type="line"/>
      <point x="71" y="453" type="line"/>
      <point x="70" y="452" type="line"/>
      <point x="256" y="267" type="line"/>
      <point x="71" y="82" type="line"/>
    </contour>
  </outline>
</glyph>
<glyph name="germandbls" format="2">
  <advance width="612"/>
  <unicode hex="00DF"/>
  <outline>
    <contour>
      <point x="375" y="-14" type="curve" smooth="yes"/>
      <point x="491" y="-14"/>
      <point x="578" y="76"/>
      <point x="578" y="196" type="curve" smooth="yes"/>
      <point x="578" y="318"/>
      <point x="494" y="403"/>
      <point x="346" y="431" type="curve"/>
      <point x="445" y="478"/>
      <point x="497" y="546"/>
      <point x="497" y="630" type="curve" smooth="yes"/>
      <point x="497" y="724"/>
      <point x="425" y="782"/>
      <point x="309" y="782" type="curve" smooth="yes"/>
      <point x="172" y="782"/>
      <point x="105" y="702"/>
      <point x="105" y="538" type="curve" smooth="yes"/>
      <point x="105" y="73" type="line"/>
      <point x="105" y="24"/>
      <point x="90" y="8"/>
      <point x="38" y="2" type="curve"/>
      <point x="29" y="1" type="line"/>
      <point x="29" y="0" type="line"/>
      <point x="60" y="2"/>
      <point x="73" y="2"/>
      <point x="89" y="2" type="curve"/>
      <point x="130" y="2"/>
      <point x="167" y="-2"/>
      <point x="195" y="-12" type="curve"/>
      <point x="195" y="0" type="line"/>
      <point x="195" y="624" type="line" smooth="yes"/>
      <point x="195" y="728"/>
      <point x="231" y="780"/>
      <point x="303" y="780" type="curve" smooth="yes"/>
      <point x="374" y="780"/>
      <point x="409" y="727"/>
      <point x="409" y="619" type="curve" smooth="yes"/>
      <point x="409" y="539"/>
      <point x="390" y="483"/>
      <point x="346" y="432" type="curve"/>
      <point x="328" y="435"/>
      <point x="317" y="437"/>
      <point x="307" y="437" type="curve" smooth="yes"/>
      <point x="295" y="437"/>
      <point x="287" y="434"/>
      <point x="287" y="429" type="curve" smooth="yes"/>
      <point x="287" y="424"/>
      <point x="293" y="421"/>
      <point x="303" y="421" type="curve" smooth="yes"/>
      <point x="313" y="421"/>
      <point x="327" y="425"/>
      <point x="346" y="430" type="curve"/>
      <point x="433" y="402"/>
      <point x="481" y="316"/>
      <point x="481" y="188" type="curve" smooth="yes"/>
      <point x="481" y="63"/>
      <point x="436" y="-12"/>
      <point x="361" y="-12" type="curve" smooth="yes"/>
      <point x="344" y="-12"/>
      <point x="333" y="-4"/>
      <point x="333" y="8" type="curve" smooth="yes"/>
      <point x="333" y="30"/>
      <point x="358" y="57"/>
      <point x="358" y="86" type="curve" smooth="yes"/>
      <point x="358" y="110"/>
      <point x="341" y="127"/>
      <point x="315" y="127" type="curve" smooth="yes"/>
      <point x="285" y="127"/>
      <point x="263" y="103"/>
      <point x="263" y="70" type="curve" smooth="yes"/>
      <point x="263" y="22"/>
      <point x="311" y="-14"/>
    </contour>
  </outline>
</glyph>
<glyph name="ae" format="2">
  <advance width="774"/>
  <unicode hex="00E6"/>
  <anchor x="408" y="0" name="bottom"/>
  <anchor x="621" y="0" name="ogonek"/>
  <anchor x="402" y="512" name="top"/>
  <outline>
    <contour>
      <point x="539" y="-14" type="curve" smooth="yes"/>
      <point x="624" y="-14"/>
      <point x="691" y="39"/>
      <point x="716" y="125" type="curve"/>
      <point x="715" y="125" type="line"/>
      <point x="690" y="41"/>
      <point x="633" y="1"/>
      <point x="575" y="1" type="curve" smooth="yes"/>
      <point x="489" y="1"/>
      <point x="438" y="100"/>
      <point x="438" y="255" type="curve" smooth="yes"/>
      <point x="438" y="285"/>
      <point x="438" y="296"/>
      <point x="439" y="318" type="curve"/>
      <point x="439" y="319" type="line"/>
      <point x="447" y="467"/>
      <point x="494" y="528"/>
      <point x="542" y="528" type="curve" smooth="yes"/>
      <point x="604" y="528"/>
      <point x="631" y="432"/>
      <point x="628" y="319" type="curve"/>
      <point x="410" y="319" type="line"/>
      <point x="411" y="318" type="line"/>
      <point x="724" y="318" type="line"/>
      <point x="724" y="463"/>
      <point x="653" y="529"/>
      <point x="548" y="529" type="curve" smooth="yes"/>
      <point x="422" y="529"/>
      <point x="348" y="415"/>
      <point x="348" y="257" type="curve" smooth="yes"/>
      <point x="348" y="93"/>
      <point x="426" y="-14"/>
    </contour>
    <contour>
      <point x="248" y="16" type="curve" smooth="yes"/>
      <point x="194" y="16"/>
      <point x="161" y="55"/>
      <point x="161" y="120" type="curve" smooth="yes"/>
      <point x="161" y="252"/>
      <point x="332" y="266"/>
      <point x="348" y="329" type="curve"/>
      <point x="348" y="257" type="line"/>
      <point x="373" y="128" type="line"/>
      <point x="341" y="48"/>
      <point x="298" y="16"/>
    </contour>
    <contour>
      <point x="198" y="-14" type="curve" smooth="yes"/>
      <point x="263" y="-14"/>
      <point x="332" y="18"/>
      <point x="374" y="128" type="curve"/>
      <point x="438" y="351" type="line"/>
      <point x="438" y="476"/>
      <point x="392" y="529"/>
      <point x="279" y="529" type="curve" smooth="yes"/>
      <point x="174" y="529"/>
      <point x="90" y="477"/>
      <point x="90" y="412" type="curve" smooth="yes"/>
      <point x="90" y="380"/>
      <point x="110" y="358"/>
      <point x="140" y="358" type="curve" smooth="yes"/>
      <point x="167" y="358"/>
      <point x="185" y="375"/>
      <point x="185" y="399" type="curve" smooth="yes"/>
      <point x="185" y="431"/>
      <point x="155" y="458"/>
      <point x="155" y="479" type="curve" smooth="yes"/>
      <point x="155" y="504"/>
      <point x="203" y="526"/>
      <point x="257" y="526" type="curve" smooth="yes"/>
      <point x="318" y="526"/>
      <point x="348" y="493"/>
      <point x="348" y="427" type="curve" smooth="yes"/>
      <point x="348" y="339" type="line" smooth="yes"/>
      <point x="348" y="245"/>
      <point x="67" y="279"/>
      <point x="67" y="105" type="curve" smooth="yes"/>
      <point x="67" y="32"/>
      <point x="117" y="-14"/>
    </contour>
  </outline>
</glyph>
<glyph name="eth" format="2">
  <advance width="565"/>
  <unicode hex="00F0"/>
  <outline>
    <contour>
      <point x="277" y="-14" type="curve" smooth="yes"/>
      <point x="420" y="-14"/>
      <point x="509" y="99"/>
      <point x="509" y="285" type="curve" smooth="yes"/>
      <point x="509" y="505"/>
      <point x="385" y="685"/>
      <point x="149" y="782" type="curve"/>
      <point x="148" y="781" type="line"/>
      <point x="327" y="688"/>
      <point x="414" y="537"/>
      <point x="414" y="280" type="curve" smooth="yes"/>
      <point x="414" y="86"/>
      <point x="364" y="-13"/>
      <point x="281" y="-13" type="curve" smooth="yes"/>
      <point x="198" y="-13"/>
      <point x="154" y="88"/>
      <point x="154" y="248" type="curve" smooth="yes"/>
      <point x="154" y="425"/>
      <point x="208" y="517"/>
      <point x="301" y="517" type="curve" smooth="yes"/>
      <point x="353" y="517"/>
      <point x="400" y="488"/>
      <point x="409" y="452" type="curve"/>
      <point x="410" y="451" type="line"/>
      <point x="399" y="496"/>
      <point x="340" y="529"/>
      <point x="269" y="529" type="curve" smooth="yes"/>
      <point x="144" y="529"/>
      <point x="57" y="427"/>
      <point x="57" y="256" type="curve" smooth="yes"/>
      <point x="57" y="88"/>
      <point x="141" y="-14"/>
    </contour>
    <contour>
      <point x="116" y="607" type="line"/>
      <point x="289" y="691" type="line"/>
      <point x="290" y="693" type="line"/>
      <point x="115" y="608" type="line"/>
    </contour>
    <contour>
      <point x="289" y="691" type="line"/>
      <point x="463" y="776" type="line"/>
      <point x="462" y="777" type="line"/>
      <point x="290" y="693" type="line"/>
    </contour>
  </outline>
</glyph>
<glyph name="divide" format="2">
  <advance width="647"/>
  <unicode hex="00F7"/>
  <outline>
    <contour>
      <point x="323" y="46" type="curve" smooth="yes"/>
      <point x="354" y="46"/>
      <point x="379" y="71"/>
      <point x="379" y="102" type="curve" smooth="yes"/>
      <point x="379" y="132"/>
      <point x="354" y="157"/>
      <point x="323" y="157" type="curve" smooth="yes"/>
      <point x="293" y="157"/>
      <point x="268" y="132"/>
      <point x="268" y="102" type="curve" smooth="yes"/>
      <point x="268" y="71"/>
      <point x="293" y="46"/>
    </contour>
    <contour>
      <point x="323" y="375" type="curve" smooth="yes"/>
      <point x="354" y="375"/>
      <point x="379" y="399"/>
      <point x="379" y="430" type="curve" smooth="yes"/>
      <point x="379" y="460"/>
      <point x="354" y="485"/>
      <point x="323" y="485" type="curve" smooth="yes"/>
      <point x="293" y="485"/>
      <point x="268" y="460"/>
      <point x="268" y="430" type="curve" smooth="yes"/>
      <point x="268" y="399"/>
      <point x="293" y="375"/>
    </contour>
    <component base="minus"/>
  </outline>
</glyph>
<glyph name="Aogonek" format="2">
  <advance width="687"/>
  <unicode hex="0104"/>
  <anchor x="334" y="354" name="center"/>
  <anchor x="333" y="708" name="top"/>
  <anchor x="333" y="688" name="top_low_1"/>
  <anchor x="333" y="668" name="top_low_2"/>
  <anchor x="333" y="648" name="top_low_3"/>
  <outline>
    <contour>
      <point x="117" y="146" type="curve"/>
      <point x="298" y="624" type="line"/>
      <point x="287" y="597" type="line"/>
      <point x="504" y="32" type="line"/>
      <point x="524" y="-19"/>
      <point x="521" y="-36"/>
      <point x="485" y="-61" type="curve"/>
      <point x="406" y="-120"/>
      <point x="378" y="-150"/>
      <point x="378" y="-183" type="curve"/>
      <point x="378" y="-217"/>
      <point x="406" y="-238"/>
      <point x="452" y="-238" type="curve"/>
      <point x="501" y="-238"/>
      <point x="544" y="-215"/>
      <point x="572" y="-171" type="curve"/>
      <point x="571" y="-170" type="line"/>
      <point x="552" y="-198"/>
      <point x="523" y="-216"/>
      <point x="497" y="-215" type="curve"/>
      <point x="467" y="-215"/>
      <point x="451" y="-193"/>
      <point x="452" y="-158" type="curve"/>
      <point x="452" y="-59"/>
      <point x="539" y="2"/>
      <point x="678" y="0" type="curve"/>
      <point x="678" y="1" type="line"/>
      <point x="624" y="4"/>
      <point x="606" y="16"/>
      <point x="587" y="65" type="curve"/>
      <point x="335" y="723" type="line"/>
      <point x="334" y="723" type="line"/>
      <point x="110" y="135" type="line"/>
      <point x="77" y="45"/>
      <point x="46" y="13"/>
      <point x="-4" y="3" type="curve"/>
      <point x="-14" y="1" type="line"/>
      <point x="-14" y="0" type="line"/>
      <point x="3" y="1"/>
      <point x="30" y="3"/>
      <point x="71" y="3" type="curve"/>
      <point x="108" y="3"/>
      <point x="169" y="2"/>
      <point x="211" y="0" type="curve"/>
      <point x="211" y="1" type="line"/>
      <point x="201" y="2" type="line"/>
      <point x="113" y="11"/>
      <point x="85" y="60"/>
    </contour>
    <contour>
      <point x="166" y="277" type="line"/>
      <point x="464" y="277" type="line"/>
      <point x="464" y="278" type="line"/>
      <point x="166" y="278" type="line"/>
    </contour>
  </outline>
</glyph>
<glyph name="idotless" format="2">
  <advance width="293"/>
  <unicode hex="0131"/>
  <anchor x="105" y="256" name="#entry"/>
  <anchor x="195" y="256" name="#exit"/>
  <anchor x="-116" y="0" name="%entry"/>
  <anchor x="105" y="0" name="%exit"/>
  <anchor x="0" y="0" name="^entry"/>
  <anchor x="286" y="0" name="^exit"/>
  <anchor x="150" y="0" name="bottom"/>
  <anchor x="150" y="257" name="center"/>
  <anchor x="233" y="0" name="ogonek"/>
  <anchor x="105" y="256" name="stem"/>
  <anchor x="150" y="512" name="top"/>
  <anchor x="150" y="492" name="top_low_1"/>
  <anchor x="150" y="472" name="top_low_2"/>
  <anchor x="150" y="452" name="top_low_3"/>
  <anchor x="195" y="514" name="topright"/>
  <outline>
    <contour>
      <point x="105" y="256" type="line"/>
      <point x="195" y="256" type="line"/>
      <point x="195" y="514" type="line"/>
      <point x="195" y="526" type="line"/>
      <point x="167" y="516"/>
      <point x="130" y="512"/>
      <point x="89" y="512" type="curve"/>
      <point x="73" y="512"/>
      <point x="60" y="512"/>
      <point x="29" y="514" type="curve"/>
      <point x="29" y="513" type="line"/>
      <point x="38" y="512" type="line"/>
      <point x="90" y="506"/>
      <point x="105" y="490"/>
      <point x="105" y="441" type="curve"/>
    </contour>
    <contour>
      <point x="150" y="3" type="curve"/>
      <point x="150" y="3" type="line"/>
      <point x="150" y="3" type="line"/>
      <point x="191" y="3"/>
      <point x="228" y="1"/>
      <point x="271" y="0" type="curve"/>
      <point x="271" y="1" type="line"/>
      <point x="260" y="2" type="line"/>
      <point x="212" y="6"/>
      <point x="195" y="23"/>
      <point x="195" y="73" type="curve"/>
      <point x="195" y="256" type="line"/>
      <point x="105" y="256" type="line"/>
      <point x="105" y="73" type="line"/>
      <point x="105" y="23"/>
      <point x="88" y="6"/>
      <point x="40" y="2" type="curve"/>
      <point x="29" y="1" type="line"/>
      <point x="29" y="0" type="line"/>
      <point x="72" y="1"/>
      <point x="109" y="3"/>
    </contour>
  </outline>
</glyph>
<glyph name="kgreenlandic" format="2">
  <advance width="579"/>
  <unicode hex="0138"/>
  <anchor x="105" y="256" name="#entry"/>
  <anchor x="195" y="256" name="#exit"/>
  <anchor x="105" y="0" name="^exit"/>
  <anchor x="105" y="256" name="stem"/>
  <anchor x="195" y="514" name="topright"/>
  <outline>
    <contour>
      <point x="105" y="256" type="line"/>
      <point x="195" y="256" type="line"/>
      <point x="195" y="514" type="line"/>
      <point x="195" y="526" type="line"/>
      <point x="167" y="516"/>
      <point x="130" y="512"/>
      <point x="89" y="512" type="curve"/>
      <point x="73" y="512"/>
      <point x="60" y="512"/>
      <point x="29" y="514" type="curve"/>
      <point x="29" y="513" type="line"/>
      <point x="38" y="512" type="line"/>
      <point x="90" y="506"/>
      <point x="105" y="490"/>
      <point x="105" y="441" type="curve"/>
    </contour>
    <component base="_LC-baseline-normal-narrow"/>
    <component base="_LC-k-legs" xOffset="159"/>
  </outline>
</glyph>
<glyph name="eng" format="2">
  <advance width="604"/>
  <unicode hex="014B"/>
  <anchor x="105" y="256" name="#entry"/>
  <anchor x="195" y="256" name="#exit"/>
  <anchor x="-116" y="0" name="%entry"/>
  <anchor x="105" y="0" name="%exit"/>
  <anchor x="0" y="0" name="^entry"/>
  <anchor x="286" y="0" name="^exit"/>
  <anchor x="316" y="0" name="bottom"/>
  <anchor x="195" y="256" name="reversedExit"/>
  <anchor x="105" y="256" name="stem"/>
  <anchor x="306" y="512" name="top"/>
  <anchor x="195" y="514" name="topright"/>
  <outline>
    <contour>
      <point x="150" y="3" type="curve"/>
      <point x="150" y="3" type="line"/>
      <point x="150" y="3" type="line"/>
      <point x="191" y="3"/>
      <point x="228" y="1"/>
      <point x="271" y="0" type="curve"/>
      <point x="271" y="1" type="line"/>
      <point x="260" y="2" type="line"/>
      <point x="212" y="6"/>
      <point x="195" y="23"/>
      <point x="195" y="73" type="curve"/>
      <point x="195" y="256" type="line"/>
      <point x="105" y="256" type="line"/>
      <point x="105" y="73" type="line"/>
      <point x="105" y="23"/>
      <point x="88" y="6"/>
      <point x="40" y="2" type="curve"/>
      <point x="29" y="1" type="line"/>
      <point x="29" y="0" type="line"/>
      <point x="72" y="1"/>
      <point x="109" y="3"/>
    </contour>
    <contour>
      <point x="105" y="256" type="line"/>
      <point x="195" y="256" type="line"/>
      <point x="195" y="514" type="line"/>
      <point x="195" y="526" type="line"/>
      <point x="167" y="516"/>
      <point x="130" y="512"/>
      <point x="89" y="512" type="curve"/>
      <point x="73" y="512"/>
      <point x="60" y="512"/>
      <point x="29" y="514" type="curve"/>
      <point x="29" y="513" type="line"/>
      <point x="38" y="512" type="line"/>
      <point x="90" y="506"/>
      <point x="105" y="490"/>
      <point x="105" y="441" type="curve"/>
    </contour>
    <contour>
      <point x="416" y="256" type="line"/>
      <point x="506" y="256" type="line"/>
      <point x="506" y="330" type="line" smooth="yes"/>
      <point x="506" y="458"/>
      <point x="452" y="529"/>
      <point x="353" y="529" type="curve" smooth="yes"/>
      <point x="262" y="529"/>
      <point x="203" y="485"/>
      <point x="170" y="395" type="curve"/>
      <point x="171" y="394" type="line"/>
      <point x="201" y="472"/>
      <point x="251" y="514"/>
      <point x="313" y="514" type="curve" smooth="yes"/>
      <point x="382" y="514"/>
      <point x="416" y="458"/>
      <point x="416" y="346" type="curve" smooth="yes"/>
    </contour>
    <contour>
      <point x="257" y="-239" type="line"/>
      <point x="458" y="-239"/>
      <point x="506" y="-132"/>
      <point x="506" y="45" type="curve" smooth="yes"/>
      <point x="506" y="256" type="line"/>
      <point x="416" y="256" type="line"/>
      <point x="416" y="3" type="line" smooth="yes"/>
      <point x="416" y="-167"/>
      <point x="365" y="-234"/>
      <point x="257" y="-238" type="curve"/>
    </contour>
  </outline>
</glyph>
<glyph name="OE" format="2">
  <advance width="958"/>
  <unicode hex="0152"/>
  <anchor x="473" y="0" name="bottom"/>
  <anchor x="464" y="708" name="top"/>
  <anchor x="464" y="688" name="top_low_1"/>
  <anchor x="464" y="668" name="top_low_2"/>
  <anchor x="464" y="648" name="top_low_3"/>
  <outline>
    <contour>
      <point x="369" y="-14" type="curve" smooth="yes"/>
      <point x="434" y="-14"/>
      <point x="447" y="2"/>
      <point x="537" y="2" type="curve" smooth="yes"/>
      <point x="581" y="2"/>
      <point x="549" y="3"/>
      <point x="642" y="3" type="curve" smooth="yes"/>
      <point x="670" y="3" type="line"/>
      <point x="770" y="3"/>
      <point x="834" y="2"/>
      <point x="880" y="0" type="curve"/>
      <point x="881" y="73"/>
      <point x="886" y="149"/>
      <point x="896" y="234" type="curve"/>
      <point x="895" y="234" type="line"/>
      <point x="854" y="49"/>
      <point x="817" y="4"/>
      <point x="709" y="4" type="curve"/>
      <point x="666" y="4" type="line" smooth="yes"/>
      <point x="596" y="4"/>
      <point x="585" y="16"/>
      <point x="585" y="87" type="curve" smooth="yes"/>
      <point x="585" y="704" type="line"/>
      <point x="683" y="704" type="line"/>
      <point x="801" y="704"/>
      <point x="841" y="666"/>
      <point x="886" y="508" type="curve"/>
      <point x="887" y="508" type="line"/>
      <point x="878" y="580"/>
      <point x="874" y="645"/>
      <point x="874" y="708" type="curve"/>
      <point x="835" y="706"/>
      <point x="780" y="705"/>
      <point x="695" y="706" type="curve"/>
      <point x="538" y="706" type="line" smooth="yes"/>
      <point x="418" y="706"/>
      <point x="424" y="722"/>
      <point x="367" y="722" type="curve" smooth="yes"/>
      <point x="181" y="722"/>
      <point x="53" y="568"/>
      <point x="53" y="344" type="curve" smooth="yes"/>
      <point x="53" y="125"/>
      <point x="176" y="-14"/>
    </contour>
    <contour>
      <point x="371" y="-13" type="curve" smooth="yes"/>
      <point x="243" y="-13"/>
      <point x="153" y="141"/>
      <point x="153" y="358" type="curve" smooth="yes"/>
      <point x="153" y="576"/>
      <point x="241" y="721"/>
      <point x="373" y="721" type="curve" smooth="yes"/>
      <point x="446" y="721"/>
      <point x="492" y="681"/>
      <point x="492" y="619" type="curve" smooth="yes"/>
      <point x="492" y="89" type="line" smooth="yes"/>
      <point x="492" y="29"/>
      <point x="442" y="-13"/>
    </contour>
    <contour>
      <point x="555" y="356" type="line"/>
      <point x="726" y="356" type="line"/>
      <point x="726" y="357" type="line"/>
      <point x="555" y="357" type="line"/>
    </contour>
    <contour>
      <point x="779" y="204" type="curve"/>
      <point x="780" y="204" type="line"/>
      <point x="775" y="270"/>
      <point x="774" y="308"/>
      <point x="774" y="356" type="curve" smooth="yes"/>
      <point x="774" y="391"/>
      <point x="772" y="427"/>
      <point x="777" y="508" type="curve"/>
      <point x="776" y="508" type="line"/>
      <point x="762" y="395"/>
      <point x="730" y="357"/>
      <point x="651" y="357" type="curve"/>
      <point x="651" y="356" type="line"/>
      <point x="737" y="356"/>
      <point x="767" y="321"/>
    </contour>
  </outline>
</glyph>
<glyph name="oe" format="2">
  <advance width="848"/>
  <unicode hex="0153"/>
  <anchor x="430" y="0" name="bottom"/>
  <anchor x="437" y="512" name="top"/>
  <outline>
    <contour>
      <point x="269" y="-14" type="curve" smooth="yes"/>
      <point x="393" y="-14"/>
      <point x="466" y="86"/>
      <point x="466" y="257" type="curve" smooth="yes"/>
      <point x="466" y="428"/>
      <point x="393" y="528"/>
      <point x="269" y="528" type="curve" smooth="yes"/>
      <point x="135" y="528"/>
      <point x="57" y="429"/>
      <point x="57" y="257" type="curve" smooth="yes"/>
      <point x="57" y="85"/>
      <point x="135" y="-14"/>
    </contour>
    <contour>
      <point x="269" y="-13" type="curve" smooth="yes"/>
      <point x="194" y="-13"/>
      <point x="154" y="81"/>
      <point x="154" y="257" type="curve" smooth="yes"/>
      <point x="154" y="433"/>
      <point x="194" y="527"/>
      <point x="269" y="527" type="curve" smooth="yes"/>
      <point x="344" y="527"/>
      <point x="384" y="433"/>
      <point x="384" y="257" type="curve" smooth="yes"/>
      <point x="384" y="81"/>
      <point x="344" y="-13"/>
    </contour>
    <contour>
      <point x="607" y="-14" type="curve" smooth="yes"/>
      <point x="699" y="-14"/>
      <point x="771" y="39"/>
      <point x="798" y="125" type="curve"/>
      <point x="797" y="125" type="line"/>
      <point x="771" y="48"/>
      <point x="713" y="1"/>
      <point x="643" y="1" type="curve" smooth="yes"/>
      <point x="543" y="1"/>
      <point x="481" y="98"/>
      <point x="481" y="255" type="curve" smooth="yes"/>
      <point x="481" y="292"/>
      <point x="481" y="303"/>
      <point x="482" y="317" type="curve"/>
      <point x="482" y="318" type="line"/>
      <point x="490" y="447"/>
      <point x="537" y="528"/>
      <point x="605" y="528" type="curve" smooth="yes"/>
      <point x="667" y="528"/>
      <point x="704" y="447"/>
      <point x="701" y="318" type="curve"/>
      <point x="443" y="318" type="line"/>
      <point x="444" y="317" type="line"/>
      <point x="797" y="317" type="line"/>
      <point x="797" y="453"/>
      <point x="731" y="529"/>
      <point x="611" y="529" type="curve" smooth="yes"/>
      <point x="479" y="529"/>
      <point x="394" y="422"/>
      <point x="394" y="257" type="curve" smooth="yes"/>
      <point x="394" y="95"/>
      <point x="480" y="-14"/>
    </contour>
  </outline>
</glyph>
<glyph name="bstroke" format="2">
  <advance width="591"/>
  <unicode hex="0180"/>
  <anchor x="188" y="256" name="#entry"/>
  <anchor x="188" y="256" name="#exit"/>
  <anchor x="305" y="255" name="center"/>
  <anchor x="265" y="512" name="top"/>
  <anchor x="98" y="512" name="top-left"/>
  <outline>
    <contour>
      <point x="333" y="526" type="curve" smooth="yes"/>
      <point x="250" y="526"/>
      <point x="196" y="483"/>
      <point x="175" y="431" type="curve"/>
      <point x="176" y="431" type="line"/>
      <point x="197" y="478"/>
      <point x="237" y="511"/>
      <point x="296" y="511" type="curve" smooth="yes"/>
      <point x="385" y="511"/>
      <point x="437" y="416"/>
      <point x="437" y="255" type="curve" smooth="yes"/>
      <point x="437" y="91"/>
      <point x="383" y="-5"/>
      <point x="290" y="-5" type="curve" smooth="yes"/>
      <point x="231" y="-5"/>
      <point x="190" y="29"/>
      <point x="182" y="60" type="curve"/>
      <point x="181" y="61" type="line"/>
      <point x="186" y="30"/>
      <point x="237" y="-17"/>
      <point x="313" y="-17" type="curve" smooth="yes"/>
      <point x="450" y="-17"/>
      <point x="534" y="83"/>
      <point x="534" y="255" type="curve" smooth="yes"/>
      <point x="534" y="426"/>
      <point x="458" y="526"/>
    </contour>
    <component base="_LC-baseline-left-instroke"/>
    <component base="_LC-ascender-serifless" xOffset="-7"/>
    <component base="strokeshortcomb" xOffset="-29" yOffset="368"/>
  </outline>
</glyph>
<glyph name="Bhook" format="2">
  <advance width="754"/>
  <unicode hex="0181"/>
  <anchor x="443" y="0" name="bottom"/>
  <anchor x="452" y="0" name="currency"/>
  <anchor x="443" y="708" name="top"/>
  <outline>
    <contour>
      <point x="294" y="3" type="curve"/>
      <point x="301" y="3" type="line"/>
      <point x="381" y="3"/>
      <point x="440" y="0"/>
      <point x="469" y="0" type="curve" smooth="yes"/>
      <point x="615" y="0"/>
      <point x="709" y="76"/>
      <point x="709" y="194" type="curve" smooth="yes"/>
      <point x="709" y="299"/>
      <point x="619" y="358"/>
      <point x="446" y="368" type="curve"/>
      <point x="446" y="369" type="line"/>
      <point x="573" y="386"/>
      <point x="657" y="458"/>
      <point x="657" y="550" type="curve" smooth="yes"/>
      <point x="657" y="648"/>
      <point x="577" y="708"/>
      <point x="446" y="708" type="curve" smooth="yes"/>
      <point x="403" y="708"/>
      <point x="340" y="705"/>
      <point x="299" y="705" type="curve"/>
      <point x="300" y="705" type="line"/>
      <point x="246" y="705"/>
      <point x="215" y="708"/>
      <point x="194" y="708" type="curve"/>
      <point x="105" y="708"/>
      <point x="29" y="650"/>
      <point x="29" y="569" type="curve"/>
      <point x="29" y="535"/>
      <point x="50" y="513"/>
      <point x="82" y="513" type="curve"/>
      <point x="112" y="513"/>
      <point x="129" y="532"/>
      <point x="129" y="557" type="curve"/>
      <point x="129" y="597"/>
      <point x="97" y="620"/>
      <point x="97" y="650" type="curve"/>
      <point x="97" y="685"/>
      <point x="134" y="707"/>
      <point x="194" y="707" type="curve"/>
      <point x="243" y="707"/>
      <point x="254" y="692"/>
      <point x="254" y="621" type="curve"/>
      <point x="254" y="87" type="line"/>
      <point x="254" y="23"/>
      <point x="244" y="10"/>
      <point x="181" y="3" type="curve"/>
      <point x="157" y="1" type="line"/>
      <point x="157" y="0" type="line"/>
      <point x="185" y="1"/>
      <point x="236" y="3"/>
    </contour>
    <contour>
      <point x="422" y="2" type="curve" smooth="yes"/>
      <point x="359" y="2"/>
      <point x="347" y="16"/>
      <point x="347" y="87" type="curve" smooth="yes"/>
      <point x="347" y="705" type="line"/>
      <point x="421" y="705" type="line" smooth="yes"/>
      <point x="517" y="705"/>
      <point x="561" y="653"/>
      <point x="561" y="539" type="curve" smooth="yes"/>
      <point x="561" y="425"/>
      <point x="512" y="368"/>
      <point x="414" y="368" type="curve" smooth="yes"/>
      <point x="328" y="368" type="line"/>
      <point x="328" y="367" type="line"/>
      <point x="431" y="367" type="line" smooth="yes"/>
      <point x="551" y="367"/>
      <point x="609" y="312"/>
      <point x="609" y="198" type="curve" smooth="yes"/>
      <point x="609" y="67"/>
      <point x="547" y="2"/>
    </contour>
  </outline>
</glyph>
<glyph name="btopbar" format="2">
  <advance width="598"/>
  <unicode hex="0183"/>
  <anchor x="195" y="256" name="#entry"/>
  <anchor x="195" y="256" name="#exit"/>
  <anchor x="300" y="0" name="bottom"/>
  <anchor x="312" y="255" name="center"/>
  <anchor x="272" y="512" name="top"/>
  <anchor x="105" y="512" name="top-left"/>
  <outline>
    <contour>
      <point x="340" y="526" type="curve" smooth="yes"/>
      <point x="257" y="526"/>
      <point x="203" y="483"/>
      <point x="182" y="431" type="curve"/>
      <point x="183" y="431" type="line"/>
      <point x="204" y="478"/>
      <point x="244" y="511"/>
      <point x="303" y="511" type="curve" smooth="yes"/>
      <point x="392" y="511"/>
      <point x="444" y="416"/>
      <point x="444" y="255" type="curve" smooth="yes"/>
      <point x="444" y="91"/>
      <point x="390" y="-5"/>
      <point x="297" y="-5" type="curve" smooth="yes"/>
      <point x="238" y="-5"/>
      <point x="197" y="29"/>
      <point x="189" y="60" type="curve"/>
      <point x="188" y="61" type="line"/>
      <point x="193" y="30"/>
      <point x="244" y="-17"/>
      <point x="320" y="-17" type="curve" smooth="yes"/>
      <point x="457" y="-17"/>
      <point x="541" y="83"/>
      <point x="541" y="255" type="curve" smooth="yes"/>
      <point x="541" y="426"/>
      <point x="465" y="526"/>
    </contour>
    <component base="_LC-ascender-left-bar-top"/>
    <component base="_LC-baseline-left-instroke" xOffset="7"/>
  </outline>
</glyph>
<glyph name="Chook" format="2">
  <advance width="688"/>
  <unicode hex="0187"/>
  <anchor x="374" y="0" name="bottom"/>
  <anchor x="374" y="0" name="currency"/>
  <anchor x="153" y="354" name="middlestroke"/>
  <anchor x="364" y="708" name="top"/>
  <outline>
    <contour>
      <point x="364" y="-14" type="curve" smooth="yes"/>
      <point x="482" y="-14"/>
      <point x="524" y="39"/>
      <point x="582" y="39" type="curve" smooth="yes"/>
      <point x="606" y="39"/>
      <point x="617" y="25"/>
      <point x="622" y="-14" type="curve"/>
      <point x="623" y="-14" type="line"/>
      <point x="620" y="34"/>
      <point x="619" y="100"/>
      <point x="619" y="240" type="curve"/>
      <point x="618" y="240" type="line"/>
      <point x="604" y="92"/>
      <point x="507" y="-11"/>
      <point x="383" y="-11" type="curve" smooth="yes"/>
      <point x="237" y="-11"/>
      <point x="153" y="124"/>
      <point x="153" y="356" type="curve" smooth="yes"/>
      <point x="153" y="586"/>
      <point x="236" y="719"/>
      <point x="381" y="719" type="curve" smooth="yes"/>
      <point x="500" y="719"/>
      <point x="597" y="620"/>
      <point x="618" y="468" type="curve"/>
      <point x="619" y="468" type="line"/>
      <point x="619" y="546"/>
      <point x="609" y="612"/>
      <point x="585" y="668" type="curve"/>
      <point x="520" y="668"/>
      <point x="476" y="722"/>
      <point x="366" y="722" type="curve" smooth="yes"/>
      <point x="182" y="722"/>
      <point x="53" y="567"/>
      <point x="53" y="345" type="curve" smooth="yes"/>
      <point x="53" y="128"/>
      <point x="176" y="-14"/>
    </contour>
    <contour>
      <point x="618" y="468" type="curve"/>
      <point x="619" y="468" type="line"/>
      <point x="619" y="720"/>
      <point x="521" y="717"/>
      <point x="521" y="820" type="curve" smooth="yes"/>
      <point x="521" y="846"/>
      <point x="533" y="862"/>
      <point x="554" y="862" type="curve" smooth="yes"/>
      <point x="584" y="862"/>
      <point x="606" y="836"/>
      <point x="644" y="836" type="curve" smooth="yes"/>
      <point x="673" y="836"/>
      <point x="693" y="854"/>
      <point x="693" y="884" type="curve" smooth="yes"/>
      <point x="693" y="917"/>
      <point x="669" y="936"/>
      <point x="632" y="936" type="curve" smooth="yes"/>
      <point x="568" y="936"/>
      <point x="520" y="888"/>
      <point x="520" y="820" type="curve" smooth="yes"/>
      <point x="520" y="716"/>
      <point x="618" y="719"/>
    </contour>
  </outline>
</glyph>
<glyph name="Dhook" format="2">
  <advance width="852"/>
  <unicode hex="018A"/>
  <anchor x="473" y="0" name="bottom"/>
  <anchor x="320" y="356" name="center"/>
  <anchor x="489" y="708" name="top"/>
  <outline>
    <contour>
      <point x="415" y="0" type="curve"/>
      <point x="437" y="0" type="line" smooth="yes"/>
      <point x="664" y="0"/>
      <point x="799" y="137"/>
      <point x="799" y="369" type="curve" smooth="yes"/>
      <point x="799" y="591"/>
      <point x="676" y="708"/>
      <point x="441" y="708" type="curve" smooth="yes"/>
      <point x="411" y="708"/>
      <point x="346" y="705"/>
      <point x="302" y="705" type="curve"/>
      <point x="300" y="705" type="line"/>
      <point x="246" y="705"/>
      <point x="215" y="708"/>
      <point x="194" y="708" type="curve"/>
      <point x="105" y="708"/>
      <point x="29" y="650"/>
      <point x="29" y="569" type="curve"/>
      <point x="29" y="535"/>
      <point x="50" y="513"/>
      <point x="82" y="513" type="curve"/>
      <point x="112" y="513"/>
      <point x="129" y="532"/>
      <point x="129" y="557" type="curve"/>
      <point x="129" y="597"/>
      <point x="97" y="620"/>
      <point x="97" y="650" type="curve"/>
      <point x="97" y="685"/>
      <point x="134" y="707"/>
      <point x="194" y="707" type="curve"/>
      <point x="243" y="707"/>
      <point x="254" y="692"/>
      <point x="254" y="621" type="curve"/>
      <point x="254" y="87" type="line"/>
      <point x="254" y="23"/>
      <point x="241" y="10"/>
      <point x="184" y="4" type="curve"/>
      <point x="149" y="1" type="line"/>
      <point x="149" y="0" type="line"/>
      <point x="183" y="1"/>
      <point x="239" y="3"/>
      <point x="301" y="3" type="curve"/>
      <point x="352" y="3"/>
      <point x="392" y="0"/>
    </contour>
    <contour>
      <point x="428" y="1" type="curve" smooth="yes"/>
      <point x="360" y="1"/>
      <point x="347" y="15"/>
      <point x="347" y="85" type="curve" smooth="yes"/>
      <point x="347" y="704" type="line"/>
      <point x="428" y="704" type="line" smooth="yes"/>
      <point x="619" y="704"/>
      <point x="699" y="603"/>
      <point x="699" y="354" type="curve" smooth="yes"/>
      <point x="699" y="106"/>
      <point x="618" y="1"/>
    </contour>
  </outline>
</glyph>
<glyph name="Schwa" format="2">
  <advance width="735"/>
  <unicode hex="018F"/>
  <anchor x="384" y="0" name="bottom"/>
  <anchor x="384" y="708" name="top"/>
  <anchor x="384" y="688" name="top_low_1"/>
  <anchor x="384" y="668" name="top_low_2"/>
  <anchor x="384" y="648" name="top_low_3"/>
  <outline>
    <contour>
      <point x="358" y="-14" type="curve" smooth="yes"/>
      <point x="560" y="-14"/>
      <point x="682" y="123"/>
      <point x="682" y="351" type="curve" smooth="yes"/>
      <point x="682" y="577"/>
      <point x="561" y="722"/>
      <point x="372" y="722" type="curve" smooth="yes"/>
      <point x="239" y="722"/>
      <point x="134" y="650"/>
      <point x="94" y="530" type="curve"/>
      <point x="95" y="530" type="line"/>
      <point x="135" y="641"/>
      <point x="227" y="707"/>
      <point x="336" y="707" type="curve" smooth="yes"/>
      <point x="491" y="707"/>
      <point x="582" y="571"/>
      <point x="582" y="342" type="curve" smooth="yes"/>
      <point x="582" y="124"/>
      <point x="500" y="-13"/>
      <point x="369" y="-13" type="curve" smooth="yes"/>
      <point x="235" y="-13"/>
      <point x="143" y="127"/>
      <point x="153" y="315" type="curve"/>
      <point x="621" y="315" type="line"/>
      <point x="620" y="316" type="line"/>
      <point x="53" y="316" type="line"/>
      <point x="55" y="108"/>
      <point x="170" y="-14"/>
    </contour>
  </outline>
</glyph>
<glyph name="Eopen" format="2">
  <advance width="553"/>
  <unicode hex="0190"/>
  <anchor x="273" y="0" name="bottom"/>
  <anchor x="273" y="708" name="top"/>
  <outline>
    <contour>
      <point x="256" y="-14" type="curve" smooth="yes"/>
      <point x="362" y="-14"/>
      <point x="389" y="25"/>
      <point x="442" y="25" type="curve" smooth="yes"/>
      <point x="468" y="25"/>
      <point x="479" y="16"/>
      <point x="487" y="-14" type="curve"/>
      <point x="488" y="-14" type="line"/>
      <point x="483" y="19"/>
      <point x="482" y="54"/>
      <point x="482" y="196" type="curve"/>
      <point x="481" y="196" type="line"/>
      <point x="465" y="65"/>
      <point x="404" y="-4"/>
      <point x="305" y="-4" type="curve" smooth="yes"/>
      <point x="206" y="-4"/>
      <point x="145" y="64"/>
      <point x="145" y="175" type="curve" smooth="yes"/>
      <point x="145" y="273"/>
      <point x="191" y="342"/>
      <point x="263" y="353" type="curve"/>
      <point x="288" y="347"/>
      <point x="304" y="345"/>
      <point x="318" y="345" type="curve" smooth="yes"/>
      <point x="334" y="345"/>
      <point x="342" y="348"/>
      <point x="342" y="353" type="curve" smooth="yes"/>
      <point x="342" y="358"/>
      <point x="333" y="361"/>
      <point x="316" y="361" type="curve" smooth="yes"/>
      <point x="301" y="361"/>
      <point x="284" y="359"/>
      <point x="263" y="355" type="curve"/>
      <point x="199" y="366"/>
      <point x="159" y="435"/>
      <point x="159" y="532" type="curve" smooth="yes"/>
      <point x="159" y="646"/>
      <point x="215" y="714"/>
      <point x="310" y="714" type="curve" smooth="yes"/>
      <point x="406" y="714"/>
      <point x="465" y="644"/>
      <point x="481" y="512" type="curve"/>
      <point x="482" y="512" type="line"/>
      <point x="482" y="654"/>
      <point x="483" y="689"/>
      <point x="488" y="722" type="curve"/>
      <point x="487" y="722" type="line"/>
      <point x="479" y="692"/>
      <point x="468" y="683"/>
      <point x="443" y="683" type="curve" smooth="yes"/>
      <point x="393" y="683"/>
      <point x="367" y="722"/>
      <point x="272" y="722" type="curve" smooth="yes"/>
      <point x="143" y="722"/>
      <point x="59" y="650"/>
      <point x="59" y="540" type="curve" smooth="yes"/>
      <point x="59" y="436"/>
      <point x="133" y="367"/>
      <point x="256" y="355" type="curve"/>
      <point x="256" y="354" type="line"/>
      <point x="119" y="336"/>
      <point x="45" y="272"/>
      <point x="45" y="161" type="curve" smooth="yes"/>
      <point x="45" y="49"/>
      <point x="121" y="-14"/>
    </contour>
  </outline>
</glyph>
<glyph name="Fhook" format="2">
  <advance width="567"/>
  <unicode hex="0191"/>
  <anchor x="288" y="0" name="bottom"/>
  <anchor x="208" y="140" name="center"/>
  <anchor x="121" y="250" name="stem"/>
  <anchor x="293" y="708" name="top"/>
  <anchor x="293" y="688" name="top_low_1"/>
  <anchor x="293" y="668" name="top_low_2"/>
  <anchor x="293" y="648" name="top_low_3"/>
  <outline>
    <contour>
      <point x="121" y="250" type="line"/>
      <point x="214" y="250" type="line"/>
      <point x="214" y="704" type="line"/>
      <point x="328" y="704" type="line"/>
      <point x="446" y="704"/>
      <point x="486" y="666"/>
      <point x="531" y="508" type="curve"/>
      <point x="532" y="508" type="line"/>
      <point x="523" y="580"/>
      <point x="519" y="645"/>
      <point x="519" y="708" type="curve"/>
      <point x="480" y="706"/>
      <point x="425" y="705"/>
      <point x="340" y="705" type="curve"/>
      <point x="168" y="705" type="line"/>
      <point x="157" y="705" type="line"/>
      <point x="104" y="705"/>
      <point x="64" y="707"/>
      <point x="40" y="708" type="curve"/>
      <point x="40" y="707" type="line"/>
      <point x="56" y="705" type="line"/>
      <point x="112" y="698"/>
      <point x="121" y="686"/>
      <point x="121" y="621" type="curve"/>
    </contour>
    <contour>
      <point x="184" y="296" type="line"/>
      <point x="397" y="296" type="line"/>
      <point x="397" y="297" type="line"/>
      <point x="184" y="297" type="line"/>
    </contour>
    <contour>
      <point x="458" y="114" type="curve"/>
      <point x="459" y="114" type="line"/>
      <point x="454" y="210"/>
      <point x="453" y="249"/>
      <point x="453" y="296" type="curve" smooth="yes"/>
      <point x="453" y="336"/>
      <point x="451" y="376"/>
      <point x="456" y="468" type="curve"/>
      <point x="455" y="468" type="line"/>
      <point x="441" y="340"/>
      <point x="409" y="297"/>
      <point x="330" y="297" type="curve"/>
      <point x="330" y="296" type="line"/>
      <point x="416" y="296"/>
      <point x="446" y="254"/>
    </contour>
    <component base="_UC-J-descender-stump" xOffset="4"/>
  </outline>
</glyph>
<glyph name="Ghook" format="2">
  <advance width="732"/>
  <unicode hex="0193"/>
  <anchor x="376" y="0" name="bottom"/>
  <anchor x="374" y="0" name="currency"/>
  <anchor x="360" y="708" name="top"/>
  <outline>
    <contour>
      <point x="364" y="-14" type="curve" smooth="yes"/>
      <point x="480" y="-14"/>
      <point x="513" y="40"/>
      <point x="575" y="40" type="curve" smooth="yes"/>
      <point x="597" y="40"/>
      <point x="610" y="36"/>
      <point x="618" y="31" type="curve"/>
      <point x="619" y="31" type="line"/>
      <point x="619" y="217" type="line"/>
      <point x="619" y="284"/>
      <point x="624" y="297"/>
      <point x="654" y="302" type="curve"/>
      <point x="660" y="303" type="line"/>
      <point x="660" y="304" type="line"/>
      <point x="631" y="302"/>
      <point x="602" y="301"/>
      <point x="572" y="301" type="curve"/>
      <point x="573" y="301" type="line"/>
      <point x="572" y="301" type="line"/>
      <point x="507" y="301"/>
      <point x="439" y="303"/>
      <point x="405" y="304" type="curve"/>
      <point x="405" y="303" type="line"/>
      <point x="441" y="300" type="line"/>
      <point x="515" y="294"/>
      <point x="526" y="280"/>
      <point x="526" y="217" type="curve"/>
      <point x="526" y="133" type="line" smooth="yes"/>
      <point x="526" y="39"/>
      <point x="472" y="-11"/>
      <point x="383" y="-11" type="curve" smooth="yes"/>
      <point x="237" y="-11"/>
      <point x="153" y="124"/>
      <point x="153" y="356" type="curve" smooth="yes"/>
      <point x="153" y="586"/>
      <point x="236" y="719"/>
      <point x="381" y="719" type="curve" smooth="yes"/>
      <point x="500" y="719"/>
      <point x="597" y="620"/>
      <point x="618" y="468" type="curve"/>
      <point x="619" y="468" type="line"/>
      <point x="619" y="546"/>
      <point x="609" y="612"/>
      <point x="585" y="668" type="curve"/>
      <point x="520" y="668"/>
      <point x="476" y="722"/>
      <point x="366" y="722" type="curve" smooth="yes"/>
      <point x="182" y="722"/>
      <point x="53" y="567"/>
      <point x="53" y="345" type="curve" smooth="yes"/>
      <point x="53" y="128"/>
      <point x="176" y="-14"/>
    </contour>
    <contour>
      <point x="618" y="468" type="curve"/>
      <point x="619" y="468" type="line"/>
      <point x="619" y="720"/>
      <point x="521" y="717"/>
      <point x="521" y="820" type="curve" smooth="yes"/>
      <point x="521" y="846"/>
      <point x="533" y="862"/>
      <point x="554" y="862" type="curve" smooth="yes"/>
      <point x="584" y="862"/>
      <point x="606" y="836"/>
      <point x="644" y="836" type="curve" smooth="yes"/>
      <point x="673" y="836"/>
      <point x="693" y="854"/>
      <point x="693" y="884" type="curve" smooth="yes"/>
      <point x="693" y="917"/>
      <point x="669" y="936"/>
      <point x="632" y="936" type="curve" smooth="yes"/>
      <point x="568" y="936"/>
      <point x="520" y="888"/>
      <point x="520" y="820" type="curve" smooth="yes"/>
      <point x="520" y="716"/>
      <point x="618" y="719"/>
    </contour>
  </outline>
</glyph>
<glyph name="khook" format="2">
  <advance width="579"/>
  <unicode hex="0199"/>
  <anchor x="195" y="256" name="#entry"/>
  <anchor x="195" y="256" name="#exit"/>
  <anchor x="573" y="512" name="2ndTittle"/>
  <anchor x="331" y="0" name="^exit"/>
  <anchor x="105" y="512" name="bar"/>
  <anchor x="150" y="512" name="center"/>
  <anchor x="105" y="256" name="stem"/>
  <anchor x="282" y="771" name="top"/>
  <outline>
    <contour>
      <point x="105" y="256" type="line"/>
      <point x="195" y="256" type="line"/>
      <point x="195" y="585" type="line"/>
      <point x="195" y="720"/>
      <point x="232" y="780"/>
      <point x="316" y="780" type="curve"/>
      <point x="346" y="780"/>
      <point x="365" y="767"/>
      <point x="365" y="744" type="curve"/>
      <point x="365" y="726"/>
      <point x="335" y="700"/>
      <point x="335" y="668" type="curve"/>
      <point x="335" y="644"/>
      <point x="353" y="628"/>
      <point x="378" y="628" type="curve"/>
      <point x="408" y="628"/>
      <point x="430" y="651"/>
      <point x="430" y="683" type="curve"/>
      <point x="430" y="742"/>
      <point x="377" y="782"/>
      <point x="303" y="782" type="curve"/>
      <point x="176" y="782"/>
      <point x="105" y="699"/>
      <point x="105" y="544" type="curve"/>
    </contour>
    <component base="_LC-baseline-normal-narrow"/>
    <component base="_LC-k-legs" xOffset="159"/>
  </outline>
</glyph>
<glyph name="lambdastroke-latin" format="2">
  <advance width="512"/>
  <unicode hex="019B"/>
  <anchor x="266" y="0" name="bottom"/>
  <anchor x="266" y="245" name="center"/>
  <anchor x="266" y="771" name="top"/>
  <outline>
    <contour>
      <point x="175" y="78" type="curve"/>
      <point x="311" y="405" type="line"/>
      <point x="305" y="420" type="line"/>
      <point x="393" y="182" type="line"/>
      <point x="437" y="58"/>
      <point x="427" y="9"/>
      <point x="376" y="2" type="curve"/>
      <point x="369" y="1" type="line"/>
      <point x="369" y="0" type="line"/>
      <point x="394" y="2"/>
      <point x="431" y="3"/>
      <point x="453" y="3" type="curve"/>
      <point x="482" y="3"/>
      <point x="501" y="1"/>
      <point x="513" y="0" type="curve"/>
      <point x="513" y="1" type="line"/>
      <point x="506" y="3" type="line"/>
      <point x="471" y="13"/>
      <point x="444" y="44"/>
      <point x="398" y="172" type="curve"/>
      <point x="266" y="529" type="line"/>
      <point x="265" y="529" type="line"/>
      <point x="70" y="55" type="line"/>
      <point x="55" y="19"/>
      <point x="30" y="2"/>
      <point x="-1" y="1" type="curve"/>
      <point x="-1" y="0" type="line"/>
      <point x="32" y="2"/>
      <point x="58" y="3"/>
      <point x="93" y="3" type="curve"/>
      <point x="116" y="3"/>
      <point x="135" y="2"/>
      <point x="154" y="0" type="curve"/>
      <point x="156" y="28"/>
      <point x="165" y="54"/>
    </contour>
    <contour>
      <point x="66" y="513" type="line"/>
      <point x="239" y="597" type="line"/>
      <point x="240" y="599" type="line"/>
      <point x="65" y="514" type="line"/>
    </contour>
    <contour>
      <point x="266" y="524" type="line"/>
      <point x="268" y="524" type="line"/>
      <point x="205" y="685" type="line" smooth="yes"/>
      <point x="177" y="756"/>
      <point x="148" y="782"/>
      <point x="98" y="782" type="curve" smooth="yes"/>
      <point x="49" y="782"/>
      <point x="19" y="756"/>
      <point x="19" y="715" type="curve" smooth="yes"/>
      <point x="19" y="680"/>
      <point x="41" y="656"/>
      <point x="73" y="656" type="curve" smooth="yes"/>
      <point x="96" y="656"/>
      <point x="110" y="670"/>
      <point x="110" y="693" type="curve" smooth="yes"/>
      <point x="110" y="724"/>
      <point x="94" y="743"/>
      <point x="94" y="762" type="curve" smooth="yes"/>
      <point x="94" y="771"/>
      <point x="101" y="776"/>
      <point x="114" y="776" type="curve" smooth="yes"/>
      <point x="151" y="776"/>
      <point x="179" y="748"/>
      <point x="203" y="686" type="curve" smooth="yes"/>
    </contour>
    <contour>
      <point x="239" y="597" type="line"/>
      <point x="413" y="682" type="line"/>
      <point x="412" y="683" type="line"/>
      <point x="240" y="599" type="line"/>
    </contour>
  </outline>
</glyph>
<glyph name="Mturned" format="2">
  <advance width="1203"/>
  <unicode hex="019C"/>
  <anchor x="601" y="0" name="bottom"/>
  <anchor x="601" y="708" name="top"/>
  <outline>
    <contour>
      <point x="356" y="-14" type="curve" smooth="yes"/>
      <point x="529" y="-14"/>
      <point x="616" y="85"/>
      <point x="616" y="281" type="curve"/>
      <point x="615" y="280" type="line"/>
      <point x="615" y="101"/>
      <point x="539" y="4"/>
      <point x="388" y="4" type="curve" smooth="yes"/>
      <point x="263" y="4"/>
      <point x="214" y="74"/>
      <point x="214" y="251" type="curve" smooth="yes"/>
      <point x="214" y="621" type="line"/>
      <point x="214" y="686"/>
      <point x="223" y="698"/>
      <point x="279" y="705" type="curve"/>
      <point x="295" y="707" type="line"/>
      <point x="295" y="708" type="line"/>
      <point x="271" y="707"/>
      <point x="231" y="705"/>
      <point x="178" y="705" type="curve"/>
      <point x="167" y="705" type="line"/>
      <point x="157" y="705" type="line"/>
      <point x="104" y="705"/>
      <point x="64" y="707"/>
      <point x="40" y="708" type="curve"/>
      <point x="40" y="707" type="line"/>
      <point x="56" y="705" type="line"/>
      <point x="112" y="698"/>
      <point x="121" y="686"/>
      <point x="121" y="621" type="curve"/>
      <point x="121" y="238" type="line" smooth="yes"/>
      <point x="121" y="69"/>
      <point x="199" y="-14"/>
    </contour>
    <contour>
      <point x="786" y="-14" type="curve" smooth="yes"/>
      <point x="950" y="-14"/>
      <point x="1030" y="83"/>
      <point x="1030" y="281" type="curve"/>
      <point x="1029" y="280" type="line"/>
      <point x="1029" y="98"/>
      <point x="962" y="4"/>
      <point x="819" y="4" type="curve" smooth="yes"/>
      <point x="697" y="4"/>
      <point x="648" y="75"/>
      <point x="648" y="251" type="curve" smooth="yes"/>
      <point x="648" y="621" type="line"/>
      <point x="648" y="686"/>
      <point x="657" y="698"/>
      <point x="713" y="705" type="curve"/>
      <point x="729" y="707" type="line"/>
      <point x="729" y="708" type="line"/>
      <point x="705" y="707"/>
      <point x="665" y="705"/>
      <point x="612" y="705" type="curve"/>
      <point x="601" y="705" type="line"/>
      <point x="591" y="705" type="line"/>
      <point x="538" y="705"/>
      <point x="498" y="707"/>
      <point x="474" y="708" type="curve"/>
      <point x="474" y="707" type="line"/>
      <point x="490" y="705" type="line"/>
      <point x="546" y="698"/>
      <point x="555" y="686"/>
      <point x="555" y="621" type="curve"/>
      <point x="555" y="238" type="line" smooth="yes"/>
      <point x="555" y="71"/>
      <point x="633" y="-14"/>
    </contour>
    <contour>
      <point x="989" y="0" type="line"/>
      <point x="989" y="62" type="line"/>
      <point x="989" y="-14" type="line"/>
      <point x="1026" y="-3"/>
      <point x="1058" y="2"/>
      <point x="1101" y="2" type="curve"/>
      <point x="1116" y="2"/>
      <point x="1139" y="1"/>
      <point x="1163" y="0" type="curve"/>
      <point x="1163" y="1" type="line"/>
      <point x="1149" y="2" type="line"/>
      <point x="1098" y="6"/>
      <point x="1082" y="22"/>
      <point x="1082" y="71" type="curve"/>
      <point x="1082" y="621" type="line"/>
      <point x="1082" y="686"/>
      <point x="1091" y="698"/>
      <point x="1147" y="705" type="curve"/>
      <point x="1163" y="707" type="line"/>
      <point x="1163" y="708" type="line"/>
      <point x="1139" y="707"/>
      <point x="1099" y="705"/>
      <point x="1046" y="705" type="curve"/>
      <point x="1035" y="705" type="line"/>
      <point x="1025" y="705" type="line"/>
      <point x="972" y="705"/>
      <point x="932" y="707"/>
      <point x="908" y="708" type="curve"/>
      <point x="908" y="707" type="line"/>
      <point x="924" y="705" type="line"/>
      <point x="980" y="698"/>
      <point x="989" y="686"/>
      <point x="989" y="621" type="curve"/>
    </contour>
  </outline>
</glyph>
<glyph name="nlongrightleg" format="2">
  <advance width="594"/>
  <unicode hex="019E"/>
  <anchor x="105" y="256" name="#entry"/>
  <anchor x="195" y="256" name="#exit"/>
  <anchor x="-116" y="0" name="%entry"/>
  <anchor x="105" y="0" name="%exit"/>
  <anchor x="0" y="0" name="^entry"/>
  <anchor x="286" y="0" name="^exit"/>
  <anchor x="316" y="0" name="bottom"/>
  <anchor x="195" y="256" name="reversedExit"/>
  <anchor x="105" y="256" name="stem"/>
  <anchor x="306" y="512" name="top"/>
  <anchor x="195" y="514" name="topright"/>
  <outline>
    <contour>
      <point x="150" y="3" type="curve"/>
      <point x="150" y="3" type="line"/>
      <point x="150" y="3" type="line"/>
      <point x="191" y="3"/>
      <point x="228" y="1"/>
      <point x="271" y="0" type="curve"/>
      <point x="271" y="1" type="line"/>
      <point x="260" y="2" type="line"/>
      <point x="212" y="6"/>
      <point x="195" y="23"/>
      <point x="195" y="73" type="curve"/>
      <point x="195" y="256" type="line"/>
      <point x="105" y="256" type="line"/>
      <point x="105" y="73" type="line"/>
      <point x="105" y="23"/>
      <point x="88" y="6"/>
      <point x="40" y="2" type="curve"/>
      <point x="29" y="1" type="line"/>
      <point x="29" y="0" type="line"/>
      <point x="72" y="1"/>
      <point x="109" y="3"/>
    </contour>
    <contour>
      <point x="105" y="256" type="line"/>
      <point x="195" y="256" type="line"/>
      <point x="195" y="514" type="line"/>
      <point x="195" y="526" type="line"/>
      <point x="167" y="516"/>
      <point x="130" y="512"/>
      <point x="89" y="512" type="curve"/>
      <point x="73" y="512"/>
      <point x="60" y="512"/>
      <point x="29" y="514" type="curve"/>
      <point x="29" y="513" type="line"/>
      <point x="38" y="512" type="line"/>
      <point x="90" y="506"/>
      <point x="105" y="490"/>
      <point x="105" y="441" type="curve"/>
    </contour>
    <contour>
      <point x="413" y="256" type="line"/>
      <point x="503" y="256" type="line"/>
      <point x="503" y="332" type="line" smooth="yes"/>
      <point x="503" y="459"/>
      <point x="450" y="529"/>
      <point x="351" y="529" type="curve" smooth="yes"/>
      <point x="261" y="529"/>
      <point x="203" y="485"/>
      <point x="170" y="395" type="curve"/>
      <point x="171" y="394" type="line"/>
      <point x="201" y="472"/>
      <point x="250" y="514"/>
      <point x="312" y="514" type="curve" smooth="yes"/>
      <point x="380" y="514"/>
      <point x="413" y="460"/>
      <point x="413" y="350" type="curve" smooth="yes"/>
    </contour>
    <contour>
      <point x="458" y="-228" type="curve"/>
      <point x="458" y="-228" type="line"/>
      <point x="458" y="-228" type="line"/>
      <point x="499" y="-228"/>
      <point x="536" y="-230"/>
      <point x="579" y="-231" type="curve"/>
      <point x="579" y="-230" type="line"/>
      <point x="568" y="-229" type="line"/>
      <point x="520" y="-225"/>
      <point x="503" y="-208"/>
      <point x="503" y="-158" type="curve"/>
      <point x="503" y="256" type="line"/>
      <point x="413" y="256" type="line"/>
      <point x="413" y="-158" type="line"/>
      <point x="413" y="-208"/>
      <point x="396" y="-225"/>
      <point x="348" y="-229" type="curve"/>
      <point x="337" y="-230" type="line"/>
      <point x="337" y="-231" type="line"/>
      <point x="380" y="-230"/>
      <point x="417" y="-228"/>
    </contour>
  </outline>
</glyph>
